<?xml version="1.0" encoding="UTF-8" standalone="no"?>
<!DOCTYPE svg PUBLIC "-//W3C//DTD SVG 1.1//EN" "http://www.w3.org/Graphics/SVG/1.1/DTD/svg11.dtd">
<svg width="100%" height="100%" viewBox="0 0 2880 600" version="1.1" xmlns="http://www.w3.org/2000/svg" xmlns:xlink="http://www.w3.org/1999/xlink" xml:space="preserve" xmlns:serif="http://www.serif.com/" style="fill-rule:evenodd;clip-rule:evenodd;stroke-linejoin:round;stroke-miterlimit:2;">
    <g id="g1" transform="matrix(1.01665,0,0,1.01673,4.10638,-535.268)">
        <g id="Layer-1" serif:id="Layer 1">
            <g id="g11" serif:id="g1">
                <g id="g6" transform="matrix(0.25717,0,0,0.25717,-25.2781,476.744)">
                    <g id="path1" transform="matrix(1.33333,0,0,-1.33333,858.246,613.397)">
                        <path d="M0,0C0.445,1.236 0.819,1.84 0.839,2.458C0.859,3.039 0.505,3.631 0.315,4.218C-0.315,3.784 -1.08,3.447 -1.502,2.863C-1.658,2.653 -0.998,1.848 0,0M197.22,216.258C196.903,216.68 196.588,217.108 196.271,217.534C195.5,216.958 194.732,216.383 193.961,215.807C194.386,215.357 195.092,214.461 195.188,214.523C195.934,214.997 196.557,215.657 197.22,216.258M189.746,164.22C188.938,164.843 188.263,165.6 188.045,165.484C187.466,165.183 186.885,164.563 186.715,163.953C186.627,163.638 187.597,162.638 187.778,162.711C188.43,162.978 188.949,163.568 189.746,164.22M-126.113,-1.174C-127.556,-1.709 -128.234,-1.789 -128.285,-2.01C-128.432,-2.67 -128.33,-3.385 -128.327,-4.079C-127.78,-3.359 -127.23,-2.639 -126.113,-1.174M731.625,-163.63C732.135,-163.029 732.728,-162.632 732.793,-162.162C732.832,-161.841 732.073,-161.073 731.778,-161.124C731.251,-161.215 730.806,-161.773 730.324,-162.136C730.701,-162.57 731.081,-163.006 731.625,-163.63M-127.862,-1257.45C-128.614,-1256.88 -129.098,-1256.22 -129.546,-1256.24C-130.073,-1256.28 -130.564,-1256.9 -131.071,-1257.27C-130.612,-1257.72 -130.204,-1258.43 -129.671,-1258.54C-129.251,-1258.63 -128.682,-1257.97 -127.862,-1257.45M328.323,-1250.93C328.19,-1250.55 328.158,-1250.02 327.889,-1249.84C327.674,-1249.69 327.169,-1249.99 326.792,-1250.08C326.991,-1250.62 327.189,-1251.16 327.387,-1251.69C327.696,-1251.44 328.008,-1251.19 328.323,-1250.93M-36.567,-536.726C-37.522,-536.264 -38.069,-535.81 -38.636,-535.782C-39.118,-535.757 -39.626,-536.221 -40.119,-536.471C-39.682,-537.041 -39.314,-537.707 -38.755,-538.112C-38.597,-538.228 -37.882,-537.579 -36.567,-536.726M279.595,-1242.39C279.329,-1241.82 279.162,-1241.12 278.972,-1241.12C278.382,-1241.09 277.784,-1241.33 277.189,-1241.47C277.35,-1241.84 277.464,-1242.49 277.679,-1242.52C278.271,-1242.62 278.904,-1242.46 279.595,-1242.39M-19.695,-8.09C-18.782,-8.294 -18.034,-8.464 -17.289,-8.631C-17.235,-8.317 -17.045,-7.79 -17.152,-7.722C-17.654,-7.398 -18.224,-7.129 -18.805,-7.002C-18.955,-6.968 -19.233,-7.509 -19.695,-8.09M85.666,-1043.73C84.526,-1046.28 84.022,-1047 83.962,-1047.75C83.94,-1048.05 84.903,-1048.42 85.419,-1048.76C85.822,-1048.08 86.409,-1047.44 86.57,-1046.7C86.686,-1046.17 86.241,-1045.51 85.666,-1043.73M885.651,-272.954C885.144,-273.787 884.463,-274.499 884.602,-274.751C884.945,-275.363 885.671,-275.763 886.241,-276.25C886.439,-275.664 886.825,-275.063 886.774,-274.499C886.734,-274.045 886.173,-273.634 885.651,-272.954M525.538,-956.231C525.699,-956.551 525.864,-956.874 526.022,-957.2C527.02,-956.75 528.018,-956.296 529.016,-955.845C528.707,-955.335 528.392,-954.828 528.083,-954.317C527.236,-954.955 526.388,-955.593 525.538,-956.231M134.816,-14.664L133.183,-14.686C133.277,-15.636 133.37,-16.588 133.461,-17.538C134.008,-17.473 135.028,-17.416 135.028,-17.34C135.048,-16.449 134.912,-15.557 134.816,-14.664M702.655,-16.826C702.306,-16.954 701.957,-17.084 701.609,-17.215C701.864,-18.193 702.116,-19.174 702.371,-20.151C702.751,-19.987 703.474,-19.749 703.457,-19.67C703.253,-18.709 702.938,-17.77 702.655,-16.826M-84.059,-1120.61C-83.548,-1120.91 -83.038,-1121.22 -82.525,-1121.52C-82.216,-1120.69 -81.601,-1119.84 -81.692,-1119.06C-81.765,-1118.46 -82.67,-1117.88 -83.324,-1117.49C-83.472,-1117.4 -84.41,-1118.12 -84.472,-1118.55C-84.566,-1119.2 -84.22,-1119.92 -84.059,-1120.61M-299.718,16.98C-300.487,17.79 -300.892,18.465 -301.484,18.748C-301.816,18.907 -302.457,18.42 -302.958,18.224C-302.61,17.51 -302.332,16.741 -301.853,16.129C-301.759,16.01 -300.883,16.503 -299.718,16.98M737.892,-164.242C737.127,-163.59 736.702,-162.992 736.166,-162.873C735.871,-162.808 735.398,-163.545 735.004,-163.922C735.423,-164.358 735.783,-165.01 736.294,-165.158C736.642,-165.263 737.195,-164.667 737.892,-164.242M170.872,-1036.37C169.058,-1035.77 167.783,-1035.35 166.068,-1034.79C166.893,-1037.53 167.27,-1039.97 170.872,-1036.37M214.554,185.729C214.169,185.803 213.783,185.873 213.401,185.947C213.216,184.969 213.035,183.994 212.854,183.016C213.233,182.948 213.61,182.874 213.99,182.803C214.18,183.779 214.367,184.754 214.554,185.729M-419.474,-87.582C-420.579,-87.097 -421.22,-86.632 -421.889,-86.59C-422.263,-86.567 -422.68,-87.239 -423.079,-87.599C-422.507,-88.072 -421.994,-88.713 -421.336,-88.94C-421.038,-89.045 -420.457,-88.328 -419.474,-87.582M873.272,-360.255C873.04,-359.685 872.892,-359.314 872.742,-358.946C872.203,-359.172 871.622,-359.342 871.163,-359.674C871.067,-359.745 871.461,-360.777 871.549,-360.765C872.13,-360.689 872.691,-360.448 873.272,-360.255M215.476,-767.452C214.387,-766.525 213.616,-765.524 213.282,-765.652C212.61,-765.913 212.049,-766.732 211.717,-767.446C211.618,-767.662 212.454,-768.694 212.8,-768.66C213.52,-768.594 214.197,-768.07 215.476,-767.452M-181.003,-749.531C-181.417,-751.742 -181.604,-752.749 -181.791,-753.755C-180.904,-753.843 -180.02,-753.934 -178.515,-754.081C-179.371,-752.519 -179.864,-751.618 -181.003,-749.531M-11.767,-1186.19C-12.458,-1185.66 -12.932,-1185.02 -13.38,-1185.04C-13.833,-1185.06 -14.258,-1185.73 -14.695,-1186.12C-14.323,-1186.52 -13.944,-1187.25 -13.584,-1187.24C-13.059,-1187.23 -12.552,-1186.68 -11.767,-1186.19M144.839,-762.262C144.573,-762.704 144.303,-763.152 144.037,-763.594C144.876,-764.099 145.689,-764.657 146.582,-765.037C146.693,-765.082 147.212,-764.152 147.54,-763.676C146.642,-763.206 145.74,-762.732 144.839,-762.262M-421.875,-126.266C-421.5,-126.388 -421.126,-126.507 -420.752,-126.626C-420.497,-125.413 -420.245,-124.2 -419.992,-122.987C-420.205,-122.956 -420.418,-122.927 -420.63,-122.899C-421.047,-124.021 -421.461,-125.144 -421.875,-126.266M-48.155,-1200.91C-48.464,-1200.4 -48.773,-1199.87 -49.082,-1199.36C-50.338,-1200.15 -51.593,-1200.95 -52.849,-1201.75C-52.566,-1202.2 -52.285,-1202.65 -52.007,-1203.11C-50.723,-1202.38 -49.436,-1201.65 -48.155,-1200.91M806.326,-919.188C804.923,-918.677 804.141,-918.113 803.752,-918.312C802.885,-918.754 802.188,-919.553 801.53,-920.305C801.473,-920.37 802.414,-921.583 802.576,-921.518C803.458,-921.141 804.243,-920.534 806.326,-919.188M-97.379,-725.817C-98.495,-726.84 -99.391,-727.282 -99.482,-727.852C-99.578,-728.467 -98.926,-729.204 -98.6,-729.887C-97.926,-729.434 -97.021,-729.113 -96.661,-728.481C-96.423,-728.065 -96.97,-727.2 -97.379,-725.817M488.075,-952.101C489.214,-951.174 489.841,-950.664 490.467,-950.153C489.932,-949.612 489.458,-948.753 488.84,-948.634C488.364,-948.543 487.417,-949.275 487.219,-949.83C487.049,-950.306 487.644,-951.058 488.075,-952.101M811.871,-194.465C810.734,-193.751 809.955,-193.124 809.07,-192.798C808.846,-192.713 808.271,-193.572 807.857,-193.995C808.583,-194.647 809.254,-195.389 810.079,-195.88C810.261,-195.987 810.975,-195.191 811.871,-194.465M-256.456,-41.99C-255.832,-40.805 -255.115,-40.056 -255.251,-39.535C-255.41,-38.931 -256.32,-38.526 -256.907,-38.032C-257.409,-38.653 -258.236,-39.243 -258.307,-39.909C-258.358,-40.394 -257.403,-40.98 -256.456,-41.99M801.819,-203.825C801.315,-203.885 800.807,-203.947 800.303,-204.009C800.555,-204.982 800.804,-205.957 801.057,-206.929C801.312,-206.861 801.564,-206.79 801.819,-206.722L801.819,-203.825ZM-12.305,-606.101C-12.266,-606.671 -12.223,-607.241 -12.18,-607.81C-10.99,-607.745 -9.797,-607.72 -8.623,-607.538C-8.549,-607.527 -8.649,-606.362 -8.668,-605.73C-9.879,-605.854 -11.095,-605.976 -12.305,-606.101M973.287,-298.953C973.103,-298.627 972.918,-298.298 972.731,-297.972C971.943,-298.341 971.121,-298.655 970.407,-299.134C970.313,-299.2 970.77,-300.084 970.968,-300.589C971.742,-300.044 972.513,-299.497 973.287,-298.953M91.335,-1095.88C93.81,-1093.55 93.81,-1093.55 92.962,-1090.88C92.31,-1092.89 91.823,-1094.39 91.335,-1095.88M178.583,-744.596C176.601,-743.519 175.589,-742.969 174.166,-742.195C174.937,-745.526 174.937,-745.526 178.583,-744.596M428.55,-1004.33C428.21,-1003.74 427.867,-1003.15 427.527,-1002.56C426.546,-1003.24 425.56,-1003.92 424.576,-1004.6C424.962,-1005.09 425.551,-1006.05 425.701,-1005.99C426.702,-1005.55 427.612,-1004.91 428.55,-1004.33M-196.512,76.059C-196.336,75.671 -196.16,75.283 -195.985,74.897C-194.99,75.359 -193.995,75.824 -193,76.289C-193.241,76.799 -193.482,77.309 -193.725,77.822C-194.652,77.236 -195.582,76.646 -196.512,76.059M530.223,-1073.72C528.698,-1075.54 527.848,-1076.11 527.749,-1076.78C527.632,-1077.58 528.168,-1078.47 528.423,-1079.33C528.814,-1079.27 529.203,-1079.23 529.594,-1079.18C529.744,-1077.87 529.897,-1076.55 530.223,-1073.72M1021.57,-310.195C1020.44,-309.509 1019.75,-308.772 1019.1,-308.801C1018.65,-308.823 1017.83,-310 1017.94,-310.499C1018.07,-311.108 1018.97,-311.913 1019.59,-311.953C1020.1,-311.984 1020.67,-311.037 1021.57,-310.195M254.265,31.938C254.208,32.301 254.149,32.666 254.089,33.032C253.545,33.083 253.001,33.151 252.456,33.182C250.974,33.259 249.661,32.905 250.747,31.181C250.965,30.832 253.046,31.654 254.265,31.938M-191.798,-502.18C-191.22,-503.549 -190.638,-504.916 -189.711,-507.107C-187.441,-503.617 -188.643,-502.5 -191.798,-502.18M-58.329,-1268.43C-58.127,-1267.95 -57.923,-1267.46 -57.722,-1266.97C-59.128,-1266.41 -60.534,-1265.86 -61.943,-1265.3C-62.121,-1265.72 -62.303,-1266.15 -62.481,-1266.57C-61.098,-1267.19 -59.712,-1267.81 -58.329,-1268.43M-483.738,-135.082C-484.517,-136.908 -485.025,-138.098 -485.821,-139.969C-483.919,-139.706 -482.794,-139.55 -481.079,-139.311C-482.063,-137.747 -482.706,-136.723 -483.738,-135.082M439.826,-1015.3C440.135,-1013.44 440.351,-1012.13 440.666,-1010.24C436.561,-1011.49 437.097,-1012.92 439.826,-1015.3M-104.672,-833.505C-104.185,-833.312 -103.697,-833.117 -103.209,-832.924C-103.635,-831.756 -104.034,-830.574 -104.556,-829.449C-104.587,-829.386 -105.647,-829.8 -106.228,-829.993C-105.71,-831.163 -105.191,-832.334 -104.672,-833.505M148.224,-975.345C148.445,-975.736 148.663,-976.122 148.884,-976.51L151.877,-975.838C151.483,-974.761 151.092,-973.687 150.471,-971.983C149.409,-973.576 148.816,-974.46 148.224,-975.345M-236.659,-847.803C-236.129,-848.069 -235.599,-848.33 -235.071,-848.594C-234.672,-847.514 -234.272,-846.437 -233.872,-845.359C-234.303,-845.181 -234.731,-845.008 -235.159,-844.829L-236.659,-847.803ZM412.087,-1125.67C411.103,-1127.78 410.366,-1128.62 410.539,-1129.17C410.794,-1130.01 411.687,-1130.65 412.311,-1131.37C412.605,-1131.22 412.9,-1131.07 413.192,-1130.91C412.929,-1129.66 412.665,-1128.4 412.087,-1125.67M34.923,-1130.07C31.507,-1132.5 31.507,-1132.5 35.164,-1134.21C35.082,-1132.79 35.011,-1131.56 34.923,-1130.07M-16.381,-948.543C-16.101,-948.356 -15.823,-948.166 -15.545,-947.982C-16.285,-946.885 -17.022,-945.788 -17.762,-944.694C-18.394,-945.351 -19.029,-946.009 -19.981,-947.001C-18.369,-947.69 -17.374,-948.118 -16.381,-948.543M340.271,-942.925C339.789,-940.323 339.571,-939.141 339.194,-937.108C337.827,-938.574 337.011,-939.453 335.923,-940.62C337.209,-941.301 338.136,-941.791 340.271,-942.925M788.338,-929.659C788.652,-930.053 788.964,-930.447 789.276,-930.841C790.393,-929.857 791.51,-928.877 792.624,-927.896C792.374,-927.581 792.125,-927.269 791.875,-926.955C790.696,-927.856 789.517,-928.757 788.338,-929.659M652.167,-181.171C651.827,-180.746 651.489,-180.317 651.152,-179.892C650.225,-180.618 649.298,-181.344 648.366,-182.066C648.635,-182.401 648.901,-182.735 649.168,-183.07C650.166,-182.438 651.169,-181.803 652.167,-181.171M858.342,-247.224C861.423,-244.723 860.236,-243.4 857.951,-242.158C858.059,-243.556 858.166,-244.953 858.342,-247.224M926.694,-274.139L926.022,-271.928C924.942,-272.378 923.811,-272.747 922.825,-273.348C922.626,-273.467 922.963,-274.467 923.051,-275.06C924.267,-274.754 925.478,-274.448 926.694,-274.139M786.481,-926.311C785.466,-925.614 784.701,-924.704 784.174,-924.826C783.502,-924.979 783.026,-925.971 782.467,-926.606C783.201,-927.249 783.935,-927.899 784.67,-928.545C785.174,-927.924 785.682,-927.3 786.481,-926.311M13.782,-613.386C12.728,-612.536 12.098,-612.026 11.469,-611.515L9.422,-614.398C10.1,-614.803 10.913,-615.662 11.418,-615.509C12.203,-615.271 12.781,-614.344 13.782,-613.386M489.654,-1100.98L488.599,-1101C488.517,-1102.18 488.435,-1103.36 488.353,-1104.54C488.934,-1104.53 489.518,-1104.52 490.099,-1104.51C489.951,-1103.34 489.804,-1102.16 489.654,-1100.98M-427.439,-161.337C-427.394,-160.917 -427.351,-160.498 -427.309,-160.078C-428.417,-159.766 -429.525,-159.454 -430.634,-159.146C-430.92,-160.183 -431.206,-161.218 -431.595,-162.641C-429.749,-162.062 -428.596,-161.7 -427.439,-161.337M74.494,-1047.06C74.222,-1047.63 73.95,-1048.19 73.678,-1048.76C74.786,-1049.27 75.881,-1049.81 77.023,-1050.2C77.111,-1050.23 77.564,-1049.2 77.848,-1048.67C76.728,-1048.13 75.611,-1047.59 74.494,-1047.06M-114.386,-1198.69C-114.137,-1197.98 -113.89,-1197.28 -113.641,-1196.58C-114.962,-1196.22 -116.283,-1195.87 -117.604,-1195.52C-117.763,-1196.13 -118.154,-1197.22 -118.043,-1197.28C-116.87,-1197.85 -115.617,-1198.24 -114.386,-1198.69M-98.529,-1215.6C-98.498,-1215.99 -98.464,-1216.38 -98.433,-1216.77C-96.982,-1216.69 -95.533,-1216.61 -94.082,-1216.53C-94.124,-1216.08 -94.164,-1215.63 -94.201,-1215.18C-95.644,-1215.32 -97.087,-1215.46 -98.529,-1215.6M785.234,-922.266C785.081,-921.484 784.928,-920.701 784.777,-919.919C783.592,-920.214 782.396,-920.477 781.245,-920.871C781.174,-920.9 781.447,-922.473 781.586,-922.479C782.796,-922.516 784.018,-922.363 785.234,-922.266M-63.794,32.298C-65.52,33.868 -63.774,38.149 -68.258,38.489C-68.111,35.294 -66.566,33.477 -63.794,32.298M611.473,-891.706C612.128,-889.968 612.544,-888.86 613.128,-887.312C611.439,-887.17 610.265,-887.068 608.369,-886.91C609.557,-888.741 610.33,-889.937 611.473,-891.706M-219.971,-518.998C-221.233,-518 -222.046,-516.974 -223.053,-516.728C-223.534,-516.611 -225.065,-518.224 -224.921,-518.613C-224.538,-519.656 -223.625,-520.656 -222.659,-521.229C-222.381,-521.393 -221.21,-520.053 -219.971,-518.998M79.489,-1102.73C76.978,-1105.54 78.86,-1106.77 81.085,-1107.95C80.555,-1106.21 80.022,-1104.47 79.489,-1102.73M686.942,-20.134C686.415,-17.107 686.143,-15.528 685.74,-13.218C682.302,-16.214 683.901,-17.555 686.942,-20.134M-83.84,-1192.02C-84.827,-1197.25 -84.827,-1197.25 -80.186,-1196.01C-81.289,-1194.81 -82.259,-1193.75 -83.84,-1192.02M740.653,-81.249C742.13,-82.539 743.519,-83.327 744.877,-81.349C745.098,-81.026 744.817,-79.971 744.44,-79.688C742.499,-78.225 741.416,-79.191 740.653,-81.249M-68.839,-1213.32C-68.967,-1215.59 -69.032,-1216.79 -69.114,-1218.33C-66.206,-1216.05 -66.206,-1216.05 -68.839,-1213.32M769.436,-143.949C767.721,-146.214 766.593,-147.166 766.315,-148.329C766.196,-148.816 767.886,-149.734 769.436,-151.03L769.436,-143.949ZM726.16,-925.858C725.542,-920.616 725.542,-920.616 721.65,-922.89C723.186,-923.902 724.527,-924.783 726.16,-925.858M-246.084,-10.718L-252.207,-10.718C-251.243,-12.433 -250.577,-13.626 -249.636,-15.304C-248.386,-13.689 -247.516,-12.569 -246.084,-10.718M-70.432,-565.345C-69.216,-567.731 -68.556,-569.035 -67.55,-571.005C-66.427,-569.137 -65.699,-567.93 -64.667,-566.22C-66.668,-565.917 -68.068,-565.702 -70.432,-565.345M893.494,-274.056C894.393,-275.431 895.297,-276.806 896.822,-279.133C898.07,-275.111 898.257,-273.078 893.494,-274.056M-120.506,-1251.92C-124.637,-1246.84 -124.637,-1246.84 -126.315,-1251.06C-124.342,-1251.35 -122.423,-1251.64 -120.506,-1251.92M-77.275,-1085.34C-76.309,-1087.82 -75.694,-1089.39 -75.076,-1090.98C-74.214,-1090.46 -72.882,-1090.14 -72.573,-1089.39C-71.427,-1086.63 -73.375,-1085.96 -77.275,-1085.34M144.49,-1065.12C142.285,-1064.47 140.644,-1064 138.597,-1063.41C139.881,-1068.11 139.881,-1068.11 144.49,-1065.12M94.119,-1081.78C94.683,-1081.74 95.247,-1081.69 95.808,-1081.64C96.837,-1079.86 98.308,-1078.02 94.938,-1076.62C94.64,-1076.49 94.15,-1076.84 93.251,-1077.12C93.535,-1078.64 93.827,-1080.21 94.119,-1081.78M150.885,-709.214C148.55,-707.618 147.115,-706.635 144.473,-704.826C145.239,-708.171 145.65,-709.965 146.157,-712.171C147.586,-711.278 148.635,-710.62 150.885,-709.214M-331.855,-40.547C-334.397,-41.973 -335.384,-43.316 -332.969,-45.057C-332.269,-45.561 -331.109,-45.428 -329.199,-45.748C-330.355,-43.483 -331.061,-42.106 -331.855,-40.547M-56.509,-1181.05C-54.337,-1179.95 -51.469,-1179.97 -49.635,-1176.57C-54.091,-1175.81 -55.312,-1178.41 -56.509,-1181.05M42.111,-1000C41.941,-1000.48 41.771,-1000.96 41.598,-1001.45C42.228,-1002.03 42.843,-1002.62 43.489,-1003.18C44.076,-1003.69 44.694,-1004.16 45.499,-1004.82C46.219,-1003.71 46.678,-1003.01 47.582,-1001.62C45.428,-1000.98 43.77,-1000.49 42.111,-1000M317.16,-1027.71C315.06,-1025.35 313.379,-1024.91 311.53,-1026.93C312.826,-1030.8 314.532,-1030.73 317.16,-1027.71M728.87,-53.323C731.083,-48.94 731.083,-48.94 727.209,-47.599C726.168,-49.731 725.786,-51.653 728.87,-53.323M-292.618,-93.112C-294.605,-91.59 -295.571,-90.383 -296.751,-90.119C-297.428,-89.969 -298.449,-91.346 -299.313,-92.032C-298.553,-92.914 -297.93,-94.269 -296.991,-94.541C-296.104,-94.796 -294.888,-93.917 -292.618,-93.112M-394.092,-99.326C-395.13,-106.189 -395.096,-106.226 -390.07,-105.205C-391.207,-103.544 -392.227,-102.053 -394.092,-99.326M845.405,-264.736C846.743,-267.052 847.545,-268.444 848.463,-270.034C851.165,-266.278 851.165,-266.278 845.405,-264.736M-72.794,-1240.24C-72.258,-1239.99 -71.722,-1239.75 -71.186,-1239.5C-71.51,-1237.69 -71.83,-1235.88 -72.391,-1232.73C-74.339,-1235.27 -75.319,-1236.55 -76.433,-1238C-74.92,-1238.93 -73.857,-1239.58 -72.794,-1240.24M-81.252,-1277.24C-82.117,-1275.61 -83.117,-1273.94 -85.513,-1274.35C-86.017,-1274.44 -86.811,-1275.86 -86.635,-1276.38C-85.827,-1278.82 -83.954,-1278.95 -81.85,-1278.09C-81.692,-1278.02 -81.612,-1277.76 -81.252,-1277.24M56.511,-1103.21C53.374,-1107.69 53.374,-1107.69 58.161,-1108.72C57.538,-1106.64 57.025,-1104.93 56.511,-1103.21M-83.908,-449.864C-86.292,-450.045 -87.979,-450.17 -89.663,-450.298C-89.549,-451.508 -89.87,-453.419 -89.246,-453.804C-86.845,-455.292 -85.051,-454.405 -83.908,-449.864M764.481,-918.201C763.852,-921.152 760.72,-922.527 762.775,-926.433C764.634,-924.596 766.049,-923.199 767.602,-921.662C766.454,-920.387 765.76,-919.619 764.481,-918.201M-90.729,-1234.1C-89.045,-1234.38 -87.868,-1234.57 -86.306,-1234.82C-86.165,-1232.13 -85.785,-1229.88 -88.798,-1227.78C-89.527,-1230.16 -90.06,-1231.92 -90.729,-1234.1M-228.668,-841.286C-227.169,-844.135 -225.998,-846.366 -224.561,-849.098C-223.237,-841.439 -223.801,-840.368 -228.668,-841.286M-207.153,-871.688C-205.5,-866.477 -205.971,-865.636 -211.431,-863.742C-209.866,-866.648 -208.712,-868.788 -207.153,-871.688M14.374,-1173.75C12.149,-1175.92 10.919,-1177.12 9.266,-1178.73C11.149,-1179.9 12.455,-1180.71 14.374,-1181.89L14.374,-1173.75ZM-117.292,-1225.51C-115.9,-1225.14 -114.763,-1225.2 -114.358,-1224.67C-113.363,-1223.4 -112.564,-1221.9 -112.017,-1220.38C-111.892,-1220.03 -113.562,-1218.62 -113.638,-1218.68C-114.928,-1219.69 -116.303,-1220.71 -117.207,-1222.04C-117.683,-1222.74 -117.292,-1224.03 -117.292,-1225.51M838.551,-234.493C837.471,-232.415 836.989,-230.893 836.008,-229.822C835.449,-229.207 833.749,-228.835 833.159,-229.232C832.229,-229.867 831.458,-231.194 831.305,-232.319C831.231,-232.852 832.649,-233.906 833.556,-234.179C834.775,-234.544 836.155,-234.38 838.551,-234.493M188.419,202.348C185.428,205.69 183.186,204.389 180.831,202.195C184.314,197.977 184.314,197.977 188.419,202.348M-477.011,-177.843C-474.324,-179.685 -472.198,-181.145 -470.069,-182.605C-469.664,-182.2 -469.261,-181.797 -468.859,-181.392C-470.16,-179.317 -471.461,-177.239 -472.91,-174.929C-474.412,-175.997 -475.441,-176.729 -477.011,-177.843M250.22,160.325C252.686,161.172 254.563,161.589 256.173,162.485C256.83,162.848 257.409,164.469 257.119,165.118C256.805,165.824 255.385,166.53 254.551,166.422C251.918,166.085 250.041,164.733 250.22,160.325M-108.646,-1239.64C-105.925,-1236.93 -104.287,-1235.3 -102.288,-1233.31C-109.02,-1231.12 -109.253,-1231.33 -108.646,-1239.64M811.023,-293.992C810.374,-296.912 810.224,-299.316 813.529,-299.962C814.187,-300.09 815.78,-298.556 815.919,-297.635C816.491,-293.828 813.895,-293.967 811.023,-293.992M251.388,168.528C250.605,170.152 249.948,171.516 248.774,173.948C247.479,170.436 243.638,169.971 244.199,166.005C246.677,166.876 248.709,167.587 251.388,168.528M711.303,-82.383C708.647,-81.547 706.881,-80.836 705.05,-80.51C704.514,-80.416 703.429,-81.317 703.244,-81.955C703.052,-82.593 703.429,-83.803 703.97,-84.186C706.192,-85.768 708.429,-85.944 711.303,-82.383M-53.654,-1213.14C-53.093,-1211.1 -52.534,-1209.06 -51.968,-1207C-53.955,-1205.96 -55.593,-1203.92 -57.3,-1206.62C-59.428,-1209.97 -55.386,-1210.89 -53.654,-1213.14M730.882,-952.186C731.849,-951.523 733.175,-950.604 734.417,-949.748C731.979,-943.988 731.979,-943.988 728.26,-944.708C729.077,-947.038 729.907,-949.408 730.882,-952.186M40.822,-1126.63C48.387,-1129.65 48.909,-1129.41 47.497,-1124.38C45.255,-1125.14 43.038,-1125.88 40.822,-1126.63M-424.548,-130.504C-426.2,-127.508 -427.876,-125.368 -431.263,-125.742C-431.714,-125.79 -432.536,-127.375 -432.32,-127.772C-430.852,-130.462 -428.89,-132.437 -424.548,-130.504M-122.213,-491.664C-119.191,-488.534 -120.263,-486.23 -122.666,-483.962C-127.386,-487.431 -127.386,-487.431 -122.213,-491.664M-68.559,-1221.66C-70.838,-1220.12 -73.12,-1218.58 -75.702,-1216.83C-76.085,-1223.63 -75.796,-1223.87 -68.559,-1221.66M-49.955,-1191.78C-52.041,-1190.15 -52.509,-1189.57 -53.099,-1189.39C-53.649,-1189.23 -54.544,-1189.24 -54.918,-1189.59C-57.736,-1192.15 -57.832,-1195.45 -57.705,-1198.9C-51.684,-1199.05 -56.854,-1191.25 -49.955,-1191.78M761.842,-182.974C760.263,-183.311 759.141,-183.217 758.594,-183.736C757.242,-185.017 756.102,-186.548 755.048,-188.093C754.96,-188.22 756.094,-189.638 756.777,-189.751C759.413,-190.193 761.026,-188.7 761.803,-186.33C762.058,-185.559 761.842,-184.632 761.842,-182.974M-71.195,-1243.69C-67.714,-1247.43 -67.714,-1247.43 -61.648,-1241.79C-65.058,-1241.3 -68.326,-1239.51 -71.195,-1243.69M1006.83,-321.265C1005.01,-319.226 1003.62,-316.882 1000.75,-318.557C1000.1,-318.94 999.882,-321.097 1000.32,-322.053C1000.86,-323.269 1002.28,-324.094 1003.56,-325.318C1004.82,-323.759 1005.75,-322.608 1006.83,-321.265M-35.277,-1228.55C-38.081,-1229.76 -42.194,-1229.87 -41.604,-1233.91C-41.091,-1237.44 -37.48,-1235.96 -35.277,-1236.07L-35.277,-1228.55ZM8.393,16.523C2.682,17.717 -0.108,13.572 -4.198,12.331C-0.425,7.758 2.344,14.216 5.766,12.776C6.029,12.662 7.296,14.927 8.393,16.523M274.567,71.977C277.438,69.454 279.575,67.578 281.713,65.701L283.329,66.359C283.343,67.85 283.952,69.766 283.249,70.744C281.568,73.089 279.201,74.721 274.567,71.977M226.344,214.741C223.274,216.238 221.338,217.466 219.226,218.078C218.254,218.358 216.445,217.766 215.884,216.961C215.124,215.875 214.9,214.172 215.062,212.805C215.13,212.255 216.986,211.346 217.763,211.561C220.484,212.318 223.087,213.494 226.344,214.741M-31.266,-11.716C-27.675,-9.856 -27.731,-7.248 -28.196,-5.003C-28.403,-4.014 -30.455,-2.673 -31.496,-2.809C-32.44,-2.937 -33.917,-4.938 -33.795,-5.953C-33.582,-7.753 -32.338,-9.431 -31.266,-11.716M-72.422,-1021.97C-73.763,-1020.08 -74.418,-1018.11 -75.645,-1017.64C-78.471,-1016.58 -81.317,-1016.97 -83.027,-1020C-80.592,-1024.05 -80.592,-1024.05 -72.422,-1021.97M916.506,-264.852C915.333,-268.917 914.443,-272.001 913.55,-275.083C914.051,-275.38 914.55,-275.681 915.052,-275.978C917.357,-273.986 919.664,-271.996 922.382,-269.649C920.169,-267.843 918.672,-266.621 916.506,-264.852M-88.483,-1205.22C-86.621,-1205.45 -85.263,-1205.53 -83.945,-1205.81C-80.538,-1206.51 -78.965,-1204.93 -80.121,-1201.65C-80.583,-1200.34 -81.643,-1199.25 -82.879,-1197.37C-84.688,-1200.7 -89.49,-1200.71 -88.483,-1205.22M-117.102,-1227.74C-119.279,-1226.96 -121.788,-1226.62 -123.562,-1225.3C-126.859,-1222.84 -128.526,-1224.86 -131.085,-1226.82C-126.405,-1231.01 -121.725,-1228.34 -117.102,-1227.74M838.905,-513.91C835.583,-511.62 833.567,-509.828 831.229,-508.74C829.14,-507.767 826.441,-509.998 827.405,-511.688C828.428,-513.485 830.373,-514.757 831.705,-516.056C833.967,-515.381 835.676,-514.874 838.905,-513.91M329.477,-1278.23C330.542,-1275.64 331.509,-1273.55 332.263,-1271.39C333.258,-1268.54 332.218,-1266.57 328.552,-1264.44C330.089,-1269.81 329.049,-1273.35 324.629,-1275.61C326.73,-1276.74 328.246,-1277.56 329.477,-1278.23M732.149,-129.2C726.409,-131.108 725.117,-132.267 723.078,-137.367C724.768,-139.232 726.454,-139.969 728.87,-138.214C732.09,-135.879 733.558,-133.121 732.149,-129.2M-76.303,-1169.74C-78.514,-1168.68 -80.595,-1167.16 -82.879,-1166.73C-85.686,-1166.2 -88.106,-1167.33 -88.713,-1170.97C-86.077,-1172.83 -82.599,-1171.05 -80.087,-1173.89C-78.432,-1175.76 -76.351,-1173.65 -76.303,-1169.74M-409.924,-85.022C-406.018,-82.074 -401.913,-79.682 -402.001,-73.919C-409.133,-74.744 -411.758,-78.344 -409.924,-85.022M203.803,196.053C198.3,196.583 198.391,192.563 197.872,189.49C197.317,186.211 199.783,185.145 202.751,184.014C203.193,188.289 206.858,191.591 203.803,196.053M260.677,-1345.72C261.235,-1343.95 262.502,-1342.07 262.001,-1341.12C260.563,-1338.42 260.243,-1334.13 255.146,-1334.76C254.299,-1336.84 253.417,-1339 252.547,-1341.14C255.197,-1342.63 257.502,-1343.93 260.677,-1345.72M846.116,-222.86C845.209,-222.766 843.219,-221.947 841.929,-222.574C839.684,-223.662 838.908,-226.154 840.294,-228.385C841.825,-230.842 838.806,-236.001 844.651,-235.84C844.994,-235.831 845.325,-235.315 845.34,-235.304C845.6,-231.157 845.841,-227.288 846.116,-222.86M253.168,154.035C249.789,148.609 252.283,144.133 254.375,139.445C257.661,141.803 257.448,141.837 257.876,144.553C258.497,148.501 257.703,151.642 253.168,154.035M-78.154,-1214.48C-71.906,-1213.17 -72.343,-1204.73 -65.285,-1205.21C-66.56,-1203.46 -67.303,-1202.44 -68.014,-1201.46C-75.645,-1204.43 -78.934,-1208.49 -78.154,-1214.48M79.512,-1080.5C77,-1081.14 73.525,-1081.14 74.585,-1084.65C75.83,-1088.79 78.052,-1092.62 80.379,-1097.76C81.658,-1095.57 83.177,-1093.75 82.874,-1093.37C79.852,-1089.56 81.553,-1084.73 79.512,-1080.5M276.758,132.987C281.299,130.895 284.55,131.091 287.589,132.922C288.595,133.526 289.97,135.068 289.769,135.788C289.4,137.106 288.065,138.994 286.982,139.096C284.644,139.32 281.962,139.059 279.896,138.039C278.512,137.356 277.948,135.02 276.758,132.987M811.981,-203.621C811.684,-208.964 811.423,-213.63 811.131,-218.846C815.703,-217.188 818.172,-215.561 818.147,-210.94C818.124,-207.043 816.673,-205.123 811.981,-203.621M-167.352,-486.334C-170.357,-492.267 -170.357,-492.267 -161.634,-494.121C-160.883,-495.901 -160.384,-497.849 -159.321,-499.416C-157.983,-501.395 -156.152,-502.716 -153.451,-499.334C-158.219,-495.403 -160.027,-488.509 -167.352,-486.334M777.736,-152.844C775.026,-159.789 777.603,-164.971 784.026,-166.201C786.679,-166.708 788.451,-165.067 788.031,-162.493C787.394,-158.601 782.646,-154.003 777.736,-152.844M252.947,52.92C256.757,51.231 260.158,49.723 263.9,48.061C263.299,51.42 263.299,51.42 258.939,54.488C262.95,60.925 262.95,60.925 256.419,66.552C252.573,62.85 253.114,58.071 252.947,52.92M583.665,-667.539C584.118,-662.689 581.978,-659.724 579.886,-656.853C573.531,-648.108 570.226,-638.586 571.978,-627.67C572.085,-626.998 572.153,-626.318 572.187,-625.64C572.797,-613.678 576.771,-602.688 582.469,-592.364C584.83,-588.093 587.769,-583.75 591.477,-580.694C598.584,-574.846 606.243,-569.602 614.018,-564.647C622.738,-559.089 631.811,-554.077 641.852,-551.134C643.745,-550.579 646.019,-550.114 645.216,-546.86C644.528,-546.633 643.654,-546.021 642.915,-546.151C633.365,-547.849 623.546,-548.399 614.568,-552.62C612.527,-553.581 610.427,-554.406 608.386,-555.364C599.811,-559.389 590.998,-563 582.783,-567.658C578.186,-570.263 573.834,-574.061 570.677,-578.296C564.242,-586.933 559.276,-596.086 557.028,-607.269C554.939,-617.664 556.067,-626.822 558.876,-636.483C562.575,-649.191 571.269,-658.193 580.456,-666.907C580.975,-667.397 582.097,-667.256 583.665,-667.539M972.782,-373.402C971.989,-373.779 971.152,-373.895 970.86,-374.357C964.494,-384.406 959.374,-394.804 960.287,-407.279C960.678,-412.637 960.44,-418.079 960.038,-423.448C959.219,-434.339 965.557,-440.084 976.054,-439.211C979.815,-438.897 983.492,-437.539 987.211,-436.669C999.034,-433.902 1010.86,-431.164 1022.67,-428.349C1024.42,-427.932 1026.19,-427.346 1027.76,-426.498C1036.49,-421.812 1046.1,-420.012 1055.66,-418.36C1069.9,-415.896 1075.7,-418.969 1082.86,-431.572C1083.08,-431.966 1083.13,-432.502 1083.44,-432.791C1084.49,-433.78 1085.61,-434.69 1086.71,-435.628C1087.45,-434.163 1088.92,-432.626 1088.79,-431.237C1088.29,-425.843 1087.7,-420.386 1086.3,-415.176C1085.54,-412.353 1083.66,-408.895 1081.27,-407.614C1073.56,-403.469 1065.25,-401.108 1056.73,-405.686C1051.63,-408.43 1046.24,-409.686 1040.53,-410.117C1037.85,-410.318 1034.71,-410.318 1032.66,-411.701C1022.89,-418.269 1011.63,-419.811 1000.54,-421.838C994.524,-422.938 988.109,-423.054 982.789,-419.53C977.145,-415.794 973.587,-410.17 972.697,-403.328C971.796,-396.431 970.911,-389.56 973.604,-382.657C974.665,-379.945 976.45,-376.243 972.782,-373.402M635.462,-316.791C634.346,-313.96 632.985,-311.34 632.288,-308.56C630.703,-302.227 629.045,-301.207 622.905,-303.965C610.58,-309.504 597.467,-311.38 584.198,-312.483C582.256,-312.642 580.204,-312.103 578.273,-311.604C573.71,-310.431 569.163,-309.169 564.667,-307.755C563.488,-307.383 562.317,-306.507 561.495,-305.558C551.608,-294.146 538.186,-288.102 525.087,-281.616C520.24,-279.215 515.183,-277.231 510.171,-275.19C502.773,-272.174 495.074,-269.521 487.083,-270.862C475.038,-272.886 463.11,-275.652 451.219,-278.459C448.271,-279.153 445.53,-281.038 442.913,-282.716C440.478,-284.284 438.471,-286.517 436.037,-288.082C426.362,-294.313 416.605,-300.356 408.419,-308.648C401.771,-315.383 394.424,-321.435 387.839,-328.226C382.388,-333.853 376.911,-339.676 372.677,-346.209C366.443,-355.822 361.182,-366.08 355.748,-376.191C352.553,-382.144 351.641,-388.525 354.229,-395.014C356.78,-401.411 355.567,-404.487 349.228,-407.999C345.929,-409.827 342.899,-412.138 339.63,-414.031C337.17,-415.46 334.933,-416.942 331.52,-416.563C328.734,-416.251 324.626,-417.18 322.994,-419.139C317.667,-425.517 312.63,-432.343 311.043,-440.844C310.059,-446.125 313.923,-449.524 319.181,-448.135C321.129,-447.622 322.98,-446.7 324.819,-445.847C332.158,-442.44 339.469,-438.976 346.808,-435.566C348.854,-434.614 351.275,-434.171 352.967,-432.808C359.833,-427.269 367.571,-426.864 375.228,-429.684C391.184,-435.566 407.835,-437.097 424.494,-437.528C432.87,-437.746 441.275,-434.54 449.748,-433.746C466.812,-432.15 482.233,-424.749 498.577,-420.664C500.978,-420.063 503.371,-419.238 505.604,-418.173C517.297,-412.6 528.035,-405.635 537.236,-396.397C542.472,-391.147 548.011,-386.203 553.235,-380.942C563.085,-371.024 573.61,-361.667 576.856,-346.955C577.602,-343.579 580.598,-340.279 583.356,-337.839C590.876,-331.177 599.151,-325.908 610.016,-327.679C611.334,-327.892 612.746,-327.461 614.086,-327.6C623.511,-328.561 629.847,-323.583 635.462,-316.791M-9.802,-1191.28C-5.014,-1192.67 -9.91,-1196.3 -8.328,-1198.46C-0.791,-1195.27 -0.791,-1195.27 -1.777,-1190.48C-4.487,-1189.18 -6.528,-1188.2 -8.96,-1187.03C-9.258,-1188.88 -9.462,-1190.16 -9.669,-1191.44C-10.976,-1191.56 -12.283,-1191.68 -13.589,-1191.8C-13.374,-1192.36 -13.079,-1193.41 -12.951,-1193.39C-11.886,-1193.23 -10.834,-1192.91 -9.828,-1192.51C-9.68,-1192.46 -9.805,-1191.71 -9.802,-1191.28M809.359,-183.847C813.036,-180.454 813.036,-180.454 811.576,-173.588C813.328,-174.249 814.921,-174.368 815.72,-175.226C821.571,-181.517 827.521,-187.744 832.884,-194.437C835.231,-197.365 836.045,-201.319 839.075,-204.16C840.305,-205.319 839.344,-208.814 839.381,-211.414C841.388,-210.586 843.749,-209.608 845.935,-208.706C847.417,-210.532 848.302,-212.732 849.762,-213.231C858.66,-216.255 865.089,-223.191 873.057,-227.659C874.188,-228.294 874.505,-230.168 876.56,-229.484C877.232,-229.26 878.8,-229.74 878.933,-230.202C880.438,-235.287 885.444,-236.086 889.112,-237.997C893.934,-240.511 893.288,-246.773 899.921,-248.825C892.902,-251.039 894.345,-258.418 888.795,-260.028C885.614,-254.971 885.614,-254.971 892.071,-249.732C890.152,-247.89 888.525,-245.812 886.439,-244.42C880.353,-240.361 880.282,-240.469 877.68,-235.925C874.086,-238.397 873.995,-238.805 876.532,-240.715C877.547,-241.483 879.471,-242.561 879.341,-243.096C878.207,-247.734 881.867,-249.369 884.443,-251.442C884.228,-252.164 884.211,-252.658 883.964,-252.969C882.439,-254.923 879.905,-257.193 881.833,-259.427C883.332,-261.164 886.652,-262.536 888.888,-262.205C894.861,-261.32 900.921,-259.889 905.658,-255.716C906.715,-254.786 906.814,-252.768 907.5,-250.855C911.631,-251.464 909.023,-255.858 910.681,-258.228C912.739,-258.931 914.8,-259.637 917.053,-260.41C918.099,-259.061 919.001,-257.902 919.684,-257.023C924.931,-257.803 929.809,-258.528 934.997,-259.296L934.997,-266.822C937.803,-265.575 939.864,-264.66 942.412,-263.529C945.938,-265.827 949.623,-269.889 953.773,-270.437C957.455,-270.924 960.466,-272.035 963.488,-273.6C971.515,-277.756 979.33,-282.331 987.469,-286.248C991.001,-287.946 995.066,-288.655 998.963,-289.431C1007.28,-291.09 1007.3,-290.993 1010.08,-299.262C1015.97,-294.554 1022.7,-295.143 1029.46,-296.303C1038.35,-297.825 1047.19,-300.574 1056.09,-300.705C1062,-300.793 1067.53,-301.657 1073.22,-302.644C1089.39,-305.439 1102.71,-313.458 1114.54,-324.454C1117.11,-326.84 1119.74,-329.437 1122.83,-330.905C1128.67,-333.675 1132.95,-338.323 1138.01,-341.986C1141.47,-344.483 1144.12,-347.272 1145.87,-351.065C1148.52,-356.828 1151.93,-362.367 1153.68,-368.393C1155.99,-376.37 1158.3,-384.727 1158.29,-392.916C1158.27,-409.158 1162.63,-423.7 1171.2,-437.224C1175.32,-443.733 1179.69,-450.099 1183.49,-456.789C1185.45,-460.25 1186.92,-464.182 1187.69,-468.082C1188.78,-473.587 1189.16,-479.254 1189.53,-484.872C1189.68,-487.069 1189.52,-489.583 1188.58,-491.499C1184.81,-499.122 1180.97,-506.75 1173.46,-511.648C1170.85,-513.349 1168.52,-515.475 1166.09,-517.436C1159.64,-522.663 1151.26,-523.463 1144.07,-527.014C1135.42,-531.289 1125.85,-531.221 1116.62,-532.746C1104.49,-534.753 1092.34,-536.666 1080.16,-538.444C1076.62,-538.963 1072.94,-538.577 1069.41,-539.138C1063.85,-540.023 1058.41,-541.834 1052.83,-542.409C1036.88,-544.048 1020.89,-545.255 1004.92,-546.642C997.75,-547.26 990.59,-547.906 983.424,-548.521C982.531,-548.595 981.626,-548.586 980.728,-548.563C973.979,-548.393 967.218,-547.948 960.469,-548.084C949.431,-548.306 938.401,-548.901 927.366,-549.329C926.915,-549.346 926.427,-549.136 926.016,-549.247C910.409,-553.431 894.192,-552.135 878.391,-554.579C873.485,-555.335 868.581,-556.265 863.64,-556.631C859.666,-556.923 855.643,-556.489 851.638,-556.342C850.978,-556.319 850.294,-555.897 849.668,-555.99C844.648,-556.722 839.659,-557.779 834.616,-558.238C831.073,-558.561 827.436,-558.298 823.878,-557.955C812.358,-556.841 800.884,-556.767 789.392,-558.4C786.512,-558.811 783.502,-558.232 780.565,-558.386C775.378,-558.666 770.207,-559.295 765.017,-559.534C758.92,-559.809 752.797,-560.157 746.719,-559.851C741.495,-559.585 736.478,-558.836 731.764,-562.164C730.003,-563.409 727.517,-564.114 725.338,-564.174C719.541,-564.333 714.475,-566.722 709.106,-568.4C696.997,-572.182 687.413,-579.274 678.957,-588.509C665.144,-603.604 655.642,-620.742 652.212,-641.083C651.54,-645.072 650.282,-648.969 649.157,-652.867C646.537,-661.915 646.778,-671.159 647.254,-680.394C647.365,-682.583 648.099,-684.89 649.117,-686.846C651.688,-691.778 654.151,-696.869 657.476,-701.277C660.824,-705.705 665.133,-709.415 669.073,-713.384C676.976,-721.335 687.336,-725.751 696.342,-732.124C698.808,-733.87 702.21,-734.766 705.28,-735.075C709.982,-735.551 713.772,-737.719 717.758,-739.865C723.9,-743.173 730.015,-746.81 736.58,-748.981C743.153,-751.15 750.263,-751.717 757.145,-752.93C758.923,-753.245 760.793,-753.131 762.531,-753.571C772.146,-755.98 781.662,-758.86 791.359,-760.878C799.719,-762.622 808.26,-763.557 816.749,-764.614C828.394,-766.069 840.084,-767.194 851.729,-768.691C855.488,-769.175 859.124,-770.559 862.872,-771.236C878.4,-774.045 894.322,-775.457 909.394,-779.817C927.831,-785.143 946.619,-786.807 965.418,-788.919C979.574,-790.512 993.671,-792.167 1007.72,-794.701C1017.78,-796.516 1027.63,-798.644 1037.36,-801.734C1041.14,-802.933 1045.4,-802.596 1049.44,-802.973C1059.28,-803.897 1068.45,-806.749 1076.64,-812.409C1077.2,-812.792 1077.81,-813.342 1078.42,-813.362C1088.21,-813.722 1089.2,-821.985 1092.1,-828.53C1092.27,-828.93 1092.18,-829.44 1092.31,-829.868C1095.38,-839.684 1092.42,-847.264 1084.63,-853.894C1074.88,-862.191 1064.87,-869.876 1053.22,-875.409C1048.31,-877.742 1044.03,-881.388 1039.25,-884.047C1036.56,-885.543 1033.48,-886.445 1030.48,-887.261C1027.66,-888.029 1024.69,-888.208 1021.83,-888.868C1015.42,-890.357 1012.51,-895.38 1015.1,-901.534C1016.55,-904.978 1019.13,-908.016 1021.52,-910.973C1023.78,-913.759 1026.43,-916.24 1028.97,-918.788C1035.35,-925.18 1042.4,-930.722 1051.16,-933.307C1063.8,-937.037 1074.04,-945.014 1085.04,-951.661C1086.57,-952.586 1087.97,-954.337 1089.54,-954.473C1095.13,-954.964 1098.39,-958.932 1101.81,-962.376C1109.3,-969.931 1116.14,-978.14 1123.78,-985.533C1130.14,-991.67 1136.25,-997.923 1141.77,-1004.83C1152.19,-1017.86 1160.54,-1031.86 1164.24,-1048.32C1164.63,-1050.06 1165.31,-1051.76 1166.08,-1053.37C1169.85,-1061.2 1166.21,-1073.53 1158.68,-1077.67C1157.63,-1078.25 1156.08,-1078.18 1154.81,-1078.01C1147.08,-1077.01 1141.47,-1072.19 1135.62,-1067.58C1128.38,-1061.87 1121.99,-1055.03 1113.66,-1050.78C1111.76,-1049.81 1109.68,-1049.18 1107.22,-1048.21C1105.73,-1053.38 1105.95,-1057.82 1106.17,-1062.24C1106.54,-1069.89 1107.51,-1077.55 1107.25,-1085.17C1106.96,-1093.73 1106.22,-1102.38 1104.55,-1110.76C1101.48,-1126.04 1097.14,-1141 1091.11,-1155.45C1085.53,-1168.83 1080.1,-1182.28 1074.91,-1195.81C1073.01,-1200.76 1070.78,-1205.17 1066.87,-1208.95C1063.17,-1212.53 1060.32,-1216.98 1056.97,-1220.94C1053.8,-1224.69 1050.47,-1228.32 1047.18,-1231.98C1045.82,-1233.49 1044.46,-1235.02 1042.97,-1236.39C1037.03,-1241.87 1031.28,-1247.61 1024.94,-1252.6C1021.88,-1255.02 1017.78,-1257.06 1013.98,-1257.4C1007.85,-1257.96 1001.56,-1259.99 995.284,-1257.13C993.436,-1256.29 990.833,-1257.12 988.577,-1257.16C982.341,-1257.29 977.717,-1253.78 976.445,-1247.66C974.098,-1236.37 974.718,-1225.6 979.047,-1214.47C983.945,-1201.88 986.879,-1188.52 990.408,-1175.41C991.12,-1172.78 992.305,-1169.63 989.09,-1166.65C988.038,-1167.55 986.93,-1168.43 985.895,-1169.4C985.581,-1169.68 985.428,-1170.17 985.263,-1170.59C981.615,-1180 976.133,-1188.14 969.265,-1195.56C963.147,-1202.16 957.427,-1209.17 952.078,-1216.41C945.19,-1225.73 937.185,-1233.99 928.437,-1241.38C923.386,-1245.65 916.894,-1248.23 911.004,-1251.49C910.264,-1251.9 908.799,-1252.23 908.413,-1251.84C904.26,-1247.72 898.693,-1252.09 894.376,-1249.38C894.183,-1249.26 893.999,-1249.13 893.832,-1248.97C891.763,-1247.07 889.191,-1233.83 890.181,-1230.95C891.87,-1226.05 893.214,-1221.02 895.079,-1216.18C896.995,-1211.2 899.362,-1206.39 901.531,-1201.5C905.003,-1193.68 908.464,-1185.86 911.94,-1178.04C912.946,-1175.77 914.057,-1173.54 914.975,-1171.24C915.602,-1169.68 915.976,-1168.02 916.713,-1165.55C914.536,-1165.82 913.167,-1165.65 912.183,-1166.19C910.412,-1167.16 908.807,-1168.47 907.248,-1169.78C897.602,-1177.86 886.235,-1179.87 874.114,-1179.28C868.476,-1179.01 865.959,-1176.05 866.809,-1170.35C868.762,-1157.22 872.595,-1144.73 880.265,-1133.73C888.197,-1122.36 892.026,-1109.35 895.533,-1096.23C898.157,-1086.39 900.337,-1076.44 902.684,-1066.54C902.999,-1065.22 903.484,-1063.79 903.26,-1062.52C901.786,-1054.03 905.145,-1046.01 905.53,-1037.72C905.751,-1032.99 905.672,-1028.24 905.545,-1023.51C905.304,-1014.69 904.782,-1005.88 904.657,-997.058C904.538,-988.6 903.628,-980.6 898.591,-973.239C895.734,-969.063 894.626,-963.734 892.352,-959.108C887.026,-948.254 878.42,-940.927 866.914,-937.44C859.003,-935.039 851.38,-931.518 843.024,-930.671C841.028,-930.467 838.962,-930.05 837.026,-930.359C827.439,-931.887 817.88,-933.599 808.325,-935.308C806.329,-935.666 804.311,-936.111 802.426,-936.836C794.129,-940.028 794.146,-940.073 786.498,-935.7C784.769,-939.94 782.104,-943.347 777.249,-944.172C776.361,-944.323 775.168,-944.909 774.629,-944.541C770.42,-941.644 767.361,-944.422 763.773,-946.117C759.98,-947.906 755.677,-948.577 751.708,-950.037C746.952,-951.792 742.314,-953.864 737.629,-955.803C737.206,-955.973 736.801,-956.333 736.387,-956.333C725.573,-956.333 718.262,-965.14 708.375,-967.462C706.629,-967.87 704.772,-968.088 703.202,-968.868C701.546,-969.693 700.226,-971.158 698.675,-972.213C696.813,-973.477 694.922,-974.721 692.935,-975.77C687.784,-978.483 682.308,-980.677 677.438,-983.815C666.916,-990.595 656.836,-998.059 646.299,-1004.82C639.332,-1009.28 631.865,-1012.98 624.665,-1017.09C619.18,-1020.21 613.653,-1023.3 608.326,-1026.69C601.478,-1031.05 594.814,-1035.71 588.073,-1040.24C579.506,-1046 570.79,-1051.53 563.227,-1058.69C560.489,-1061.29 556.775,-1062.83 553.742,-1065.16C548.011,-1069.56 542.268,-1073.97 536.865,-1078.76C531.028,-1083.92 525.798,-1089.78 519.891,-1094.86C513.748,-1100.15 507.044,-1104.77 500.726,-1109.86C497.069,-1112.79 493.877,-1116.32 490.127,-1119.13C486.774,-1121.63 482.871,-1123.4 479.336,-1125.68C466.963,-1133.66 456.143,-1143.59 445.079,-1153.2C438.948,-1158.52 432.975,-1164.04 427.147,-1169.7C424.596,-1172.17 422.759,-1175.38 420.287,-1177.96C413.597,-1184.94 406.259,-1191.37 400.093,-1198.77C394.226,-1205.83 389.511,-1213.84 384.301,-1221.44C383.153,-1223.12 382.331,-1225.12 380.903,-1226.49C372.118,-1234.88 366.97,-1245.91 359.595,-1255.31C354.742,-1261.49 349.603,-1267.45 344.602,-1273.52C343.613,-1274.72 342.677,-1275.96 341.461,-1277.51C339.993,-1277.43 338.281,-1277.33 336.705,-1277.25C336.336,-1277.89 335.874,-1278.32 335.948,-1278.62C336.603,-1281.21 335.906,-1283.18 334.185,-1285.34C329.108,-1291.73 324.635,-1298.61 319.462,-1304.91C312.08,-1313.91 308.619,-1325.01 302.814,-1334.85C301.357,-1337.32 299.682,-1338.69 297.303,-1340.22C293.437,-1342.72 290.007,-1346.21 287.135,-1349.86C281.1,-1357.54 275.051,-1365.06 265.983,-1369.41C259.492,-1372.53 255.297,-1370.54 251.422,-1364.46C245.574,-1355.27 240.644,-1345.69 236.358,-1335.73C233.484,-1329.05 231.454,-1322.16 230.774,-1314.41C231.979,-1313.6 233.634,-1313.01 234.38,-1311.84C235.071,-1310.75 234.794,-1309.05 234.941,-1307.61C233.742,-1307.84 232.52,-1307.99 231.361,-1308.34C230.825,-1308.5 230.411,-1309.07 229.238,-1310.03C229.13,-1308.18 228.572,-1306.6 229.107,-1306.01C229.952,-1305.08 230.641,-1304.97 229.38,-1303.69C228.2,-1302.5 227.361,-1300.8 226.82,-1299.18C225.043,-1293.87 225.119,-1293.84 229.785,-1290.33C225.493,-1288.94 223.92,-1285.99 224.799,-1281.01C226.534,-1284.53 228.489,-1283.66 230.783,-1282.04C229.714,-1277.84 222.874,-1277.1 224.83,-1271.54C225.751,-1268.93 226.59,-1266.29 227.446,-1263.73C227.446,-1258.76 226.93,-1253.57 227.551,-1248.52C228.98,-1236.88 230.89,-1225.3 232.753,-1213.72C233.357,-1209.96 234.422,-1206.28 235.264,-1202.55C235.661,-1200.79 236.013,-1199.02 236.404,-1197.25C237.869,-1190.66 238.859,-1183.91 240.951,-1177.53C242.952,-1171.43 244.304,-1165.41 244.086,-1158.99C244.037,-1157.49 244.624,-1155.89 245.222,-1154.46C247.226,-1149.68 249.931,-1145.14 249.63,-1139.68C249.619,-1139.47 249.729,-1139.24 249.803,-1139.03C253.599,-1128.42 257.397,-1117.82 261.196,-1107.22C262.865,-1102.56 264.334,-1097.81 266.255,-1093.26C270.289,-1083.69 274.402,-1074.15 278.793,-1064.74C281.327,-1059.31 284.573,-1054.22 287.274,-1048.87C288.272,-1046.9 288.592,-1044.59 289.293,-1042.46C292.311,-1033.31 295.634,-1024.24 298.304,-1014.98C300.455,-1007.51 298.973,-1006.12 292.164,-1002.44C283.844,-997.934 276.693,-1000.81 269.858,-1005.01C259.886,-1011.15 250.226,-1017.81 240.554,-1024.42C237.399,-1026.58 234.626,-1029.3 231.684,-1031.77C224.714,-1037.63 216.564,-1041.53 208.59,-1045.74C199.477,-1050.56 190.247,-1055.22 181.483,-1060.62C173.506,-1065.54 166.17,-1071.48 158.377,-1076.7C156.005,-1078.29 153.048,-1079.01 150.358,-1080.12C149.142,-1080.63 147.643,-1080.85 146.755,-1081.7C141.758,-1086.47 137.313,-1091.93 131.896,-1096.15C125.532,-1101.1 118.803,-1106.08 111.438,-1109.12C101.993,-1113.02 94.071,-1118.49 86.97,-1125.56C85.703,-1126.83 84.251,-1127.91 82.806,-1128.97C79.931,-1131.09 76.904,-1133.01 74.117,-1135.23C69.724,-1138.74 65.54,-1142.52 61.109,-1145.98C60.216,-1146.68 58.623,-1146.48 57.124,-1146.73C56.806,-1148.51 58.714,-1150.5 56.239,-1152.46C46.344,-1160.33 38.679,-1170.57 28.273,-1178.06C21.764,-1182.75 16.645,-1189.43 11.197,-1195.49C9.289,-1197.61 7.614,-1198.54 3.872,-1196.29C6.188,-1201.74 3.957,-1204.43 0.332,-1205.75C-1.834,-1206.54 -2.435,-1208.19 -3.722,-1209.45C-5.043,-1210.74 -6.948,-1210.96 -6.874,-1213.59C-6.849,-1214.61 -8.354,-1215.71 -9.241,-1216.71C-21.611,-1230.65 -34.061,-1244.53 -46.327,-1258.56C-49.442,-1262.13 -51.99,-1266.19 -54.777,-1270.04C-61.121,-1278.81 -67.513,-1287.31 -75.98,-1294.47C-82.174,-1299.71 -88.126,-1305.24 -94.873,-1309.78C-101.877,-1314.49 -109.613,-1315.13 -117.584,-1312.79C-121.275,-1311.71 -122.023,-1309.54 -119.931,-1306.07C-118.885,-1304.33 -117.048,-1303.02 -118.967,-1300.35C-120.651,-1301.02 -122.454,-1301.74 -124.353,-1302.49C-130.204,-1296.46 -131.868,-1289.35 -130.119,-1282.29C-131.655,-1280.34 -133.503,-1279.07 -133.673,-1277.61C-135.224,-1264.35 -136.86,-1251.09 -137.679,-1237.77C-138.144,-1230.25 -137.092,-1222.62 -136.806,-1215.04C-136.689,-1211.94 -136.786,-1208.84 -136.786,-1204.89C-134.473,-1204.18 -131.638,-1203.31 -128.594,-1202.37C-129.056,-1199.02 -129.557,-1196.49 -133.407,-1195.83C-136.837,-1195.24 -138.087,-1192.54 -137.744,-1189.18C-137.537,-1187.16 -137.154,-1185.16 -136.925,-1183.14C-136.619,-1180.47 -136.443,-1177.8 -136.106,-1175.14C-135.765,-1172.47 -135.306,-1169.81 -134.881,-1167.16C-134.453,-1164.5 -133.739,-1161.85 -133.617,-1159.19C-133.322,-1152.69 -133.43,-1152.68 -128.446,-1148.52C-130.569,-1143.73 -130.569,-1143.73 -127.579,-1138.65C-124.883,-1140.57 -122.4,-1142.84 -119.494,-1144.25C-116.649,-1145.62 -113.409,-1146.57 -110.273,-1146.81C-108.638,-1146.94 -106.855,-1145.15 -105.001,-1144.15C-108.556,-1140.58 -115.166,-1139.2 -120.898,-1140.46L-120.898,-1130.33C-122.774,-1129.87 -124.438,-1129.46 -126.635,-1128.92C-125.753,-1124.84 -124.909,-1120.94 -123.953,-1116.52C-117.845,-1124.67 -115.432,-1125.74 -109.525,-1122.41C-112.3,-1119.65 -114.877,-1117.09 -118.052,-1113.95C-117.984,-1112.68 -117.87,-1110.56 -117.743,-1108.14L-112.442,-1108.14C-112.34,-1107.81 -112.238,-1107.47 -112.136,-1107.14C-114.423,-1106.26 -116.708,-1105.38 -119.089,-1104.46C-119.129,-1095.77 -117.02,-1087.89 -112.297,-1080.77C-111.586,-1079.7 -110.82,-1078.09 -109.837,-1077.88C-107.002,-1077.28 -105.775,-1075.65 -104.698,-1073.13C-104.134,-1071.81 -102.081,-1071.13 -100.21,-1069.82C-101.293,-1068.8 -102.283,-1067.85 -103.669,-1066.54C-102.084,-1063.77 -100.355,-1060.75 -98.385,-1057.3C-99.723,-1057.7 -100.607,-1057.97 -101.92,-1058.36C-102.943,-1052.98 -99.184,-1049.51 -96.834,-1045.79C-96.089,-1044.61 -92.999,-1044.9 -90.711,-1044.47C-91.145,-1043.87 -91.658,-1042.62 -92.585,-1041.96C-94.547,-1040.56 -94.272,-1038.88 -93.512,-1037.15C-90.142,-1029.55 -86.581,-1022.02 -83.313,-1014.38C-80.402,-1007.56 -77.961,-1000.54 -74.991,-993.753C-69.562,-981.357 -64.049,-969.009 -60.296,-955.962C-59.99,-954.896 -59.669,-953.6 -58.904,-952.934C-51.548,-946.539 -50.581,-937.142 -48.217,-928.729C-45.031,-917.388 -40.816,-906.718 -35.178,-896.386C-32.105,-890.748 -30.115,-884.511 -26.314,-879.18C-22.133,-873.317 -18.422,-867.09 -13.907,-861.506C-11.307,-858.285 -9.814,-854.901 -9.68,-851.049C-9.417,-843.661 -10.93,-841.232 -17.175,-840.54C-23,-839.9 -28.928,-838.902 -34.707,-839.358C-46.891,-840.322 -58.827,-842.394 -70.509,-846.743C-79.282,-850.008 -88.177,-853.917 -97.937,-853.999C-98.955,-854.008 -100.284,-854.493 -100.928,-855.232C-104.136,-858.915 -108.479,-859.904 -112.932,-860.967C-115.991,-861.701 -118.877,-863.147 -121.876,-864.153C-125.291,-865.301 -128.741,-866.333 -132.191,-867.37C-133.053,-867.628 -134.056,-867.523 -134.844,-867.9C-151.449,-875.789 -169.651,-878.987 -186.71,-885.594C-199.831,-890.677 -212.253,-897.038 -224.422,-903.977C-233.237,-909.009 -242.203,-913.839 -250.62,-919.483C-259.353,-925.339 -269.541,-927.612 -278.719,-932.213C-285.925,-935.827 -293.553,-937.48 -301.277,-939.056C-308.072,-940.445 -311.769,-937.446 -312.817,-930.455C-314.371,-920.115 -314.269,-909.848 -312.12,-899.631C-311.202,-895.258 -309.909,-890.96 -308.747,-886.635C-306.468,-878.139 -304.274,-869.618 -301.833,-861.171C-299.897,-854.461 -297.711,-847.82 -295.509,-841.19C-293.457,-835.007 -291.302,-828.859 -289.057,-822.745C-288.204,-820.423 -286.877,-818.28 -285.934,-815.987C-282.314,-807.191 -278.892,-798.313 -275.145,-789.574C-272.137,-782.552 -269.178,-775.613 -264.64,-769.209C-257.261,-758.798 -251.093,-747.536 -244.31,-736.699C-241.319,-731.923 -237.923,-727.398 -234.967,-722.602C-227.373,-710.28 -220.161,-697.714 -212.329,-685.551C-207.493,-678.036 -201.733,-671.128 -196.503,-663.863C-190.959,-656.161 -185.987,-648.003 -179.949,-640.715C-175.334,-635.142 -171.054,-629.422 -167.576,-623.146C-165.515,-619.43 -163.757,-615.387 -162.771,-611.271C-161.368,-605.407 -163.86,-602.691 -169.946,-601.611C-174.56,-600.792 -179.05,-599.207 -183.679,-598.533C-192.818,-597.203 -202.022,-596.319 -211.184,-595.148C-217.896,-594.289 -224.561,-593.005 -231.29,-592.39C-238.235,-591.755 -245.248,-591.851 -252.21,-591.35C-261.445,-590.686 -270.66,-589.754 -279.882,-588.923C-280.559,-588.861 -281.276,-588.498 -281.889,-588.643C-290.339,-590.618 -296.654,-585.249 -303.511,-582.148C-310.969,-578.781 -314.133,-569.081 -310.935,-561.529C-308.316,-555.338 -304.214,-549.751 -298.743,-546.54C-288.371,-540.442 -278.515,-533.384 -267.103,-528.982C-260.887,-526.586 -255.509,-522.057 -248.553,-521.334C-245.004,-517.105 -238.66,-517.465 -235.106,-512.736C-233.345,-510.395 -229.618,-509.267 -226.559,-508.232C-222.613,-506.897 -219.461,-504.686 -216.303,-502.036C-213.239,-499.465 -211.181,-500.522 -209.993,-504.448C-209.684,-505.466 -209.469,-506.511 -209.22,-507.515C-203.638,-506.622 -202.496,-504.346 -203.04,-495.326C-191.177,-489.875 -179.28,-483.942 -166.983,-478.993C-162.136,-477.04 -158.46,-474.066 -154.84,-470.764C-148.292,-464.791 -140.871,-462.243 -134.135,-460.168C-134.464,-457.866 -135.264,-455.281 -131.944,-453.759C-130.051,-452.889 -128.803,-450.59 -127.298,-448.909C-118.888,-439.52 -110.449,-430.157 -102.115,-420.701C-100.182,-418.504 -98.66,-415.947 -96.885,-413.603C-95.672,-412.002 -94.64,-410.414 -91.942,-410.961C-90.592,-411.233 -88.152,-410.301 -87.548,-409.187C-86.352,-406.973 -88.909,-406.361 -90.283,-405.343C-90.632,-405.085 -90.859,-404.663 -91.5,-403.875C-90.337,-402.199 -89.206,-400.3 -87.806,-398.628C-85.944,-396.408 -83.611,-394.551 -81.938,-392.21C-75.773,-383.576 -70.081,-374.613 -65.891,-364.844C-64.519,-361.65 -64.746,-357.78 -63.451,-354.538C-59.454,-344.534 -59.318,-333.819 -57.214,-323.476C-55.534,-315.201 -60.021,-308.081 -61.894,-300.495C-65.2,-287.127 -68.873,-273.849 -72.459,-260.552C-72.921,-258.834 -73.709,-257.199 -74.421,-255.557C-78.103,-247.082 -81.816,-238.62 -85.499,-230.145C-85.946,-229.107 -86.091,-227.903 -86.681,-226.967C-94.839,-214.016 -101.222,-199.984 -111.424,-188.263C-119.86,-178.574 -127.429,-168.129 -135.601,-158.202C-139.476,-153.496 -143.538,-148.836 -148.141,-144.887C-151.101,-142.35 -155.211,-141.16 -158.791,-139.34C-160.197,-138.623 -161.666,-137.962 -162.935,-137.047C-171.357,-130.961 -180.125,-125.274 -188.028,-118.57C-198.896,-109.349 -211.632,-104.624 -225.048,-101.205C-240.517,-97.265 -256.357,-97.322 -272.174,-97.26C-276.661,-97.243 -281.239,-96.27 -285.619,-96.874C-296.748,-98.405 -308.064,-99.213 -318.668,-103.504C-319.847,-103.98 -321.33,-103.637 -322.631,-103.893C-325.057,-104.372 -327.566,-104.723 -329.837,-105.639C-335.259,-107.821 -340.617,-110.188 -345.898,-112.691C-350.787,-115.007 -355.62,-117.471 -360.351,-120.095C-370.182,-125.546 -380.064,-130.924 -389.65,-136.777C-394.435,-139.7 -398.546,-143.711 -403.098,-147.039C-409.105,-151.427 -415.395,-155.438 -421.265,-159.99C-424.225,-162.283 -426.725,-165.263 -429.092,-168.205C-432.235,-172.111 -434.54,-173.154 -438.965,-171.337C-436.541,-179.6 -444.158,-181.973 -447.506,-186.894C-448.211,-187.934 -450.162,-188.215 -450.7,-189.272C-454.612,-196.931 -461.319,-202.329 -466.608,-208.834C-471.79,-215.203 -478.414,-220.425 -484.586,-225.95C-487.437,-228.506 -490.867,-230.411 -493.767,-232.92C-502.982,-240.894 -515.619,-240.622 -524.14,-232.191C-526.66,-229.697 -529.438,-227.463 -532.043,-225.051C-534.322,-222.948 -534.691,-220.303 -533.438,-217.621C-531.544,-213.565 -532.477,-209.889 -533.772,-205.846C-534.662,-203.06 -534.574,-199.593 -533.818,-196.722C-531.768,-188.949 -529.625,-181.128 -526.581,-173.716C-523.684,-166.669 -519.503,-160.16 -516.078,-153.323C-514.074,-149.326 -512.495,-145.114 -510.613,-141.055C-509.862,-139.439 -509.023,-137.767 -507.841,-136.468C-499.674,-127.5 -493.994,-117.06 -488.974,-106.109C-486.831,-101.435 -483.412,-97.362 -480.736,-92.914C-471.56,-77.658 -462.929,-62.036 -451.704,-48.124C-447.457,-42.86 -442.553,-38.123 -438.364,-32.822C-435.6,-29.324 -433.565,-25.251 -431.226,-21.424C-429.471,-18.547 -427.847,-15.585 -425.974,-12.79C-425.123,-11.523 -423.913,-9.765 -422.688,-9.609C-416.906,-8.858 -414.621,-4.014 -411.452,-0.377C-408.044,3.538 -405.317,8.039 -402.111,12.144C-400.173,14.627 -398.132,17.135 -395.717,19.123C-389.449,24.279 -383.04,29.288 -376.486,34.072C-374.165,35.768 -371.22,36.59 -368.62,37.925C-365.08,39.747 -362.625,37.619 -361.293,35.107C-359.649,32.006 -358.345,28.471 -360.179,24.701C-360.947,23.128 -361.573,21.223 -361.46,19.525C-361.006,12.844 -363.016,6.715 -365.142,0.578C-370.267,-14.207 -367.305,-27.865 -359.32,-40.782C-357.806,-43.228 -356.017,-45.505 -354.161,-48.132C-349.333,-45.465 -345.917,-42.542 -346.13,-37.026C-346.431,-29.268 -342.595,-22.694 -340.277,-15.659C-336.609,-4.527 -333.394,6.752 -329.865,17.932C-327.37,25.818 -325.1,33.644 -317.968,39.254C-314.201,42.219 -311.618,46.851 -308.951,51.018C-304.965,57.243 -299.565,61.875 -293.596,65.988C-293.409,66.118 -293.131,66.163 -293.012,66.331C-285.99,76.277 -274.161,76.813 -264.166,80.742C-255.195,84.268 -245.84,86.896 -236.52,89.427C-231.537,90.78 -226.284,91.225 -221.125,91.84C-213.729,92.724 -206.311,93.421 -198.899,94.139C-196.455,94.374 -193.995,94.433 -191.693,94.567C-191.356,91.911 -191.058,89.578 -190.757,87.231C-185.525,87.985 -181.25,88.597 -176.978,89.212C-176.975,89.518 -176.975,89.821 -176.975,90.125C-180.533,91.006 -184.093,91.891 -188.838,93.067C-180.584,95.006 -170.048,93.039 -157.555,87.752C-157.031,83.245 -159.333,80.527 -163.335,79.03C-170.351,76.405 -175.496,71.478 -180.085,65.795C-181.786,63.686 -183.988,61.914 -185.372,59.632C-187.359,56.358 -190.783,54.037 -190.165,48.957C-189.867,46.514 -193.654,43.483 -195.766,40.856C-200.571,34.863 -206.008,29.299 -210.189,22.91C-213.613,17.677 -215.495,11.455 -218.239,5.757C-220.388,1.293 -222.61,-3.161 -225.147,-7.41C-229.623,-14.902 -230.729,-23.026 -230.221,-31.504C-230.142,-32.811 -229.796,-34.359 -228.994,-35.3C-228.084,-36.369 -226.548,-37.389 -225.232,-37.457C-224.354,-37.502 -223.007,-36.02 -222.528,-34.929C-220.53,-30.39 -218.812,-25.73 -216.941,-21.135C-209.957,-3.986 -202.476,12.892 -190.743,27.499C-188.773,29.948 -187.401,32.882 -185.434,35.331C-181.65,40.039 -177.71,44.626 -173.696,49.136C-168.945,54.476 -164.044,59.683 -159.214,64.95C-158.907,65.285 -158.729,65.84 -158.363,65.996C-149.471,69.812 -143.884,78.837 -134.014,81.23C-130.666,82.04 -127.664,84.195 -124.356,85.3C-115.974,88.106 -107.41,86.556 -98.898,85.961C-98.025,85.901 -96.948,85.592 -96.296,85.972C-91.103,88.977 -85.816,87.639 -80.467,86.644C-71.858,85.045 -62.864,84.665 -54.675,81.879C-41.423,77.372 -27.451,75.161 -14.766,68.78C-6.25,64.494 -4.708,62.836 -4.561,53.065C-4.538,51.352 -3.583,49.654 -2.877,47.361C-4.408,46.551 -5.868,45.652 -7.424,44.983C-17.121,40.805 -27.111,37.191 -35.297,30.152C-36.125,29.441 -37.21,28.99 -38.234,28.562C-43.617,26.314 -49.277,24.588 -54.343,21.779C-61.115,18.023 -66.614,12.679 -70.305,5.658C-75.858,-4.91 -81.709,-15.33 -87.06,-25.997C-89.892,-31.635 -91.947,-37.661 -94.334,-43.52C-98.595,-53.986 -103,-64.395 -107.028,-74.948C-109.193,-80.626 -110.741,-86.542 -112.465,-92.378C-112.762,-93.379 -112.969,-94.768 -112.504,-95.562C-110.73,-98.606 -108.666,-101.477 -106.713,-104.411C-103.997,-104.834 -103.164,-102.898 -102.458,-100.939C-99.867,-93.733 -97.243,-86.539 -94.799,-79.285C-92.356,-72.031 -90.315,-64.636 -87.727,-57.438C-85.598,-51.523 -83.421,-45.522 -80.348,-40.073C-77.117,-34.342 -73.998,-28.525 -68.766,-23.916C-62.725,-18.595 -57.538,-12.251 -52.325,-6.06C-46.641,0.689 -39.042,4.725 -31.592,8.779C-26.328,11.642 -20.248,12.997 -14.547,15.072C-11.594,16.149 -8.677,17.314 -5.749,18.459C-5.119,18.703 -4.473,19.338 -3.912,19.256C3.609,18.142 10.094,23.431 17.223,23.08C30.662,22.419 43.62,26.569 56.954,26.203C60.279,26.113 63.575,25.194 66.906,25.036C69.729,24.897 72.709,24.831 75.39,25.571C79.846,26.81 83.815,27.32 86.854,22.961C94.192,22.226 99.142,16.486 105.656,13.966C111.138,11.846 116.541,9.456 121.779,6.795C124.551,5.386 127.134,3.387 129.39,1.227C135.499,-4.623 142.016,-9.785 149.902,-13.079C151.758,-13.856 153.833,-14.811 155.035,-16.302C159.282,-21.58 165.407,-23.363 171.23,-25.826C174.09,-27.04 176.754,-28.701 179.578,-30.013C180.479,-30.433 181.61,-30.336 182.616,-30.56C184.365,-30.946 186.245,-31.096 187.815,-31.861C205.325,-40.391 224.127,-42.299 243.136,-41.871C252.797,-41.655 262.463,-42.616 272.1,-41.573C275.423,-41.21 278.736,-40.793 282.05,-40.397C282.722,-40.317 283.462,-39.986 284.051,-40.161C292.632,-42.707 300.28,-38.514 307.777,-35.974C314.768,-33.605 320.856,-28.604 327.419,-24.897C331.322,-22.686 335.31,-20.602 339.372,-18.7C344.29,-16.396 349.367,-14.434 354.28,-12.129C356.009,-11.319 357.466,-9.924 359.101,-8.759C356.338,-4.048 352.437,-4.102 348.616,-4.694C341.042,-5.873 333.505,-7.33 325.959,-8.702C321.548,-9.505 317.123,-10.256 312.744,-11.211C305.286,-12.841 297.89,-14.757 290.415,-16.288C282.217,-17.966 267.046,-10.933 262.777,-3.796C261.975,-2.458 261.125,-0.986 259.917,-0.085C248.505,8.444 245.633,21.492 242.345,34.07C241.637,36.774 244.372,40.609 246.061,43.62C246.974,45.244 248.683,46.692 246.92,48.203C245.758,49.198 243.658,49.099 241.245,49.66C241.869,53.847 242.657,58.646 243.278,63.471C244.227,70.858 245.441,78.239 245.852,85.66C246.504,97.373 246.733,109.114 246.858,120.844C246.983,132.534 244.335,143.79 239.978,154.542C236.254,163.74 224.946,169.095 214.696,167.717C209.174,166.975 204.338,165.209 199.638,162.167C194.797,159.035 189.445,156.756 183.268,158.542C180.241,159.418 177.418,159.324 176.689,155.166C176.199,152.362 173.883,151.929 171.516,151.804C169.013,151.671 166.921,152.552 166.045,154.967C164.741,158.57 163.579,162.244 162.632,165.957C161.535,170.257 162.513,174.841 160.393,179.135C159.562,180.825 160.447,183.623 161.11,185.74C163.349,192.903 166.34,199.718 171.187,205.603C181.111,217.658 190.814,229.904 200.908,241.818C207.468,249.559 214.418,256.98 222.934,262.74C224.538,263.826 226.052,265.368 227.001,267.043C229.504,271.449 233.249,273.577 238.127,273.438C241.123,273.351 243.337,273.997 245.134,276.545C245.968,277.727 247.487,278.887 248.871,279.15C260.3,281.344 271.752,283.541 282.58,276.693C285.418,274.898 288.513,273.489 291.56,272.055C298.426,268.826 300.161,263.733 296.391,257.298C293.859,252.981 290.883,249.307 285.911,247.286C279.717,244.763 274.796,240.537 271.244,234.621C269.541,231.778 266.854,229.479 264.419,227.132C259.968,222.846 258.29,217.718 259.381,211.7C259.56,210.716 260.371,209.846 261.201,208.355C264.504,210.609 267.837,212.193 270.238,214.676C274.467,219.047 278.028,224.056 282.061,228.623C284.272,231.126 286.634,233.64 289.372,235.491C293.859,238.524 298.709,241.019 303.412,243.737C303.999,244.074 304.639,244.689 305.203,244.636C312.797,243.904 318.776,249.222 325.913,250.075C327.864,250.308 330.032,250.54 331.824,249.942C346.433,245.069 358.447,236.954 365.618,222.704C367.427,219.115 369.998,215.858 372.532,212.703C377.158,206.949 377.796,200.477 376.719,193.589C366.9,188.201 356.247,185.658 345.679,182.781C341.867,181.743 337.243,180.471 334.953,177.69C329.715,171.332 322.466,168.077 316.196,163.361C310.334,158.95 306.377,153.445 305.218,146.064C304.492,141.435 305.872,140.017 310.32,141.698C313.01,142.719 315.541,144.383 317.849,146.143C324.842,151.489 331.642,157.088 338.61,162.471C344.631,167.122 352.097,167.485 359.147,168.976C365.964,170.419 372.603,168.299 379.301,167.519C380.143,167.423 381.271,166.986 381.674,166.337C384.525,161.77 389.449,161.756 393.814,160.191C398.188,158.624 402.126,155.812 406.196,153.448C407.146,152.895 407.73,151.554 408.702,151.234C413.957,149.496 416.021,144.828 418.878,140.786C421.583,136.964 424.65,133.396 427.635,129.781C428.78,128.395 431.133,127.276 431.243,125.898C431.807,118.911 438.296,116.368 441.524,111.43C444.73,106.526 447.965,101.373 452.245,97.5C458.084,92.214 464.978,88.109 471.322,83.367C476.753,79.308 482.08,75.101 487.397,70.889C497.001,63.281 507.464,57.07 518.049,50.933C524.268,47.324 531.445,47.344 537.542,44.246C554.596,35.58 573.248,33.154 591.698,30.634C600.296,29.458 609.494,29.665 618.225,32.763C624.969,35.155 632.231,36.128 638.867,38.741C642.903,40.331 646.35,43.642 649.772,46.525C655.614,51.443 660.997,56.744 667.729,60.752C673.194,64.009 677.129,69.752 682.055,74.032C687.665,78.905 693.771,83.208 699.392,88.067C706.745,94.414 714.095,100.8 720.975,107.646C730.063,116.688 737.583,127.23 747.802,135.249C751.289,137.985 753.783,141.956 756.935,145.162C758.662,146.914 760.598,148.946 762.814,149.624C768.342,151.311 773.246,155.015 779.366,154.814C780.205,154.789 781.101,155.242 781.9,155.611C796.72,162.473 816.684,149.236 816.077,132.729C815.666,121.669 814.774,110.625 813.912,99.587C813.351,92.381 812.066,85.215 811.814,78.007C811.457,67.958 809.926,58.249 806.221,48.869C801.159,36.04 796.119,23.196 791.374,10.247C790.26,7.214 787.921,4.405 788.967,0.601C789.299,-0.612 788.142,-2.387 787.365,-3.728C782.986,-11.259 778.637,-18.816 773.994,-26.186C772.614,-28.383 770.369,-30.059 768.427,-31.878C767.619,-32.632 766.066,-32.93 765.72,-33.789C763.597,-39.03 758.438,-38.463 754.716,-38.509C750.47,-38.565 745.381,-37.253 742.085,-34.696C733.757,-28.239 725.712,-21.229 718.583,-13.49C714.617,-9.181 710.294,-6.721 705.053,-5.153C704.021,-4.847 702.876,-4.944 701.337,-4.813C701.042,-7.985 702.904,-9.507 704.767,-11.021C715.487,-19.721 725.34,-29.197 732.892,-40.924C734.689,-43.71 737.685,-45.706 740.018,-48.172C741.169,-49.385 742.056,-50.845 743.774,-53.144C740.375,-53.263 737.592,-49.045 735.911,-53.918C739.587,-59.094 744.707,-62.609 751.215,-63.95C754.339,-64.593 755.609,-66.467 756.252,-70.089C753.449,-69.466 751.224,-68.973 747.768,-68.207C750.138,-71.629 751.768,-74.092 753.508,-76.476C760.051,-85.436 765.026,-95.04 766.151,-106.308C766.25,-107.289 767.061,-108.247 767.687,-109.108C768.209,-109.826 769.586,-110.506 769.49,-110.988C768.404,-116.425 773.651,-119.089 774.952,-123.616C776.205,-127.976 779.632,-131.749 782.274,-135.663C788.845,-145.417 795.535,-155.075 805.527,-161.816C806.882,-162.731 807.894,-164.166 809.515,-165.818C803.829,-168.8 798.956,-171.357 793.023,-174.47C792.422,-174.399 790.362,-174.161 787.374,-173.812C788.323,-176.488 788.953,-178.274 789.559,-179.977C795.002,-179.266 800.181,-179.512 804.192,-175.456C804.815,-174.827 806.987,-175.728 807.897,-175.847C809.977,-178.753 806.023,-181.843 809.493,-183.844C809.606,-184.059 809.722,-184.255 809.756,-184.467C809.994,-186.069 809.26,-188.226 811.894,-188.461C812.327,-188.501 812.829,-187.815 813.3,-187.466C812.375,-186.457 811.477,-185.428 810.513,-184.459C810.218,-184.167 809.748,-184.048 809.359,-183.847" style="fill:rgb(42,42,42);fill-rule:nonzero;"/>
                    </g>
                    <g id="path3" transform="matrix(1.33333,0,0,-1.33333,2782.28,1588.22)">
                        <path d="M0,0C-0.938,0.578 -1.553,1.222 -1.874,1.097C-2.537,0.842 -3.036,0.179 -3.603,-0.315C-3.183,-0.677 -2.679,-1.403 -2.356,-1.332C-1.641,-1.174 -1.018,-0.612 0,0M-46.48,48.209C-45.496,49.518 -44.691,50.119 -44.663,50.751C-44.631,51.471 -45.295,52.223 -45.658,52.963C-46.344,52.597 -47.591,52.245 -47.602,51.86C-47.625,50.924 -47.075,49.975 -46.48,48.209M-34.951,40.881C-37.627,40.306 -39.146,39.308 -38.404,36.777C-38.276,36.34 -37.259,35.751 -36.873,35.881C-34.651,36.638 -33.925,38.197 -34.951,40.881M-99.635,83.764C-100.114,83.798 -100.596,83.837 -101.078,83.874C-102.983,79.676 -102.983,79.676 -100.783,77.153C-100.338,79.702 -99.986,81.734 -99.635,83.764M-87.883,37.769C-90.669,36.734 -92.004,35.203 -91.077,32.59C-90.904,32.1 -89.34,31.527 -88.92,31.793C-86.794,33.131 -85.924,34.985 -87.883,37.769M-205.693,71.785C-210.603,72.714 -210.603,72.714 -210.28,64.704C-208.553,67.368 -207.198,69.463 -205.693,71.785M-27.967,0.34C-33.744,6.126 -36.811,6.284 -37.358,2.616C-34.115,1.831 -31.042,1.086 -27.967,0.34M-64.412,74.14C-61.583,74.602 -58.754,75.064 -55.23,75.643C-59.649,80.161 -62.215,79.914 -64.412,74.14M-115.336,72.312C-119.169,77.136 -122.097,74.628 -124.753,73.434C-125.408,73.14 -125.195,70.914 -125.583,68.128C-121.513,69.789 -118.777,70.906 -115.336,72.312M-85.056,78.642C-86.383,76.47 -88.943,74.653 -86.783,71.714C-85.045,69.352 -82.919,70.248 -80.748,71.569C-80.62,74.778 -80.345,77.944 -85.056,78.642M-233.09,86.355C-230.023,86.734 -226.956,87.111 -223.866,87.534C-219.991,83.078 -219.991,83.078 -216.53,87.69C-219.671,90.386 -219.671,90.386 -224.008,87.282C-223.696,89.561 -223.384,91.837 -223.019,94.51C-224.306,94.065 -224.677,93.852 -225.06,93.815C-229.64,93.368 -232.299,90.887 -233.022,86.355C-233.41,83.684 -236.897,80.997 -232.574,78.086C-231.525,78.548 -230.25,79.112 -228.365,79.94C-230.199,82.431 -231.647,84.393 -233.09,86.355M-269.093,23.267C-270.748,22.983 -272.177,22.538 -271.1,19.619C-270.275,21.234 -269.728,22.303 -269.232,23.437C-268.722,24.84 -268.209,26.243 -267.588,27.947C-268.662,28.244 -269.583,28.497 -271.301,28.97C-270.354,26.527 -269.722,24.897 -269.093,23.267M-106.072,110.494C-101.523,114.523 -96.446,114.732 -90.893,112.918C-85.765,111.246 -80.442,110.163 -75.348,108.403C-66.594,105.381 -57.883,102.197 -49.311,98.697C-47.22,97.843 -45.901,95.247 -43.914,93.923C-42.131,92.735 -39.47,92.628 -40.105,89.467C-33.976,90.652 -30.98,86.462 -28.029,82.752C-26.901,81.34 -26.07,80.427 -24.367,79.534C-21.512,78.032 -19.131,75.413 -16.937,72.924C-13.215,68.703 -9.42,64.468 -6.352,59.783C-2.903,54.507 0.128,48.889 2.699,43.135C5.709,36.4 8.073,29.373 10.607,22.433C11.217,20.769 11.401,18.952 11.772,17.24C9.811,15.528 8.076,14.012 5.323,11.616C8.51,11.616 10.738,12.263 11.945,11.429C13.133,10.61 13.394,8.32 13.878,6.622C17.3,-5.295 14.726,-17.056 13.017,-29.67C10.653,-29.109 8.609,-28.587 6.551,-28.142C3.844,-27.556 1.293,-28.227 0.091,-30.665C-1.103,-33.083 -0.235,-35.447 2.032,-36.961C6.086,-36.904 7.132,-30.155 12.912,-33.415C11.211,-40.822 9.717,-48.523 7.634,-56.064C5.922,-62.274 0.785,-65.911 -3.98,-69.766C-8.872,-73.729 -13.686,-77.808 -18.269,-82.12C-22.844,-86.42 -26.62,-91.706 -31.612,-95.383C-36.009,-98.62 -41.394,-101.231 -46.712,-102.353C-57.651,-104.664 -68.788,-106.537 -80.042,-106.26C-89.283,-106.033 -98.456,-108.198 -107.734,-106.566C-115.489,-105.199 -123.361,-104.477 -131.105,-103.068C-140.238,-101.407 -149.323,-99.456 -158.349,-97.313C-161.087,-96.664 -163.587,-94.98 -166.175,-93.728C-170.405,-91.684 -174.781,-89.875 -178.809,-87.483C-186.211,-83.089 -193.949,-79.716 -202.272,-77.42C-207.011,-76.116 -211.402,-73.585 -216.043,-71.85C-225.975,-68.125 -235.746,-63.575 -246.01,-61.265C-253.378,-59.607 -259.841,-55.97 -267.032,-54.289C-272.735,-52.96 -278.532,-52.019 -284.202,-50.576C-286.722,-49.932 -289.624,-49.039 -291.319,-47.271C-294.664,-43.773 -298.786,-42.372 -303.134,-41.187C-309.455,-39.467 -315.831,-37.942 -322.118,-36.111C-326.735,-34.767 -331.197,-32.879 -336.197,-33.962C-336.818,-34.098 -337.618,-33.083 -338.403,-32.902C-341.583,-32.176 -344.786,-31.524 -347.995,-30.926C-350.612,-30.436 -353.744,-30.801 -355.774,-29.463C-359.059,-27.286 -362.548,-27.479 -366.024,-26.821C-369.082,-26.24 -372.603,-25.917 -374.939,-24.168C-379.253,-20.937 -384.035,-19.902 -389.038,-18.785C-393.191,-17.861 -397.273,-16.41 -401.219,-14.777C-411.33,-10.587 -421.821,-8.456 -432.74,-7.903C-439.257,-7.574 -445.796,-6.885 -452.231,-5.805C-463.825,-3.858 -475.291,-1.106 -486.913,0.59C-503.887,3.064 -520.948,4.895 -537.973,7.01C-543.523,7.699 -549.054,8.612 -554.624,9.091C-564.982,9.984 -575.365,10.675 -585.74,11.361C-589.802,11.633 -593.892,11.529 -597.951,11.837C-605.625,12.419 -613.287,13.167 -620.955,13.873C-622.304,13.995 -623.684,14.587 -624.983,14.414C-632.869,13.374 -640.213,16.163 -647.589,17.901C-661.771,21.249 -676.04,22.671 -690.579,22.935C-699.114,23.088 -707.681,24.389 -716.114,25.86C-720.215,26.578 -723.067,29.985 -724.782,33.86C-725.876,36.337 -726.715,38.951 -727.427,41.57C-728.629,45.981 -728.144,47.322 -723.702,48.719C-717.231,50.757 -710.637,52.472 -704.01,53.938C-693.207,56.33 -682.345,58.476 -671.477,60.574C-669.076,61.038 -666.556,60.928 -664.084,60.982C-661.382,61.038 -658.621,60.619 -655.985,61.033C-641.628,63.289 -627.163,63.626 -612.694,63.374C-595.069,63.071 -577.451,62.124 -559.826,61.923C-546.474,61.767 -533.117,62.311 -519.763,62.637C-518.258,62.674 -516.77,63.317 -514.95,63.757C-515.982,68.95 -520.586,69.755 -523.616,69.78C-535.74,69.877 -547.387,72.652 -559.188,74.701C-562.734,75.317 -566.425,75.044 -570.022,75.447C-574.934,76.003 -579.801,77.003 -584.719,77.474C-591.477,78.117 -598.258,78.596 -605.038,78.857C-614.738,79.237 -624.45,79.495 -634.158,79.546C-641.299,79.586 -648.471,78.744 -655.577,79.146C-665.26,79.696 -674.827,78.208 -684.632,78.97C-695.568,79.824 -706.037,82.355 -716.689,84.161C-723.739,85.36 -730.585,87.749 -737.538,89.552C-740.656,90.36 -744.293,90.958 -744.661,94.779C-745.044,98.779 -744.894,103.26 -741.129,105.883C-735.9,109.522 -731.398,114.165 -724.034,114.503C-719.946,114.69 -716.06,118.227 -711.989,120.042C-709.356,121.215 -706.615,122.281 -703.811,122.899C-698.306,124.115 -692.731,125.014 -687.169,125.972C-686.083,126.162 -684.748,126.442 -683.861,126.009C-673.764,121.059 -663.602,124.089 -653.454,125.6C-652.34,125.765 -651.246,126.275 -650.143,126.281C-640.219,126.32 -630.298,126.334 -620.376,126.218C-618.902,126.201 -616.966,125.915 -616.062,124.971C-614.035,122.856 -611.804,122.624 -609.253,123.072C-602.626,124.234 -596.032,125.629 -589.374,126.55C-583.251,127.392 -577.244,128.798 -571.048,125.22C-568.159,123.554 -563.661,124.234 -559.945,124.537C-555.021,124.934 -550.216,124.747 -545.281,124.5C-535.187,123.999 -525.013,124.937 -514.879,125.425C-506.061,125.847 -497.265,126.675 -488.446,126.95C-477.125,127.307 -465.786,127.069 -454.47,127.497C-440.235,128.032 -426.013,129.033 -411.783,129.702C-409.595,129.807 -407.37,129.254 -405.176,128.931C-401.38,128.378 -397.61,127.5 -393.797,127.236C-386.357,126.723 -378.879,126.122 -371.441,126.349C-363.937,126.581 -356.632,125.031 -349.243,124.821C-340.815,124.583 -332.365,125.725 -323.918,125.821C-316.95,125.901 -309.98,125.186 -303.007,125.11C-298.99,125.065 -294.97,125.68 -290.945,125.827C-284.947,126.048 -278.943,126.111 -272.945,126.252C-266.08,126.414 -259.211,126.78 -252.351,126.689C-247.45,126.626 -242.561,125.901 -237.66,125.592C-235.664,125.464 -233.651,125.694 -231.647,125.683C-221.136,125.631 -210.6,126.003 -200.123,125.368C-190.06,124.753 -180.071,122.987 -170.028,121.927C-164.65,121.36 -159.228,120.923 -153.828,120.937C-143.277,120.963 -133.228,118.837 -123.412,115.109C-121.949,114.557 -119.84,114.659 -118.406,115.296C-114.301,117.122 -110.911,114.772 -107.348,113.749C-106.611,113.536 -106.401,111.498 -105.965,110.327C-108.309,112.652 -111.101,112.833 -114.032,112.365C-115.316,107.413 -114.676,104.936 -111.796,104.468C-108.196,103.878 -107.195,106.424 -106.696,109.332C-106.622,109.743 -106.285,110.109 -106.072,110.494" style="fill:rgb(42,42,42);fill-rule:nonzero;"/>
                    </g>
                    <g id="path5" transform="matrix(1.33333,0,0,-1.33333,1553.85,1045.14)">
                        <path d="M0,0C-0.23,-2.18 -1.003,-4.317 -0.55,-6.16C1.162,-13.175 0.51,-20.007 -1.4,-26.81C-2.738,-31.561 -3.353,-36.805 -5.848,-40.876C-9.992,-47.648 -16.265,-52.985 -24.066,-54.842C-28.145,-55.811 -32.924,-54.003 -37.352,-53.24C-39.339,-52.9 -41.434,-52.379 -43.143,-51.367C-52.18,-46.015 -58.955,-51.483 -64.471,-57.438C-69.046,-62.385 -72.91,-67.992 -77.1,-73.295C-85.612,-84.076 -101.602,-86.227 -111.43,-76.541C-116.073,-71.96 -120.92,-67.343 -124.424,-61.931C-126.85,-58.178 -128.744,-52.79 -128.083,-48.569C-126.125,-36.088 -122.063,-24.242 -109.233,-18.303C-106.41,-16.997 -103.394,-15.749 -100.349,-15.347C-95.46,-14.695 -90.414,-14.21 -85.538,-14.695C-80.495,-15.197 -75.379,-16.438 -70.682,-18.317C-67.844,-19.457 -65.628,-18.984 -63.729,-17.671C-59.888,-15.015 -55.896,-12.26 -52.911,-8.745C-46.174,-0.805 -37.908,4.779 -28.706,9.334C-22.864,12.226 -17.362,12.11 -12.01,8.546C-7.926,5.828 -4.003,2.86 0,0" style="fill:rgb(42,42,42);fill-rule:nonzero;"/>
                    </g>
                </g>
                <path id="text1" d="M878.469,656.686C849.278,656.686 833.799,677.473 826.722,693.395L826.722,594.766L760.38,594.766L760.38,906.133C760.38,924.708 760.38,934.438 755.957,948.591L813.454,948.591C824.511,941.957 826.722,924.266 826.722,916.305C833.799,932.227 849.278,953.014 878.469,953.014C919.159,953.014 926.678,923.381 926.678,861.02L926.678,748.68C926.678,686.319 919.159,656.686 878.469,656.686ZM860.335,865.443C860.335,886.672 854.586,891.095 843.529,891.095C832.472,891.095 826.722,886.672 826.722,865.443L826.722,744.258C826.722,723.028 832.472,718.605 843.529,718.605C854.586,718.605 860.335,723.028 860.335,744.258L860.335,865.443ZM1054.94,656.686C1024.42,656.686 1008.94,677.473 1001.87,693.395L1001.87,661.109L935.523,661.109L935.523,948.591L1001.87,948.591L1001.87,744.258C1001.87,724.355 1007.62,718.605 1018.67,718.605C1029.73,718.605 1035.48,724.355 1035.48,744.258L1035.48,766.372L1101.82,766.372L1101.82,748.68C1101.82,686.319 1094.3,656.686 1054.94,656.686ZM1110.67,852.174C1110.67,923.381 1140.3,953.014 1193.82,953.014C1247.33,953.014 1276.96,923.381 1276.96,852.174L1276.96,757.526C1276.96,686.319 1247.33,656.686 1193.82,656.686C1140.3,656.686 1110.67,686.319 1110.67,757.526L1110.67,852.174ZM1177.01,852.174L1177.01,757.526C1177.01,727.451 1179.22,718.605 1193.82,718.605C1207.97,718.605 1210.62,727.451 1210.62,757.526L1210.62,852.174C1210.62,882.249 1208.41,891.095 1193.82,891.095C1179.22,891.095 1177.01,882.249 1177.01,852.174ZM1285.81,852.174C1285.81,923.381 1315.44,953.014 1368.96,953.014C1422.48,953.014 1452.11,923.381 1452.11,852.174L1452.11,757.526C1452.11,686.319 1422.48,656.686 1368.96,656.686C1315.44,656.686 1285.81,686.319 1285.81,757.526L1285.81,852.174ZM1352.15,852.174L1352.15,757.526C1352.15,727.451 1354.36,718.605 1368.96,718.605C1383.11,718.605 1385.77,727.451 1385.77,757.526L1385.77,852.174C1385.77,882.249 1383.55,891.095 1368.96,891.095C1354.36,891.095 1352.15,882.249 1352.15,852.174ZM1460.95,594.766L1460.95,948.591L1527.3,948.591L1527.3,594.766L1460.95,594.766ZM1636.98,661.109L1568.43,661.109L1527.3,804.85L1568.43,948.591L1636.98,948.591L1593.19,804.85L1636.98,661.109ZM1739.15,780.967C1704.65,755.757 1694.48,750.45 1694.48,735.412C1694.48,727.451 1698.02,718.605 1708.19,718.605C1718.36,718.605 1723.67,727.451 1723.67,753.103L1790.01,753.103C1790.01,690.742 1763.91,656.686 1708.19,656.686C1652.46,656.686 1628.13,690.742 1628.13,735.412C1628.13,782.294 1656,800.427 1683.42,819.445C1723.67,847.309 1728.09,856.597 1728.09,869.865C1728.09,882.249 1725.44,891.095 1713.05,891.095C1700.67,891.095 1694.48,882.249 1694.48,847.751L1628.13,847.751C1628.13,927.804 1655.11,953.014 1713.05,953.014C1770.99,953.014 1794.43,918.959 1794.43,869.865C1794.43,825.195 1772.76,805.735 1739.15,780.967ZM1965.15,773.89L2031.5,773.89L2031.5,757.526C2031.5,686.319 2001.86,656.686 1948.35,656.686C1894.83,656.686 1865.2,686.319 1865.2,757.526L1865.2,852.174C1865.2,923.381 1894.83,953.014 1948.35,953.014C2001.86,953.014 2031.5,923.381 2031.5,852.174L2031.5,835.81L1965.15,835.81L1965.15,852.174C1965.15,882.249 1962.94,891.095 1948.35,891.095C1933.75,891.095 1931.54,882.249 1931.54,852.174L1931.54,757.526C1931.54,727.451 1933.75,718.605 1948.35,718.605C1962.5,718.605 1965.15,727.451 1965.15,757.526L1965.15,773.89ZM2040.34,594.766L2040.34,948.591L2106.68,948.591L2106.68,594.766L2040.34,594.766ZM2286.25,906.133L2286.25,748.68C2286.25,686.319 2261.48,656.686 2203.54,656.686C2145.6,656.686 2119.95,686.319 2119.95,748.68L2119.95,757.526L2186.29,757.526L2186.29,748.68C2186.29,727.451 2190.72,718.605 2203.54,718.605C2215.48,718.605 2219.91,723.028 2219.91,739.392C2219.46,786.274 2115.53,776.544 2115.53,878.269C2115.53,930.458 2141.62,953.014 2171.26,953.014C2196.47,953.014 2209.73,941.515 2219.91,916.305C2219.91,924.266 2222.12,941.957 2233.18,948.591L2290.67,948.591C2286.25,934.438 2286.25,924.708 2286.25,906.133ZM2219.91,880.038C2215.48,885.345 2209.29,891.095 2200.45,891.095C2189.39,891.095 2181.87,883.576 2181.87,866.327C2181.87,839.348 2206.2,830.502 2219.91,810.6L2219.91,880.038ZM2418.93,656.686C2388.42,656.686 2372.94,677.473 2365.86,693.395L2365.86,661.109L2299.52,661.109L2299.52,948.591L2365.86,948.591L2365.86,744.258C2365.86,724.355 2371.61,718.605 2382.67,718.605C2393.72,718.605 2399.47,724.355 2399.47,744.258L2399.47,766.372L2465.82,766.372L2465.82,748.68C2465.82,686.319 2458.3,656.686 2418.93,656.686ZM2474.66,594.766L2474.66,948.591L2541,948.591L2541,594.766L2474.66,594.766ZM2650.69,661.109L2582.14,661.109L2541,804.85L2582.14,948.591L2650.69,948.591L2606.9,804.85L2650.69,661.109ZM2729.41,656.686C2675.9,656.686 2646.26,686.319 2646.26,757.526L2646.26,852.174C2646.26,923.381 2675.9,953.014 2729.41,953.014C2782.93,953.014 2812.56,923.381 2812.56,852.174L2812.56,835.81L2746.22,835.81L2746.22,852.174C2746.22,882.249 2744.01,891.095 2729.41,891.095C2714.82,891.095 2712.61,882.249 2712.61,852.174L2712.61,818.119L2812.56,818.119L2812.56,757.526C2812.56,686.319 2782.93,656.686 2729.41,656.686ZM2746.22,773.89L2712.61,773.89L2712.61,757.526C2712.61,727.451 2714.82,718.605 2729.41,718.605C2743.57,718.605 2746.22,727.451 2746.22,757.526L2746.22,773.89Z" style="fill:rgb(42,42,42);fill-rule:nonzero;"/>
            </g>
        </g>
    </g>
</svg>
