<?xml version="1.0" encoding="UTF-8" standalone="no"?>
<!-- Created with Inkscape (http://www.inkscape.org/) -->

<svg
   version="1.1"
   id="svg1"
   width="2560"
   height="2560"
   viewBox="0 0 2560.0001 2560"
   sodipodi:docname="goat.svg"
   inkscape:version="1.3.2 (091e20e, 2023-11-25)"
   xmlns:inkscape="http://www.inkscape.org/namespaces/inkscape"
   xmlns:sodipodi="http://sodipodi.sourceforge.net/DTD/sodipodi-0.dtd"
   xmlns="http://www.w3.org/2000/svg"
   xmlns:svg="http://www.w3.org/2000/svg">
  <defs
     id="defs1">
    <clipPath
       clipPathUnits="userSpaceOnUse"
       id="clipPath2">
      <path
         d="M 0,708.96 H 782.88 V 0 H 0 Z"
         transform="translate(-227.07771,-546.66551)"
         id="path2" />
    </clipPath>
    <clipPath
       clipPathUnits="userSpaceOnUse"
       id="clipPath4">
      <path
         d="M 0,708.96 H 782.88 V 0 H 0 Z"
         transform="translate(-736.14612,-288.7447)"
         id="path4" />
    </clipPath>
    <clipPath
       clipPathUnits="userSpaceOnUse"
       id="clipPath6">
      <path
         d="M 0,708.96 H 782.88 V 0 H 0 Z"
         transform="translate(-411.12261,-432.43221)"
         id="path6" />
    </clipPath>
  </defs>
  <sodipodi:namedview
     id="namedview1"
     pagecolor="#ffffff"
     bordercolor="#000000"
     borderopacity="1"
     inkscape:showpageshadow="0"
     inkscape:pageopacity="0"
     inkscape:pagecheckerboard="0"
     inkscape:deskcolor="#505050"
     inkscape:zoom="0.21099979"
     inkscape:cx="736.96756"
     inkscape:cy="1372.0393"
     inkscape:window-width="2176"
     inkscape:window-height="1212"
     inkscape:window-x="1905"
     inkscape:window-y="25"
     inkscape:window-maximized="0"
     inkscape:current-layer="g6" />
  <g
     id="layer-MC0"
     inkscape:groupmode="layer"
     inkscape:label="Snow Goat Image">
    <g
       id="g6"
       transform="matrix(2.4534643,0,0,2.4534643,3.8958356,120.39472)">
      <path
         id="path1"
         d="M 0,0 C 0.157,0.436 0.289,0.649 0.296,0.867 0.303,1.072 0.178,1.281 0.111,1.488 -0.111,1.335 -0.381,1.216 -0.53,1.01 -0.585,0.936 -0.352,0.652 0,0 m 69.575,76.291 c -0.112,0.149 -0.223,0.3 -0.335,0.45 -0.272,-0.203 -0.543,-0.406 -0.815,-0.609 0.15,-0.159 0.399,-0.475 0.433,-0.453 0.263,0.167 0.483,0.4 0.717,0.612 M 66.938,57.933 c -0.285,0.22 -0.523,0.487 -0.6,0.446 -0.204,-0.106 -0.409,-0.325 -0.469,-0.54 -0.031,-0.111 0.311,-0.464 0.375,-0.438 0.23,0.094 0.413,0.302 0.694,0.532 M -44.49,-0.414 c -0.509,-0.189 -0.748,-0.217 -0.766,-0.295 -0.052,-0.233 -0.016,-0.485 -0.015,-0.73 0.193,0.254 0.387,0.508 0.781,1.025 m 302.591,-57.311 c 0.18,0.212 0.389,0.352 0.412,0.518 0.014,0.113 -0.254,0.384 -0.358,0.366 -0.186,-0.032 -0.343,-0.229 -0.513,-0.357 0.133,-0.153 0.267,-0.307 0.459,-0.527 M -45.107,-443.6 c -0.265,0.202 -0.436,0.435 -0.594,0.425 -0.186,-0.011 -0.359,-0.231 -0.538,-0.361 0.162,-0.16 0.306,-0.411 0.494,-0.449 0.148,-0.031 0.349,0.2 0.638,0.385 m 160.932,2.298 c -0.047,0.135 -0.058,0.324 -0.153,0.388 -0.076,0.05 -0.254,-0.053 -0.387,-0.087 0.07,-0.189 0.14,-0.38 0.21,-0.569 0.109,0.089 0.219,0.178 0.33,0.268 M -12.9,-189.345 c -0.337,0.163 -0.53,0.323 -0.73,0.333 -0.17,0.009 -0.349,-0.155 -0.523,-0.243 0.154,-0.201 0.284,-0.436 0.481,-0.579 0.056,-0.041 0.308,0.188 0.772,0.489 M 98.635,-438.287 c -0.094,0.202 -0.153,0.447 -0.22,0.449 -0.208,0.009 -0.419,-0.076 -0.629,-0.124 0.057,-0.131 0.097,-0.359 0.173,-0.371 0.209,-0.034 0.432,0.022 0.676,0.046 M -6.948,-2.854 c 0.322,-0.072 0.586,-0.132 0.849,-0.191 0.019,0.111 0.086,0.297 0.048,0.321 -0.177,0.114 -0.378,0.209 -0.583,0.254 -0.053,0.012 -0.151,-0.179 -0.314,-0.384 m 37.169,-365.35 c -0.402,-0.901 -0.58,-1.154 -0.601,-1.419 -0.008,-0.105 0.332,-0.237 0.514,-0.357 0.142,0.241 0.349,0.467 0.406,0.726 0.041,0.189 -0.116,0.42 -0.319,1.05 m 282.217,271.912 c -0.179,-0.294 -0.419,-0.545 -0.37,-0.634 0.121,-0.216 0.377,-0.357 0.578,-0.529 0.07,0.207 0.206,0.419 0.188,0.618 -0.014,0.16 -0.212,0.305 -0.396,0.545 m -127.04,-241.045 c 0.057,-0.113 0.115,-0.227 0.171,-0.342 0.352,0.159 0.704,0.319 1.056,0.478 -0.109,0.18 -0.22,0.359 -0.329,0.539 -0.299,-0.225 -0.598,-0.45 -0.898,-0.675 M 47.56,-5.173 46.984,-5.181 c 0.033,-0.335 0.066,-0.671 0.098,-1.006 0.193,0.023 0.553,0.043 0.553,0.07 0.007,0.314 -0.041,0.629 -0.075,0.944 m 200.321,-0.763 c -0.123,-0.045 -0.246,-0.091 -0.369,-0.137 0.09,-0.345 0.179,-0.691 0.269,-1.036 0.134,0.058 0.389,0.142 0.383,0.17 -0.072,0.339 -0.183,0.67 -0.283,1.003 M -29.654,-395.327 c 0.18,-0.107 0.36,-0.213 0.541,-0.319 0.109,0.29 0.326,0.592 0.294,0.866 -0.026,0.212 -0.345,0.418 -0.576,0.554 -0.052,0.031 -0.383,-0.223 -0.405,-0.373 -0.033,-0.23 0.089,-0.484 0.146,-0.728 M -105.734,5.99 c -0.271,0.286 -0.414,0.524 -0.623,0.624 -0.117,0.056 -0.343,-0.116 -0.52,-0.185 0.123,-0.252 0.221,-0.523 0.39,-0.739 0.033,-0.042 0.342,0.132 0.753,0.3 m 366.046,-63.931 c -0.27,0.23 -0.42,0.441 -0.609,0.483 -0.104,0.023 -0.271,-0.237 -0.41,-0.37 0.148,-0.154 0.275,-0.384 0.455,-0.436 0.123,-0.037 0.318,0.173 0.564,0.323 M 60.28,-365.608 c -0.64,0.21 -1.09,0.358 -1.695,0.557 0.291,-0.966 0.424,-1.828 1.695,-0.557 M 75.69,65.521 c -0.136,0.026 -0.272,0.051 -0.407,0.077 -0.065,-0.345 -0.129,-0.689 -0.193,-1.034 0.134,-0.024 0.267,-0.05 0.401,-0.075 0.067,0.344 0.133,0.688 0.199,1.032 m -223.671,-96.418 c -0.39,0.171 -0.616,0.335 -0.852,0.35 -0.132,0.008 -0.279,-0.229 -0.42,-0.356 0.202,-0.167 0.383,-0.393 0.615,-0.473 0.105,-0.037 0.31,0.216 0.657,0.479 m 456.052,-96.193 c -0.082,0.201 -0.134,0.332 -0.187,0.462 -0.19,-0.08 -0.395,-0.14 -0.557,-0.257 -0.034,-0.025 0.105,-0.389 0.136,-0.385 0.205,0.027 0.403,0.112 0.608,0.18 M 76.015,-270.74 c -0.384,0.327 -0.656,0.68 -0.774,0.635 -0.237,-0.092 -0.435,-0.381 -0.552,-0.633 -0.035,-0.076 0.26,-0.44 0.382,-0.428 0.254,0.023 0.493,0.208 0.944,0.426 m -139.869,6.322 c -0.146,-0.78 -0.212,-1.135 -0.278,-1.49 0.313,-0.031 0.625,-0.063 1.156,-0.115 -0.302,0.551 -0.476,0.869 -0.878,1.605 m 59.703,-154.045 c -0.244,0.188 -0.411,0.416 -0.569,0.409 -0.16,-0.007 -0.31,-0.246 -0.464,-0.383 0.131,-0.141 0.265,-0.399 0.392,-0.395 0.185,0.005 0.364,0.198 0.641,0.369 m 55.247,149.554 c -0.094,-0.156 -0.189,-0.314 -0.283,-0.47 0.296,-0.178 0.583,-0.375 0.898,-0.509 0.039,-0.016 0.222,0.312 0.338,0.48 -0.317,0.166 -0.635,0.333 -0.953,0.499 m -199.924,224.365 c 0.132,-0.043 0.264,-0.085 0.396,-0.127 0.09,0.428 0.179,0.856 0.268,1.284 -0.075,0.011 -0.15,0.021 -0.225,0.031 -0.147,-0.396 -0.293,-0.792 -0.439,-1.188 m 131.84,-379.112 c -0.109,0.183 -0.218,0.367 -0.327,0.55 -0.443,-0.282 -0.886,-0.563 -1.329,-0.844 0.1,-0.16 0.199,-0.32 0.297,-0.481 0.453,0.258 0.907,0.517 1.359,0.775 m 301.442,99.387 c -0.495,0.18 -0.771,0.379 -0.908,0.309 -0.306,-0.156 -0.552,-0.438 -0.784,-0.703 -0.02,-0.023 0.312,-0.451 0.369,-0.428 0.311,0.133 0.588,0.347 1.323,0.822 m -318.807,68.217 c -0.394,-0.361 -0.71,-0.517 -0.742,-0.718 -0.034,-0.217 0.196,-0.477 0.311,-0.718 0.238,0.16 0.557,0.273 0.684,0.496 0.084,0.147 -0.109,0.452 -0.253,0.94 m 206.535,-79.828 c 0.402,0.327 0.623,0.507 0.844,0.687 -0.189,0.191 -0.356,0.494 -0.574,0.536 -0.168,0.032 -0.502,-0.226 -0.572,-0.422 -0.06,-0.168 0.15,-0.433 0.302,-0.801 M 286.41,-68.603 c -0.401,0.252 -0.676,0.473 -0.988,0.588 -0.079,0.03 -0.282,-0.273 -0.428,-0.422 0.256,-0.23 0.493,-0.492 0.784,-0.665 0.064,-0.038 0.316,0.243 0.632,0.499 m -376.882,53.79 c 0.22,0.418 0.473,0.682 0.425,0.866 -0.056,0.213 -0.377,0.356 -0.584,0.53 -0.177,-0.219 -0.469,-0.427 -0.494,-0.662 -0.018,-0.171 0.319,-0.378 0.653,-0.734 m 373.336,-57.092 c -0.178,-0.021 -0.357,-0.043 -0.535,-0.065 0.089,-0.343 0.177,-0.687 0.266,-1.03 0.09,0.024 0.179,0.049 0.269,0.073 z M -4.341,-213.819 c 0.014,-0.201 0.029,-0.402 0.044,-0.603 0.42,0.023 0.841,0.032 1.255,0.096 0.026,0.004 -0.009,0.415 -0.016,0.638 -0.427,-0.044 -0.856,-0.087 -1.283,-0.131 m 347.695,108.355 c -0.065,0.115 -0.13,0.231 -0.196,0.346 -0.278,-0.13 -0.568,-0.241 -0.82,-0.41 -0.033,-0.023 0.128,-0.335 0.198,-0.513 0.273,0.192 0.545,0.385 0.818,0.577 M 32.221,-386.604 c 0.873,0.823 0.873,0.823 0.574,1.766 -0.23,-0.709 -0.402,-1.237 -0.574,-1.766 M 63,-262.677 c -0.699,0.38 -1.056,0.574 -1.558,0.847 0.272,-1.175 0.272,-1.175 1.558,-0.847 m 88.183,-91.628 c -0.12,0.208 -0.241,0.417 -0.361,0.626 -0.346,-0.241 -0.694,-0.482 -1.041,-0.723 0.136,-0.171 0.344,-0.509 0.397,-0.487 0.353,0.152 0.674,0.38 1.005,0.584 M -69.325,26.832 c 0.062,-0.137 0.124,-0.274 0.186,-0.41 0.351,0.163 0.702,0.327 1.053,0.491 -0.085,0.18 -0.17,0.36 -0.256,0.541 -0.327,-0.207 -0.655,-0.415 -0.983,-0.622 m 256.376,-405.616 c -0.538,-0.642 -0.838,-0.842 -0.873,-1.081 -0.041,-0.281 0.148,-0.596 0.238,-0.897 0.138,0.018 0.275,0.035 0.413,0.052 0.053,0.463 0.107,0.927 0.222,1.926 m 173.335,269.354 c -0.396,0.242 -0.639,0.502 -0.869,0.492 -0.159,-0.008 -0.45,-0.423 -0.412,-0.599 0.047,-0.215 0.366,-0.499 0.582,-0.513 0.18,-0.011 0.383,0.323 0.699,0.62 M 89.699,11.267 c -0.02,0.128 -0.041,0.257 -0.062,0.386 -0.192,0.018 -0.384,0.042 -0.576,0.053 -0.523,0.027 -0.986,-0.098 -0.603,-0.706 0.077,-0.123 0.811,0.167 1.241,0.267 M -67.662,-177.158 c 0.204,-0.483 0.409,-0.965 0.736,-1.738 0.801,1.231 0.377,1.625 -0.736,1.738 m 47.085,-270.317 c 0.071,0.172 0.143,0.344 0.214,0.516 -0.496,0.196 -0.992,0.393 -1.489,0.59 -0.063,-0.15 -0.127,-0.299 -0.19,-0.447 0.488,-0.22 0.977,-0.44 1.465,-0.659 m -150.075,399.821 c -0.275,-0.644 -0.454,-1.064 -0.735,-1.724 0.671,0.093 1.068,0.148 1.673,0.232 -0.347,0.552 -0.574,0.913 -0.938,1.492 m 325.813,-310.521 c 0.109,0.657 0.185,1.118 0.296,1.786 -1.448,-0.442 -1.259,-0.948 -0.296,-1.786 m -192.087,64.133 c 0.172,0.068 0.344,0.137 0.516,0.205 -0.15,0.412 -0.291,0.829 -0.475,1.226 -0.011,0.022 -0.385,-0.124 -0.59,-0.192 0.183,-0.413 0.366,-0.826 0.549,-1.239 M 52.29,-344.08 c 0.078,-0.138 0.155,-0.274 0.233,-0.411 l 1.056,0.237 c -0.139,0.38 -0.277,0.759 -0.496,1.36 -0.375,-0.562 -0.584,-0.874 -0.793,-1.186 m -135.778,44.994 c 0.187,-0.094 0.374,-0.186 0.56,-0.279 0.141,0.381 0.282,0.761 0.423,1.141 -0.152,0.063 -0.303,0.124 -0.454,0.187 z m 228.863,-98.026 c -0.347,-0.745 -0.607,-1.039 -0.546,-1.236 0.09,-0.294 0.405,-0.519 0.625,-0.773 0.104,0.053 0.208,0.106 0.311,0.16 -0.093,0.443 -0.186,0.886 -0.39,1.849 M 12.32,-398.665 c -1.205,-0.854 -1.205,-0.854 0.085,-1.459 -0.029,0.501 -0.054,0.934 -0.085,1.459 m -18.099,64.04 c 0.099,0.066 0.197,0.133 0.295,0.198 -0.261,0.387 -0.521,0.774 -0.782,1.16 -0.223,-0.232 -0.447,-0.464 -0.783,-0.814 0.569,-0.243 0.92,-0.394 1.27,-0.544 m 125.819,1.982 c -0.17,0.918 -0.247,1.335 -0.38,2.052 -0.482,-0.517 -0.77,-0.827 -1.154,-1.239 0.454,-0.24 0.781,-0.413 1.534,-0.813 m 158.068,4.68 c 0.111,-0.139 0.221,-0.278 0.331,-0.417 0.394,0.347 0.788,0.693 1.181,1.039 -0.088,0.111 -0.176,0.221 -0.264,0.332 -0.416,-0.318 -0.832,-0.636 -1.248,-0.954 m -48.038,264.05 c -0.12,0.15 -0.239,0.301 -0.358,0.451 -0.327,-0.256 -0.654,-0.512 -0.983,-0.767 0.095,-0.118 0.189,-0.236 0.283,-0.354 0.352,0.223 0.706,0.447 1.058,0.67 m 72.734,-23.302 c 1.087,0.882 0.668,1.349 -0.138,1.787 0.038,-0.493 0.076,-0.986 0.138,-1.787 m 24.113,-9.495 -0.237,0.78 c -0.381,-0.159 -0.78,-0.289 -1.128,-0.501 -0.07,-0.042 0.049,-0.395 0.08,-0.604 0.429,0.108 0.856,0.216 1.285,0.325 m -49.464,-230.072 c -0.358,0.246 -0.628,0.567 -0.814,0.524 -0.237,-0.054 -0.405,-0.404 -0.602,-0.628 0.259,-0.227 0.518,-0.456 0.777,-0.684 0.178,0.219 0.357,0.439 0.639,0.788 M 4.862,-216.389 c -0.372,0.3 -0.594,0.48 -0.816,0.66 l -0.722,-1.017 c 0.239,-0.143 0.526,-0.446 0.704,-0.392 0.277,0.084 0.481,0.411 0.834,0.749 m 167.877,-172.011 -0.372,-0.009 c -0.029,-0.416 -0.058,-0.832 -0.087,-1.248 0.205,0.003 0.411,0.007 0.616,0.01 -0.052,0.415 -0.104,0.831 -0.157,1.247 m -323.53,331.484 c 0.016,0.148 0.031,0.296 0.046,0.444 -0.391,0.11 -0.782,0.22 -1.173,0.329 -0.101,-0.366 -0.202,-0.731 -0.339,-1.233 0.651,0.204 1.058,0.332 1.466,0.46 M 26.28,-369.378 c -0.096,-0.201 -0.192,-0.401 -0.288,-0.601 0.391,-0.179 0.777,-0.371 1.18,-0.51 0.031,-0.01 0.191,0.353 0.291,0.543 -0.395,0.189 -0.789,0.379 -1.183,0.568 m -66.633,-53.492 c 0.088,0.248 0.175,0.496 0.263,0.743 -0.466,0.126 -0.932,0.251 -1.398,0.376 -0.056,-0.216 -0.194,-0.603 -0.155,-0.622 0.414,-0.2 0.856,-0.341 1.29,-0.497 m 5.594,-5.966 c 0.011,-0.139 0.023,-0.276 0.034,-0.415 0.512,0.028 1.023,0.058 1.535,0.086 -0.015,0.158 -0.029,0.316 -0.042,0.475 -0.509,-0.049 -1.018,-0.097 -1.527,-0.146 m 311.772,103.481 c -0.054,0.276 -0.108,0.552 -0.161,0.828 -0.418,-0.104 -0.84,-0.197 -1.246,-0.336 -0.025,-0.01 0.071,-0.565 0.12,-0.567 0.427,-0.013 0.858,0.041 1.287,0.075 M -22.505,11.394 c -0.609,0.554 0.007,2.064 -1.575,2.184 0.052,-1.127 0.597,-1.768 1.575,-2.184 m 238.219,-325.968 c 0.231,0.613 0.378,1.004 0.584,1.55 -0.596,0.05 -1.01,0.086 -1.679,0.142 0.419,-0.646 0.692,-1.068 1.095,-1.692 m -293.315,131.483 c -0.445,0.352 -0.732,0.714 -1.087,0.801 -0.17,0.041 -0.71,-0.528 -0.659,-0.665 0.135,-0.368 0.457,-0.721 0.798,-0.923 0.098,-0.058 0.511,0.415 0.948,0.787 M 28.042,-389.019 c -0.886,-0.99 -0.222,-1.426 0.563,-1.84 -0.187,0.613 -0.375,1.226 -0.563,1.84 M 242.338,-7.103 c -0.186,1.068 -0.282,1.625 -0.424,2.44 -1.213,-1.057 -0.649,-1.53 0.424,-2.44 M -29.577,-420.519 c -0.348,-1.844 -0.348,-1.844 1.289,-1.407 -0.389,0.425 -0.731,0.799 -1.289,1.407 m 290.863,391.856 c 0.521,-0.455 1.011,-0.733 1.49,-0.035 0.078,0.114 -0.021,0.486 -0.154,0.586 -0.685,0.516 -1.067,0.175 -1.336,-0.551 m -285.571,-399.37 c -0.045,-0.801 -0.068,-1.225 -0.097,-1.766 1.026,0.805 1.026,0.805 0.097,1.766 M 271.44,-50.782 c -0.605,-0.799 -1.003,-1.135 -1.101,-1.545 -0.042,-0.172 0.554,-0.496 1.101,-0.953 z m -15.267,-275.84 c -0.218,1.849 -0.218,1.849 -1.591,1.047 0.542,-0.357 1.015,-0.668 1.591,-1.047 M -86.813,-3.781 h -2.16 c 0.34,-0.605 0.575,-1.026 0.907,-1.618 0.441,0.57 0.748,0.965 1.253,1.618 m 61.966,-195.66 c 0.429,-0.842 0.662,-1.302 1.017,-1.997 0.396,0.659 0.653,1.085 1.017,1.688 -0.706,0.107 -1.2,0.183 -2.034,0.309 m 340.052,102.76 c 0.317,-0.485 0.636,-0.97 1.174,-1.791 0.44,1.419 0.506,2.136 -1.174,1.791 m -357.717,-344.97 c -1.457,1.794 -1.457,1.794 -2.049,0.306 0.696,-0.104 1.373,-0.205 2.049,-0.306 m 15.251,58.766 c 0.341,-0.873 0.558,-1.429 0.776,-1.987 0.304,0.183 0.774,0.296 0.883,0.56 0.404,0.974 -0.283,1.21 -1.659,1.427 m 78.234,7.136 c -0.778,0.226 -1.357,0.393 -2.079,0.603 0.453,-1.661 0.453,-1.661 2.079,-0.603 m -17.77,-5.879 c 0.199,0.016 0.398,0.032 0.596,0.048 0.363,0.631 0.882,1.28 -0.307,1.773 -0.105,0.044 -0.278,-0.078 -0.595,-0.178 0.1,-0.534 0.203,-1.088 0.306,-1.643 m 20.026,131.433 c -0.824,0.563 -1.33,0.91 -2.262,1.548 0.27,-1.18 0.415,-1.813 0.594,-2.591 0.504,0.315 0.874,0.547 1.668,1.043 m -170.3,235.891 c -0.897,-0.503 -1.245,-0.977 -0.393,-1.591 0.247,-0.178 0.656,-0.131 1.33,-0.244 -0.408,0.799 -0.657,1.285 -0.937,1.835 m 97.136,-402.343 c 0.766,0.385 1.778,0.381 2.425,1.581 -1.572,0.265 -2.003,-0.65 -2.425,-1.581 m 34.791,63.869 c -0.06,-0.17 -0.12,-0.34 -0.181,-0.51 0.222,-0.205 0.439,-0.414 0.667,-0.612 0.207,-0.179 0.425,-0.346 0.709,-0.577 0.254,0.39 0.416,0.638 0.735,1.127 -0.76,0.226 -1.345,0.399 -1.93,0.572 m 97.031,-9.775 c -0.741,0.832 -1.334,0.986 -1.986,0.276 0.457,-1.366 1.059,-1.343 1.986,-0.276 m 145.242,343.742 c 0.781,1.546 0.781,1.546 -0.586,2.019 -0.367,-0.752 -0.502,-1.43 0.586,-2.019 m -360.358,-14.037 c -0.701,0.537 -1.042,0.963 -1.458,1.056 -0.239,0.053 -0.599,-0.433 -0.904,-0.675 0.268,-0.311 0.488,-0.789 0.819,-0.885 0.313,-0.09 0.742,0.22 1.543,0.504 m -35.798,-2.192 c -0.366,-2.421 -0.354,-2.434 1.419,-2.074 -0.401,0.586 -0.761,1.112 -1.419,2.074 M 298.24,-93.393 c 0.472,-0.817 0.755,-1.308 1.079,-1.869 0.953,1.325 0.953,1.325 -1.079,1.869 M -25.68,-437.528 c 0.189,0.087 0.378,0.173 0.567,0.259 -0.114,0.639 -0.227,1.277 -0.425,2.391 -0.687,-0.896 -1.033,-1.348 -1.426,-1.859 0.534,-0.329 0.909,-0.56 1.284,-0.791 m -2.984,-13.052 c -0.305,0.575 -0.658,1.161 -1.503,1.017 -0.178,-0.031 -0.458,-0.531 -0.396,-0.716 0.285,-0.86 0.946,-0.905 1.688,-0.601 0.056,0.024 0.084,0.115 0.211,0.3 m 48.6,61.392 c -1.107,-1.581 -1.107,-1.581 0.582,-1.944 -0.22,0.733 -0.401,1.338 -0.582,1.944 m -49.537,230.486 c -0.841,-0.064 -1.436,-0.108 -2.03,-0.153 0.04,-0.427 -0.073,-1.101 0.147,-1.237 0.847,-0.525 1.48,-0.212 1.883,1.39 m 299.293,-165.219 c -0.222,-1.041 -1.327,-1.526 -0.602,-2.904 0.656,0.648 1.155,1.141 1.703,1.683 -0.405,0.45 -0.65,0.721 -1.101,1.221 M -32.007,-435.363 c 0.594,-0.098 1.009,-0.165 1.56,-0.255 0.05,0.95 0.184,1.743 -0.879,2.484 -0.257,-0.841 -0.445,-1.459 -0.681,-2.229 m -48.662,138.576 c 0.529,-1.005 0.942,-1.792 1.449,-2.756 0.467,2.702 0.268,3.08 -1.449,2.756 m 7.59,-10.725 c 0.583,1.838 0.417,2.135 -1.509,2.803 0.552,-1.025 0.959,-1.78 1.509,-2.803 m 78.15,-106.561 c -0.785,-0.766 -1.219,-1.19 -1.802,-1.758 0.664,-0.411 1.125,-0.696 1.802,-1.115 z m -46.449,-18.258 c 0.491,0.128 0.892,0.109 1.035,0.293 0.351,0.451 0.633,0.977 0.826,1.515 0.044,0.122 -0.545,0.62 -0.572,0.598 -0.455,-0.355 -0.94,-0.716 -1.259,-1.183 -0.168,-0.246 -0.03,-0.703 -0.03,-1.223 m 337.2,349.607 c -0.381,0.733 -0.551,1.27 -0.897,1.648 -0.197,0.217 -0.797,0.348 -1.005,0.208 -0.328,-0.224 -0.6,-0.692 -0.654,-1.089 -0.026,-0.188 0.474,-0.56 0.794,-0.656 0.43,-0.129 0.917,-0.071 1.762,-0.111 M 66.47,71.384 c -1.055,1.179 -1.846,0.72 -2.677,-0.054 1.229,-1.488 1.229,-1.488 2.677,0.054 M -168.279,-62.739 c 0.948,-0.65 1.698,-1.165 2.449,-1.68 0.143,0.143 0.285,0.285 0.427,0.428 -0.459,0.732 -0.918,1.465 -1.429,2.28 -0.53,-0.377 -0.893,-0.635 -1.447,-1.028 M 88.272,56.559 c 0.87,0.299 1.532,0.446 2.1,0.762 0.232,0.128 0.436,0.7 0.334,0.929 -0.111,0.249 -0.612,0.498 -0.906,0.46 -0.929,-0.119 -1.591,-0.596 -1.528,-2.151 m -126.6,-493.878 c 0.96,0.958 1.538,1.534 2.243,2.236 -2.375,0.77 -2.457,0.697 -2.243,-2.236 m 324.439,333.605 c -0.229,-1.03 -0.282,-1.878 0.884,-2.106 0.232,-0.045 0.794,0.496 0.843,0.821 0.202,1.343 -0.714,1.294 -1.727,1.285 M 88.684,59.453 c -0.276,0.573 -0.508,1.054 -0.922,1.912 -0.457,-1.239 -1.812,-1.403 -1.614,-2.802 0.874,0.307 1.591,0.558 2.536,0.89 m 162.248,-88.516 c -0.937,0.295 -1.56,0.546 -2.206,0.661 -0.189,0.033 -0.572,-0.285 -0.637,-0.51 -0.068,-0.225 0.065,-0.652 0.256,-0.787 0.784,-0.558 1.573,-0.62 2.587,0.636 m -269.86,-398.905 c 0.198,0.719 0.395,1.439 0.595,2.166 -0.701,0.366 -1.279,1.084 -1.881,0.135 -0.751,-1.185 0.675,-1.507 1.286,-2.301 m 276.767,92.058 c 0.341,0.234 0.809,0.558 1.247,0.86 -0.86,2.032 -0.86,2.032 -2.172,1.778 0.288,-0.822 0.581,-1.658 0.925,-2.638 M 14.401,-397.451 c 2.669,-1.066 2.853,-0.98 2.355,0.793 -0.791,-0.267 -1.573,-0.529 -2.355,-0.793 m -164.172,351.412 c -0.583,1.057 -1.174,1.812 -2.369,1.68 -0.159,-0.017 -0.449,-0.576 -0.373,-0.716 0.518,-0.949 1.21,-1.646 2.742,-0.964 m 106.657,-127.409 c 1.066,1.104 0.688,1.917 -0.16,2.717 -1.665,-1.224 -1.665,-1.224 0.16,-2.717 m 18.928,-257.527 c -0.804,0.544 -1.609,1.087 -2.52,1.703 -0.135,-2.396 -0.033,-2.483 2.52,-1.703 m 6.563,10.542 c -0.736,0.574 -0.901,0.778 -1.109,0.841 -0.194,0.06 -0.51,0.053 -0.642,-0.067 -0.994,-0.906 -1.028,-2.069 -0.983,-3.288 2.124,-0.05 0.3,2.7 2.734,2.514 m 286.384,355.884 c -0.557,-0.119 -0.953,-0.086 -1.146,-0.269 -0.477,-0.452 -0.879,-0.992 -1.251,-1.537 -0.031,-0.045 0.369,-0.545 0.61,-0.585 0.93,-0.156 1.499,0.371 1.773,1.207 0.09,0.272 0.014,0.599 0.014,1.184 M -25.116,-438.748 c 1.228,-1.318 1.228,-1.318 3.368,0.671 -1.203,0.175 -2.356,0.806 -3.368,-0.671 m 380.304,325.413 c -0.644,0.719 -1.133,1.546 -2.145,0.955 -0.231,-0.135 -0.307,-0.896 -0.154,-1.233 0.193,-0.429 0.692,-0.72 1.145,-1.152 0.445,0.55 0.772,0.956 1.154,1.43 M -12.445,-433.404 c -0.989,-0.429 -2.44,-0.467 -2.232,-1.893 0.181,-1.244 1.455,-0.723 2.232,-0.761 z M 2.961,5.829 C 0.946,6.25 -0.038,4.788 -1.481,4.35 -0.15,2.737 0.827,5.015 2.034,4.507 2.127,4.467 2.574,5.266 2.961,5.829 m 93.9,19.563 c 1.013,-0.89 1.767,-1.552 2.521,-2.214 l 0.57,0.232 c 0.005,0.526 0.22,1.202 -0.028,1.547 -0.593,0.827 -1.428,1.403 -3.063,0.435 M 79.849,75.756 c -1.083,0.528 -1.766,0.961 -2.511,1.177 -0.343,0.099 -0.981,-0.11 -1.179,-0.394 -0.268,-0.383 -0.347,-0.984 -0.29,-1.466 0.024,-0.194 0.679,-0.515 0.953,-0.439 0.96,0.267 1.878,0.682 3.027,1.122 M -11.03,-4.133 c 1.267,0.656 1.247,1.576 1.083,2.368 -0.073,0.349 -0.797,0.822 -1.164,0.774 -0.333,-0.045 -0.854,-0.751 -0.811,-1.109 0.075,-0.635 0.514,-1.227 0.892,-2.033 m -14.519,-356.396 c -0.473,0.667 -0.704,1.364 -1.137,1.527 -0.997,0.376 -2.001,0.239 -2.604,-0.832 0.859,-1.429 0.859,-1.429 3.741,-0.695 m 348.872,267.095 c -0.414,-1.434 -0.728,-2.522 -1.043,-3.609 0.177,-0.105 0.353,-0.211 0.53,-0.316 0.813,0.703 1.627,1.405 2.586,2.233 -0.781,0.637 -1.309,1.068 -2.073,1.692 M -31.215,-425.175 c 0.657,-0.082 1.136,-0.11 1.601,-0.207 1.202,-0.248 1.757,0.311 1.349,1.466 -0.163,0.462 -0.537,0.849 -0.973,1.511 -0.638,-1.177 -2.332,-1.179 -1.977,-2.77 m -10.096,-7.943 c -0.768,0.275 -1.653,0.394 -2.279,0.861 -1.163,0.867 -1.751,0.154 -2.654,-0.538 1.651,-1.479 3.302,-0.535 4.933,-0.323 m 337.258,251.822 c -1.172,0.808 -1.883,1.44 -2.708,1.824 -0.737,0.343 -1.689,-0.444 -1.349,-1.04 0.361,-0.634 1.047,-1.083 1.517,-1.541 0.798,0.238 1.401,0.417 2.54,0.757 M 116.232,-450.93 c 0.376,0.913 0.717,1.65 0.983,2.412 0.351,1.005 -0.016,1.702 -1.309,2.452 0.542,-1.896 0.175,-3.144 -1.384,-3.94 0.741,-0.4 1.276,-0.689 1.71,-0.924 m 142.054,405.351 c -2.025,-0.673 -2.481,-1.082 -3.2,-2.881 0.596,-0.658 1.191,-0.918 2.043,-0.299 1.136,0.824 1.654,1.797 1.157,3.18 M -26.918,-412.658 c -0.78,0.373 -1.514,0.911 -2.32,1.062 -0.99,0.186 -1.844,-0.213 -2.058,-1.495 0.93,-0.657 2.157,-0.03 3.043,-1.031 0.584,-0.659 1.318,0.085 1.335,1.464 m -117.694,382.664 c 1.378,1.04 2.826,1.884 2.795,3.917 -2.516,-0.291 -3.442,-1.561 -2.795,-3.917 M 71.897,69.163 c -1.941,0.187 -1.909,-1.231 -2.092,-2.315 -0.196,-1.157 0.674,-1.533 1.721,-1.932 0.156,1.508 1.449,2.673 0.371,4.247 m 20.064,-543.902 c 0.197,0.622 0.644,1.287 0.467,1.62 -0.507,0.955 -0.62,2.469 -2.418,2.247 -0.299,-0.734 -0.61,-1.497 -0.917,-2.252 0.935,-0.526 1.748,-0.985 2.868,-1.615 m 206.53,396.119 c -0.32,0.033 -1.022,0.322 -1.477,0.101 -0.792,-0.384 -1.066,-1.263 -0.577,-2.05 0.54,-0.867 -0.525,-2.687 1.537,-2.63 0.121,0.003 0.238,0.185 0.243,0.189 0.092,1.463 0.177,2.828 0.274,4.39 M 89.312,54.34 C 88.12,52.426 89,50.847 89.738,49.193 c 1.159,0.832 1.084,0.844 1.235,1.802 0.219,1.393 -0.061,2.501 -1.661,3.345 M -27.571,-428.441 c 2.204,0.46 2.05,3.439 4.54,3.268 -0.45,0.619 -0.712,0.979 -0.963,1.325 -2.692,-1.048 -3.852,-2.482 -3.577,-4.593 m 55.621,47.266 c -0.886,-0.227 -2.112,-0.226 -1.738,-1.466 0.439,-1.458 1.223,-2.811 2.044,-4.624 0.451,0.772 0.987,1.414 0.88,1.549 -1.066,1.344 -0.466,3.048 -1.186,4.541 m 69.584,428.09 c 1.602,-0.738 2.749,-0.669 3.821,-0.023 0.355,0.213 0.84,0.757 0.769,1.011 -0.13,0.465 -0.601,1.131 -0.983,1.167 -0.825,0.079 -1.771,-0.013 -2.5,-0.373 -0.488,-0.241 -0.687,-1.065 -1.107,-1.782 M 286.449,-71.833 c -0.105,-1.885 -0.197,-3.531 -0.3,-5.371 1.613,0.585 2.484,1.159 2.475,2.789 -0.008,1.375 -0.52,2.052 -2.175,2.582 m -345.487,-99.735 c -1.06,-2.093 -1.06,-2.093 2.017,-2.747 0.265,-0.628 0.441,-1.315 0.816,-1.868 0.472,-0.698 1.118,-1.164 2.071,0.029 -1.682,1.387 -2.32,3.819 -4.904,4.586 M 274.368,-53.92 c -0.956,-2.45 -0.047,-4.278 2.219,-4.712 0.936,-0.179 1.561,0.4 1.413,1.308 -0.225,1.373 -1.9,2.995 -3.632,3.404 M 89.234,18.669 c 1.344,-0.596 2.544,-1.128 3.864,-1.714 -0.212,1.185 -0.212,1.185 -1.75,2.267 1.415,2.271 1.415,2.271 -0.889,4.256 -1.357,-1.306 -1.166,-2.992 -1.225,-4.809 m 116.67,-254.162 c 0.16,1.711 -0.595,2.757 -1.333,3.77 -2.242,3.085 -3.408,6.444 -2.79,10.295 0.038,0.237 0.062,0.477 0.074,0.716 0.215,4.22 1.617,8.097 3.627,11.739 0.833,1.507 1.87,3.039 3.178,4.117 2.507,2.063 5.209,3.913 7.952,5.661 3.076,1.961 6.277,3.729 9.819,4.767 0.668,0.196 1.47,0.36 1.187,1.508 -0.243,0.08 -0.551,0.296 -0.812,0.25 -3.369,-0.599 -6.833,-0.793 -10,-2.282 -0.72,-0.339 -1.461,-0.63 -2.181,-0.968 -3.025,-1.42 -6.134,-2.694 -9.032,-4.337 -1.622,-0.919 -3.157,-2.259 -4.271,-3.753 -2.27,-3.047 -4.022,-6.276 -4.815,-10.221 -0.737,-3.667 -0.339,-6.898 0.652,-10.306 1.305,-4.483 4.372,-7.659 7.613,-10.733 0.183,-0.173 0.579,-0.123 1.132,-0.223 m 137.272,103.765 c -0.28,-0.133 -0.575,-0.174 -0.678,-0.337 -2.246,-3.545 -4.052,-7.213 -3.73,-11.614 0.138,-1.89 0.054,-3.81 -0.088,-5.704 -0.289,-3.842 1.947,-5.869 5.65,-5.561 1.327,0.111 2.624,0.59 3.936,0.897 4.171,0.976 8.343,1.942 12.51,2.935 0.617,0.147 1.24,0.354 1.795,0.653 3.08,1.653 6.47,2.288 9.842,2.871 5.024,0.869 7.071,-0.215 9.595,-4.661 0.078,-0.139 0.097,-0.328 0.205,-0.43 0.37,-0.349 0.766,-0.67 1.153,-1.001 0.261,0.517 0.78,1.059 0.736,1.549 -0.176,1.903 -0.385,3.828 -0.88,5.666 -0.268,0.996 -0.93,2.216 -1.773,2.668 -2.722,1.462 -5.654,2.295 -8.657,0.68 -1.8,-0.968 -3.702,-1.411 -5.718,-1.563 -0.943,-0.071 -2.051,-0.071 -2.776,-0.559 -3.444,-2.317 -7.419,-2.861 -11.329,-3.576 -2.123,-0.388 -4.386,-0.429 -6.263,0.814 -1.991,1.318 -3.246,3.302 -3.56,5.716 -0.318,2.433 -0.63,4.857 0.32,7.292 0.374,0.957 1.004,2.263 -0.29,3.265 m -118.999,19.971 c -0.394,0.999 -0.874,1.923 -1.12,2.904 -0.559,2.234 -1.144,2.594 -3.31,1.621 -4.348,-1.954 -8.974,-2.616 -13.655,-3.005 -0.685,-0.056 -1.409,0.134 -2.09,0.31 -1.61,0.414 -3.214,0.859 -4.8,1.358 -0.416,0.131 -0.829,0.44 -1.119,0.775 -3.488,4.026 -8.223,6.158 -12.844,8.446 -1.71,0.847 -3.494,1.547 -5.262,2.267 -2.61,1.064 -5.326,2 -8.145,1.527 -4.249,-0.714 -8.457,-1.69 -12.652,-2.68 -1.04,-0.245 -2.007,-0.91 -2.93,-1.502 -0.859,-0.553 -1.567,-1.341 -2.426,-1.893 -3.413,-2.198 -6.855,-4.33 -9.743,-7.255 -2.345,-2.376 -4.937,-4.511 -7.26,-6.907 -1.923,-1.985 -3.855,-4.039 -5.349,-6.344 -2.199,-3.391 -4.055,-7.01 -5.972,-10.577 -1.127,-2.1 -1.449,-4.351 -0.536,-6.64 0.9,-2.257 0.472,-3.342 -1.764,-4.581 -1.164,-0.645 -2.233,-1.46 -3.386,-2.128 -0.868,-0.504 -1.657,-1.027 -2.861,-0.893 -0.983,0.11 -2.432,-0.218 -3.008,-0.909 -1.879,-2.25 -3.656,-4.658 -4.216,-7.657 -0.347,-1.863 1.016,-3.062 2.871,-2.572 0.687,0.181 1.34,0.506 1.989,0.807 2.589,1.202 5.168,2.424 7.757,3.627 0.722,0.336 1.576,0.492 2.173,0.973 2.422,1.954 5.152,2.097 7.853,1.102 5.629,-2.075 11.503,-2.615 17.38,-2.767 2.955,-0.077 5.92,1.054 8.909,1.334 6.02,0.563 11.46,3.174 17.226,4.615 0.847,0.212 1.691,0.503 2.479,0.879 4.125,1.966 7.913,4.423 11.159,7.682 1.847,1.852 3.801,3.596 5.644,5.452 3.475,3.499 7.188,6.8 8.333,11.99 0.263,1.191 1.32,2.355 2.293,3.216 2.653,2.35 5.572,4.209 9.405,3.584 0.465,-0.075 0.963,0.077 1.436,0.028 3.325,-0.339 5.56,1.417 7.541,3.813 M -3.458,-420.258 c 1.689,-0.49 -0.038,-1.769 0.52,-2.532 2.659,1.126 2.659,1.126 2.311,2.814 -0.956,0.459 -1.676,0.806 -2.534,1.218 -0.105,-0.653 -0.177,-1.104 -0.25,-1.554 -0.461,-0.043 -0.922,-0.085 -1.383,-0.128 0.076,-0.197 0.18,-0.569 0.225,-0.562 0.376,0.058 0.747,0.168 1.102,0.31 0.052,0.02 0.008,0.283 0.009,0.434 m 288.982,355.401 c 1.297,1.197 1.297,1.197 0.782,3.619 0.618,-0.233 1.18,-0.275 1.462,-0.578 2.064,-2.219 4.163,-4.416 6.055,-6.777 0.828,-1.033 1.115,-2.428 2.184,-3.43 0.434,-0.409 0.095,-1.642 0.108,-2.559 0.708,0.292 1.541,0.637 2.312,0.955 0.523,-0.644 0.835,-1.42 1.35,-1.596 3.139,-1.067 5.407,-3.514 8.218,-5.09 0.399,-0.224 0.511,-0.885 1.236,-0.644 0.237,0.079 0.79,-0.09 0.837,-0.253 0.531,-1.794 2.297,-2.076 3.591,-2.75 1.701,-0.887 1.473,-3.096 3.813,-3.82 -2.476,-0.781 -1.967,-3.384 -3.925,-3.952 -1.122,1.784 -1.122,1.784 1.156,3.632 -0.677,0.65 -1.251,1.383 -1.987,1.874 -2.147,1.432 -2.172,1.394 -3.09,2.997 -1.268,-0.872 -1.3,-1.016 -0.405,-1.69 0.358,-0.271 1.037,-0.651 0.991,-0.84 -0.4,-1.636 0.891,-2.213 1.8,-2.944 -0.076,-0.255 -0.082,-0.429 -0.169,-0.539 -0.538,-0.689 -1.432,-1.49 -0.752,-2.278 0.529,-0.613 1.7,-1.097 2.489,-0.98 2.107,0.312 4.245,0.817 5.916,2.289 0.373,0.328 0.408,1.04 0.65,1.715 1.457,-0.215 0.537,-1.765 1.122,-2.601 0.726,-0.248 1.453,-0.497 2.248,-0.77 0.369,0.476 0.687,0.885 0.928,1.195 1.851,-0.275 3.572,-0.531 5.402,-0.802 v -2.655 c 0.99,0.44 1.717,0.763 2.616,1.162 1.244,-0.811 2.544,-2.244 4.008,-2.437 1.299,-0.172 2.361,-0.564 3.427,-1.116 2.832,-1.466 5.589,-3.08 8.46,-4.462 1.246,-0.599 2.68,-0.849 4.055,-1.123 2.934,-0.585 2.942,-0.551 3.92,-3.468 2.081,1.661 4.454,1.453 6.838,1.044 3.135,-0.537 6.257,-1.507 9.394,-1.553 2.085,-0.031 4.037,-0.336 6.043,-0.684 5.705,-0.986 10.406,-3.815 14.578,-7.694 0.905,-0.842 1.835,-1.758 2.925,-2.276 2.059,-0.977 3.568,-2.617 5.355,-3.909 1.221,-0.881 2.155,-1.865 2.771,-3.203 0.936,-2.033 2.141,-3.987 2.756,-6.113 0.814,-2.814 1.629,-5.762 1.626,-8.651 -0.007,-5.73 1.531,-10.86 4.555,-15.631 1.455,-2.296 2.996,-4.542 4.336,-6.902 0.692,-1.221 1.211,-2.608 1.482,-3.984 0.384,-1.942 0.519,-3.941 0.65,-5.923 0.051,-0.775 -0.004,-1.662 -0.337,-2.338 -1.33,-2.689 -2.685,-5.38 -5.334,-7.108 -0.919,-0.6 -1.741,-1.35 -2.598,-2.042 -2.278,-1.844 -5.234,-2.126 -7.768,-3.379 -3.053,-1.508 -6.43,-1.484 -9.684,-2.022 -4.281,-0.708 -8.568,-1.383 -12.862,-2.01 -1.25,-0.183 -2.547,-0.047 -3.793,-0.245 -1.962,-0.312 -3.881,-0.951 -5.849,-1.154 -5.627,-0.578 -11.269,-1.004 -16.904,-1.493 -2.528,-0.218 -5.054,-0.446 -7.582,-0.663 -0.315,-0.026 -0.634,-0.023 -0.951,-0.015 -2.381,0.06 -4.766,0.217 -7.147,0.169 -3.894,-0.078 -7.785,-0.288 -11.678,-0.439 -0.159,-0.006 -0.331,0.068 -0.476,0.029 -5.506,-1.476 -11.227,-1.019 -16.801,-1.881 -1.731,-0.267 -3.461,-0.595 -5.204,-0.724 -1.402,-0.103 -2.821,0.05 -4.234,0.102 -0.233,0.008 -0.474,0.157 -0.695,0.124 -1.771,-0.258 -3.531,-0.631 -5.31,-0.793 -1.25,-0.114 -2.533,-0.021 -3.788,0.1 -4.064,0.393 -8.112,0.419 -12.166,-0.157 -1.016,-0.145 -2.078,0.059 -3.114,0.005 -1.83,-0.099 -3.654,-0.321 -5.485,-0.405 -2.151,-0.097 -4.311,-0.22 -6.455,-0.112 -1.843,0.094 -3.613,0.358 -5.276,-0.816 -0.621,-0.439 -1.498,-0.688 -2.267,-0.709 -2.045,-0.056 -3.832,-0.899 -5.726,-1.491 -4.272,-1.334 -7.653,-3.836 -10.636,-7.094 -4.873,-5.325 -8.225,-11.371 -9.435,-18.547 -0.237,-1.407 -0.681,-2.782 -1.078,-4.157 -0.924,-3.192 -0.839,-6.453 -0.671,-9.711 0.039,-0.772 0.298,-1.586 0.657,-2.276 0.907,-1.74 1.776,-3.536 2.949,-5.091 1.181,-1.562 2.701,-2.871 4.091,-4.271 2.788,-2.805 6.443,-4.363 9.62,-6.611 0.87,-0.616 2.07,-0.932 3.153,-1.041 1.659,-0.168 2.996,-0.933 4.402,-1.69 2.167,-1.167 4.324,-2.45 6.64,-3.216 2.319,-0.765 4.827,-0.965 7.255,-1.393 0.627,-0.111 1.287,-0.071 1.9,-0.226 3.392,-0.85 6.749,-1.866 10.17,-2.578 2.949,-0.615 5.962,-0.945 8.957,-1.318 4.108,-0.513 8.232,-0.91 12.34,-1.438 1.326,-0.171 2.609,-0.659 3.931,-0.898 5.478,-0.991 11.095,-1.489 16.412,-3.027 6.504,-1.879 13.132,-2.466 19.764,-3.211 4.994,-0.562 9.967,-1.146 14.923,-2.04 3.549,-0.64 7.024,-1.391 10.457,-2.481 1.332,-0.423 2.836,-0.304 4.261,-0.437 3.47,-0.326 6.706,-1.332 9.597,-3.329 0.197,-0.135 0.413,-0.329 0.626,-0.336 3.454,-0.127 3.804,-3.042 4.826,-5.351 0.061,-0.141 0.028,-0.321 0.075,-0.472 1.083,-3.463 0.04,-6.137 -2.709,-8.476 -3.441,-2.927 -6.973,-5.638 -11.081,-7.59 -1.733,-0.823 -3.241,-2.109 -4.928,-3.047 -0.949,-0.528 -2.035,-0.846 -3.094,-1.134 -0.995,-0.271 -2.044,-0.334 -3.051,-0.567 -2.261,-0.525 -3.29,-2.297 -2.376,-4.468 0.512,-1.215 1.421,-2.287 2.266,-3.33 0.797,-0.983 1.732,-1.858 2.629,-2.757 2.25,-2.255 4.738,-4.21 7.828,-5.122 4.458,-1.316 8.069,-4.13 11.95,-6.475 0.539,-0.326 1.035,-0.944 1.587,-0.992 1.973,-0.173 3.123,-1.573 4.329,-2.788 2.644,-2.665 5.058,-5.561 7.753,-8.169 2.241,-2.165 4.397,-4.371 6.346,-6.808 3.675,-4.596 6.62,-9.535 7.925,-15.342 0.137,-0.613 0.378,-1.213 0.651,-1.78 1.33,-2.764 0.044,-7.114 -2.612,-8.575 -0.369,-0.203 -0.918,-0.178 -1.365,-0.12 -2.726,0.355 -4.705,2.053 -6.77,3.681 -2.552,2.013 -4.807,4.427 -7.746,5.927 -0.672,0.342 -1.405,0.564 -2.272,0.905 -0.526,-1.823 -0.447,-3.389 -0.371,-4.948 0.132,-2.698 0.471,-5.4 0.38,-8.089 -0.102,-3.02 -0.361,-6.072 -0.953,-9.029 -1.08,-5.39 -2.613,-10.669 -4.74,-15.765 -1.969,-4.72 -3.883,-9.465 -5.716,-14.238 -0.67,-1.747 -1.456,-3.303 -2.835,-4.637 -1.306,-1.262 -2.31,-2.831 -3.492,-4.229 -1.12,-1.324 -2.293,-2.604 -3.453,-3.894 -0.48,-0.533 -0.959,-1.071 -1.486,-1.556 -2.097,-1.932 -4.125,-3.957 -6.36,-5.719 -1.082,-0.853 -2.527,-1.571 -3.868,-1.694 -2.163,-0.197 -4.38,-0.911 -6.595,0.096 -0.652,0.297 -1.57,0.005 -2.366,-0.012 -2.2,-0.045 -3.831,1.193 -4.28,3.353 -0.828,3.984 -0.609,7.783 0.918,11.708 1.728,4.441 2.763,9.157 4.008,13.779 0.251,0.931 0.669,2.041 -0.465,3.091 -0.371,-0.316 -0.762,-0.628 -1.127,-0.968 -0.111,-0.102 -0.165,-0.274 -0.223,-0.422 -1.287,-3.317 -3.221,-6.189 -5.644,-8.807 -2.158,-2.328 -4.176,-4.804 -6.063,-7.357 -2.43,-3.286 -5.254,-6.201 -8.34,-8.81 -1.782,-1.506 -4.072,-2.416 -6.15,-3.564 -0.261,-0.145 -0.778,-0.26 -0.914,-0.124 -1.465,1.453 -3.429,-0.088 -4.952,0.867 -0.068,0.042 -0.133,0.09 -0.192,0.144 -0.73,0.67 -1.637,5.341 -1.288,6.357 0.596,1.731 1.07,3.506 1.728,5.212 0.676,1.757 1.511,3.453 2.276,5.177 1.225,2.76 2.446,5.519 3.672,8.277 0.355,0.801 0.747,1.587 1.071,2.4 0.221,0.551 0.353,1.137 0.613,2.007 -0.768,-0.095 -1.251,-0.036 -1.598,-0.225 -0.625,-0.342 -1.191,-0.806 -1.741,-1.267 -3.403,-2.85 -7.413,-3.561 -11.689,-3.351 -1.989,0.096 -2.877,1.139 -2.577,3.151 0.689,4.629 2.041,9.036 4.747,12.916 2.798,4.013 4.149,8.603 5.386,13.232 0.926,3.469 1.695,6.979 2.523,10.473 0.111,0.465 0.282,0.969 0.203,1.417 -0.52,2.996 0.665,5.824 0.801,8.748 0.078,1.669 0.05,3.345 0.005,5.016 -0.085,3.11 -0.269,6.218 -0.313,9.33 -0.042,2.984 -0.363,5.806 -2.14,8.403 -1.008,1.473 -1.399,3.353 -2.201,4.985 -1.879,3.829 -4.915,6.414 -8.974,7.644 -2.791,0.847 -5.48,2.089 -8.428,2.388 -0.704,0.072 -1.433,0.219 -2.116,0.11 -3.382,-0.539 -6.754,-1.143 -10.125,-1.746 -0.704,-0.126 -1.416,-0.283 -2.081,-0.539 -2.927,-1.126 -2.921,-1.142 -5.619,0.401 -0.61,-1.496 -1.55,-2.698 -3.263,-2.989 -0.313,-0.053 -0.734,-0.26 -0.924,-0.13 -1.485,1.022 -2.564,0.042 -3.83,-0.556 -1.338,-0.631 -2.856,-0.868 -4.256,-1.383 -1.678,-0.619 -3.314,-1.35 -4.967,-2.034 -0.149,-0.06 -0.292,-0.187 -0.438,-0.187 -3.815,0 -6.394,-3.107 -9.882,-3.926 -0.616,-0.144 -1.271,-0.221 -1.825,-0.496 -0.584,-0.291 -1.05,-0.808 -1.597,-1.18 -0.657,-0.446 -1.324,-0.885 -2.025,-1.255 -1.817,-0.957 -3.749,-1.731 -5.467,-2.838 -3.712,-2.392 -7.268,-5.025 -10.985,-7.409 -2.458,-1.576 -5.092,-2.878 -7.632,-4.328 -1.935,-1.104 -3.885,-2.191 -5.764,-3.388 -2.416,-1.539 -4.767,-3.181 -7.145,-4.78 -3.022,-2.033 -6.097,-3.983 -8.765,-6.51 -0.966,-0.916 -2.276,-1.461 -3.346,-2.283 -2.022,-1.55 -4.048,-3.107 -5.954,-4.796 -2.059,-1.822 -3.904,-3.889 -5.988,-5.681 -2.167,-1.864 -4.532,-3.496 -6.761,-5.29 -1.29,-1.036 -2.416,-2.281 -3.739,-3.27 -1.183,-0.884 -2.56,-1.506 -3.807,-2.311 -4.365,-2.815 -8.182,-6.32 -12.085,-9.708 -2.163,-1.878 -4.27,-3.825 -6.326,-5.821 -0.9,-0.874 -1.548,-2.004 -2.42,-2.915 -2.36,-2.463 -4.949,-4.729 -7.124,-7.343 -2.07,-2.489 -3.733,-5.316 -5.571,-7.997 -0.405,-0.592 -0.695,-1.297 -1.199,-1.78 -3.099,-2.959 -4.915,-6.853 -7.517,-10.168 -1.712,-2.18 -3.525,-4.282 -5.289,-6.423 -0.349,-0.423 -0.679,-0.863 -1.108,-1.409 -0.518,0.029 -1.122,0.063 -1.678,0.094 -0.13,-0.227 -0.293,-0.379 -0.267,-0.484 0.231,-0.914 -0.015,-1.608 -0.622,-2.371 -1.791,-2.255 -3.369,-4.681 -5.194,-6.906 -2.604,-3.175 -3.825,-7.09 -5.873,-10.559 -0.514,-0.872 -1.105,-1.356 -1.944,-1.897 -1.364,-0.88 -2.574,-2.112 -3.587,-3.401 -2.129,-2.709 -4.263,-5.362 -7.462,-6.897 -2.29,-1.098 -3.77,-0.396 -5.137,1.749 -2.063,3.241 -3.802,6.619 -5.314,10.134 -1.014,2.358 -1.73,4.788 -1.97,7.52 0.425,0.286 1.009,0.495 1.272,0.909 0.244,0.384 0.146,0.985 0.198,1.491 -0.423,-0.081 -0.854,-0.132 -1.263,-0.257 -0.189,-0.057 -0.335,-0.258 -0.749,-0.597 -0.038,0.652 -0.235,1.21 -0.046,1.419 0.298,0.328 0.541,0.368 0.096,0.817 -0.416,0.421 -0.712,1.02 -0.903,1.593 -0.627,1.874 -0.6,1.884 1.046,3.121 -1.514,0.49 -2.069,1.53 -1.759,3.288 0.612,-1.243 1.302,-0.934 2.111,-0.363 -0.377,1.482 -2.79,1.744 -2.1,3.705 0.325,0.921 0.621,1.851 0.923,2.756 0,1.752 -0.182,3.582 0.037,5.363 0.504,4.106 1.178,8.192 1.835,12.278 0.213,1.326 0.589,2.626 0.886,3.939 0.14,0.622 0.264,1.248 0.402,1.871 0.517,2.324 0.866,4.704 1.604,6.956 0.706,2.153 1.183,4.276 1.106,6.542 -0.017,0.529 0.19,1.094 0.401,1.598 0.707,1.684 1.661,3.287 1.555,5.212 -0.004,0.076 0.035,0.156 0.061,0.231 1.339,3.741 2.679,7.481 4.019,11.221 0.589,1.645 1.107,3.319 1.785,4.925 1.423,3.376 2.874,6.743 4.423,10.063 0.894,1.914 2.039,3.709 2.992,5.596 0.352,0.697 0.465,1.51 0.712,2.262 1.065,3.23 2.237,6.429 3.179,9.694 0.759,2.636 0.236,3.126 -2.166,4.425 -2.935,1.589 -5.458,0.576 -7.869,-0.908 -3.518,-2.165 -6.926,-4.513 -10.338,-6.846 -1.113,-0.761 -2.091,-1.721 -3.129,-2.593 -2.459,-2.069 -5.334,-3.442 -8.147,-4.929 -3.215,-1.7 -6.471,-3.343 -9.563,-5.249 -2.814,-1.734 -5.402,-3.83 -8.151,-5.674 -0.837,-0.561 -1.88,-0.813 -2.829,-1.207 -0.429,-0.179 -0.958,-0.255 -1.271,-0.555 -1.763,-1.685 -3.331,-3.611 -5.242,-5.098 -2.245,-1.746 -4.619,-3.502 -7.217,-4.574 -3.332,-1.376 -6.127,-3.309 -8.632,-5.802 -0.447,-0.446 -0.959,-0.828 -1.469,-1.203 -1.014,-0.746 -2.082,-1.423 -3.065,-2.208 -1.55,-1.239 -3.026,-2.572 -4.589,-3.793 -0.315,-0.246 -0.877,-0.176 -1.406,-0.264 -0.112,-0.628 0.561,-1.33 -0.312,-2.023 -3.491,-2.774 -6.195,-6.386 -9.866,-9.03 -2.296,-1.654 -4.102,-4.012 -6.024,-6.148 -0.673,-0.747 -1.264,-1.076 -2.584,-0.284 0.817,-1.922 0.03,-2.87 -1.249,-3.336 -0.764,-0.28 -0.976,-0.859 -1.43,-1.304 -0.466,-0.457 -1.138,-0.533 -1.112,-1.46 0.009,-0.36 -0.522,-0.75 -0.835,-1.102 -4.364,-4.919 -8.756,-9.813 -13.083,-14.764 -1.099,-1.258 -1.998,-2.692 -2.981,-4.05 -2.238,-3.092 -4.493,-6.093 -7.48,-8.619 -2.185,-1.848 -4.285,-3.8 -6.665,-5.4 -2.471,-1.663 -5.2,-1.889 -8.012,-1.063 -1.302,0.383 -1.566,1.146 -0.828,2.372 0.369,0.612 1.017,1.077 0.34,2.016 -0.594,-0.236 -1.23,-0.488 -1.9,-0.753 -2.064,2.126 -2.651,4.634 -2.034,7.126 -0.542,0.687 -1.194,1.135 -1.254,1.652 -0.547,4.676 -1.124,9.356 -1.413,14.052 -0.164,2.656 0.207,5.345 0.308,8.02 0.041,1.093 0.007,2.189 0.007,3.58 0.816,0.251 1.816,0.559 2.89,0.89 -0.163,1.183 -0.34,2.073 -1.698,2.308 -1.21,0.208 -1.651,1.161 -1.53,2.345 0.073,0.713 0.208,1.419 0.289,2.131 0.108,0.94 0.17,1.885 0.289,2.823 0.12,0.942 0.282,1.878 0.432,2.815 0.151,0.938 0.403,1.871 0.446,2.812 0.104,2.292 0.066,2.294 1.824,3.763 -0.749,1.69 -0.749,1.69 0.306,3.48 0.951,-0.675 1.827,-1.478 2.852,-1.974 1.004,-0.485 2.147,-0.818 3.253,-0.903 0.577,-0.045 1.206,0.587 1.86,0.938 -1.254,1.261 -3.586,1.745 -5.608,1.302 v 3.574 c -0.662,0.162 -1.249,0.307 -2.024,0.497 0.311,1.438 0.609,2.816 0.946,4.374 2.155,-2.874 3.006,-3.251 5.09,-2.076 -0.979,0.971 -1.888,1.874 -3.008,2.984 0.024,0.446 0.064,1.196 0.109,2.05 h 1.87 c 0.036,0.117 0.072,0.234 0.108,0.351 -0.807,0.31 -1.613,0.622 -2.453,0.946 -0.014,3.067 0.73,5.844 2.396,8.357 0.251,0.377 0.521,0.946 0.868,1.019 1,0.211 1.433,0.789 1.813,1.678 0.199,0.465 0.923,0.703 1.583,1.166 -0.382,0.362 -0.731,0.694 -1.22,1.158 0.559,0.978 1.169,2.043 1.864,3.26 -0.472,-0.142 -0.784,-0.236 -1.247,-0.375 -0.361,1.898 0.965,3.121 1.794,4.435 0.263,0.417 1.353,0.313 2.16,0.464 -0.153,0.214 -0.334,0.653 -0.661,0.887 -0.692,0.494 -0.595,1.088 -0.327,1.695 1.189,2.684 2.445,5.338 3.598,8.036 1.027,2.405 1.888,4.88 2.936,7.275 1.915,4.373 3.86,8.729 5.184,13.332 0.108,0.376 0.221,0.833 0.491,1.068 2.595,2.256 2.936,5.571 3.77,8.539 1.124,4.001 2.611,7.765 4.6,11.41 1.084,1.989 1.786,4.189 3.127,6.07 1.475,2.068 2.784,4.265 4.377,6.235 0.917,1.136 1.444,2.33 1.491,3.689 0.093,2.606 -0.441,3.463 -2.644,3.707 -2.055,0.226 -4.146,0.578 -6.185,0.417 -4.298,-0.34 -8.509,-1.071 -12.63,-2.605 -3.095,-1.152 -6.233,-2.531 -9.676,-2.56 -0.359,-0.003 -0.828,-0.174 -1.055,-0.435 -1.132,-1.299 -2.664,-1.648 -4.235,-2.023 -1.079,-0.259 -2.097,-0.769 -3.155,-1.124 -1.205,-0.405 -2.422,-0.769 -3.639,-1.135 -0.304,-0.091 -0.658,-0.054 -0.936,-0.187 -5.858,-2.783 -12.279,-3.911 -18.297,-6.242 -4.629,-1.793 -9.011,-4.037 -13.304,-6.485 -3.11,-1.775 -6.273,-3.479 -9.242,-5.47 -3.081,-2.066 -6.675,-2.868 -9.913,-4.491 -2.542,-1.275 -5.233,-1.858 -7.958,-2.414 -2.397,-0.49 -3.701,0.568 -4.071,3.034 -0.548,3.648 -0.512,7.27 0.246,10.874 0.324,1.543 0.78,3.059 1.19,4.585 0.804,2.997 1.578,6.003 2.439,8.983 0.683,2.367 1.454,4.71 2.231,7.049 0.724,2.181 1.484,4.35 2.276,6.507 0.301,0.819 0.769,1.575 1.102,2.384 1.277,3.103 2.484,6.235 3.806,9.318 1.061,2.477 2.105,4.925 3.706,7.184 2.603,3.673 4.779,7.646 7.172,11.469 1.055,1.685 2.253,3.281 3.296,4.973 2.679,4.347 5.223,8.78 7.986,13.071 1.706,2.651 3.738,5.088 5.583,7.651 1.956,2.717 3.71,5.595 5.84,8.166 1.628,1.966 3.138,3.984 4.365,6.198 0.727,1.311 1.347,2.737 1.695,4.189 0.495,2.069 -0.384,3.027 -2.531,3.408 -1.628,0.289 -3.212,0.848 -4.845,1.086 -3.224,0.469 -6.471,0.781 -9.703,1.194 -2.368,0.303 -4.719,0.756 -7.093,0.973 -2.45,0.224 -4.924,0.19 -7.38,0.367 -3.258,0.234 -6.509,0.563 -9.762,0.856 -0.239,0.022 -0.492,0.15 -0.708,0.099 -2.981,-0.697 -5.209,1.197 -7.628,2.291 -2.631,1.188 -3.747,4.61 -2.619,7.274 0.924,2.184 2.371,4.155 4.301,5.288 3.659,2.151 7.136,4.641 11.162,6.194 2.193,0.845 4.09,2.443 6.544,2.698 1.252,1.492 3.49,1.365 4.744,3.033 0.621,0.826 1.936,1.224 3.015,1.589 1.392,0.471 2.504,1.251 3.618,2.186 1.081,0.907 1.807,0.534 2.226,-0.851 0.109,-0.359 0.185,-0.728 0.273,-1.082 1.969,0.315 2.372,1.118 2.18,4.3 4.185,1.923 8.382,4.016 12.72,5.762 1.71,0.689 3.007,1.738 4.284,2.903 2.31,2.107 4.928,3.006 7.304,3.738 -0.116,0.812 -0.398,1.724 0.773,2.261 0.668,0.307 1.108,1.118 1.639,1.711 2.967,3.312 5.944,6.615 8.884,9.951 0.682,0.775 1.219,1.677 1.845,2.504 0.428,0.565 0.792,1.125 1.744,0.932 0.476,-0.096 1.337,0.233 1.55,0.626 0.422,0.781 -0.48,0.997 -0.965,1.356 -0.123,0.091 -0.203,0.24 -0.429,0.518 0.41,0.591 0.809,1.261 1.303,1.851 0.657,0.783 1.48,1.438 2.07,2.264 2.175,3.046 4.183,6.208 5.661,9.654 0.484,1.127 0.404,2.492 0.861,3.636 1.41,3.529 1.458,7.309 2.2,10.958 0.593,2.919 -0.99,5.431 -1.651,8.107 -1.166,4.716 -2.462,9.4 -3.727,14.091 -0.163,0.606 -0.441,1.183 -0.692,1.762 -1.299,2.99 -2.609,5.975 -3.908,8.965 -0.158,0.366 -0.209,0.791 -0.417,1.121 -2.878,4.569 -5.13,9.519 -8.729,13.654 -2.976,3.418 -5.646,7.103 -8.529,10.605 -1.367,1.66 -2.8,3.304 -4.424,4.697 -1.044,0.895 -2.494,1.315 -3.757,1.957 -0.496,0.253 -1.014,0.486 -1.462,0.809 -2.971,2.147 -6.064,4.153 -8.852,6.518 -3.834,3.253 -8.327,4.92 -13.06,6.126 -5.457,1.39 -11.045,1.37 -16.625,1.392 -1.583,0.006 -3.198,0.349 -4.743,0.136 -3.926,-0.54 -7.918,-0.825 -11.659,-2.339 -0.416,-0.168 -0.939,-0.047 -1.398,-0.137 -0.856,-0.169 -1.741,-0.293 -2.542,-0.616 -1.913,-0.77 -3.803,-1.605 -5.666,-2.488 -1.725,-0.817 -3.43,-1.686 -5.099,-2.612 -3.468,-1.923 -6.954,-3.82 -10.336,-5.885 -1.688,-1.031 -3.138,-2.446 -4.744,-3.62 -2.119,-1.548 -4.338,-2.963 -6.409,-4.569 -1.044,-0.809 -1.926,-1.86 -2.761,-2.898 -1.109,-1.378 -1.922,-1.746 -3.483,-1.105 0.855,-2.915 -1.832,-3.752 -3.013,-5.488 -0.249,-0.367 -0.937,-0.466 -1.127,-0.839 -1.38,-2.702 -3.746,-4.606 -5.612,-6.901 -1.828,-2.247 -4.165,-4.089 -6.342,-6.038 -1.006,-0.902 -2.216,-1.574 -3.239,-2.459 -3.251,-2.813 -7.709,-2.717 -10.715,0.257 -0.889,0.88 -1.869,1.668 -2.788,2.519 -0.804,0.742 -0.934,1.675 -0.492,2.621 0.668,1.431 0.339,2.728 -0.118,4.154 -0.314,0.983 -0.283,2.206 -0.016,3.219 0.723,2.742 1.479,5.501 2.553,8.116 1.022,2.486 2.497,4.782 3.705,7.194 0.707,1.41 1.264,2.896 1.928,4.328 0.265,0.57 0.561,1.16 0.978,1.618 2.881,3.164 4.885,6.847 6.656,10.71 0.756,1.649 1.962,3.086 2.906,4.655 3.237,5.382 6.282,10.893 10.242,15.801 1.498,1.857 3.228,3.528 4.706,5.398 0.975,1.234 1.693,2.671 2.518,4.021 0.619,1.015 1.192,2.06 1.853,3.046 0.3,0.447 0.727,1.067 1.159,1.122 2.04,0.265 2.846,1.974 3.964,3.257 1.202,1.381 2.164,2.969 3.295,4.417 0.684,0.876 1.404,1.761 2.256,2.462 2.211,1.819 4.472,3.586 6.784,5.274 0.819,0.598 1.858,0.888 2.775,1.359 1.249,0.643 2.115,-0.108 2.585,-0.994 0.58,-1.094 1.04,-2.341 0.393,-3.671 -0.271,-0.555 -0.492,-1.227 -0.452,-1.826 0.16,-2.357 -0.549,-4.519 -1.299,-6.684 -1.808,-5.216 -0.763,-10.034 2.054,-14.591 0.534,-0.863 1.165,-1.666 1.82,-2.593 1.703,0.941 2.908,1.972 2.833,3.918 -0.106,2.737 1.247,5.056 2.065,7.538 1.294,3.927 2.428,7.906 3.673,11.85 0.88,2.782 1.681,5.543 4.197,7.522 1.329,1.046 2.24,2.68 3.181,4.15 1.406,2.196 3.311,3.83 5.417,5.281 0.066,0.046 0.164,0.062 0.206,0.121 2.477,3.509 6.65,3.698 10.176,5.084 3.165,1.244 6.465,2.171 9.753,3.064 1.758,0.477 3.611,0.634 5.431,0.851 2.609,0.312 5.226,0.558 7.841,0.811 0.862,0.083 1.73,0.104 2.542,0.151 0.119,-0.937 0.224,-1.76 0.33,-2.588 1.846,0.266 3.354,0.482 4.861,0.699 10e-4,0.108 10e-4,0.215 10e-4,0.322 -1.255,0.311 -2.511,0.623 -4.185,1.038 2.912,0.684 6.629,-0.01 11.036,-1.875 0.185,-1.59 -0.627,-2.549 -2.039,-3.077 -2.475,-0.926 -4.29,-2.664 -5.909,-4.669 -0.6,-0.744 -1.377,-1.369 -1.865,-2.174 -0.701,-1.155 -1.909,-1.974 -1.691,-3.766 0.105,-0.862 -1.231,-1.931 -1.976,-2.858 -1.695,-2.114 -3.613,-4.077 -5.088,-6.331 -1.208,-1.846 -1.872,-4.041 -2.84,-6.051 -0.758,-1.575 -1.542,-3.146 -2.437,-4.645 -1.579,-2.643 -1.969,-5.509 -1.79,-8.5 0.028,-0.461 0.15,-1.007 0.433,-1.339 0.321,-0.377 0.863,-0.737 1.327,-0.761 0.31,-0.016 0.785,0.507 0.954,0.892 0.705,1.601 1.311,3.245 1.971,4.866 2.464,6.05 5.103,12.004 9.242,17.157 0.695,0.864 1.179,1.899 1.873,2.763 1.335,1.661 2.725,3.279 4.141,4.87 1.676,1.884 3.405,3.721 5.109,5.579 0.108,0.118 0.171,0.314 0.3,0.369 3.137,1.346 5.108,4.53 8.59,5.374 1.181,0.286 2.24,1.046 3.407,1.436 2.957,0.99 5.978,0.443 8.981,0.233 0.308,-0.021 0.688,-0.13 0.918,0.004 1.832,1.06 3.697,0.588 5.584,0.237 3.037,-0.564 6.21,-0.698 9.099,-1.681 4.675,-1.59 9.604,-2.37 14.079,-4.621 3.004,-1.512 3.548,-2.097 3.6,-5.544 0.008,-0.604 0.345,-1.203 0.594,-2.012 -0.54,-0.286 -1.055,-0.603 -1.604,-0.839 -3.421,-1.474 -6.945,-2.749 -9.833,-5.232 -0.292,-0.251 -0.675,-0.41 -1.036,-0.561 -1.899,-0.793 -3.896,-1.402 -5.683,-2.393 -2.389,-1.325 -4.329,-3.21 -5.631,-5.687 -1.959,-3.728 -4.023,-7.404 -5.911,-11.167 -0.999,-1.989 -1.724,-4.115 -2.566,-6.182 -1.503,-3.692 -3.057,-7.364 -4.478,-11.087 -0.764,-2.003 -1.31,-4.09 -1.918,-6.149 -0.105,-0.353 -0.178,-0.843 -0.014,-1.123 0.626,-1.074 1.354,-2.087 2.043,-3.122 0.958,-0.149 1.252,0.534 1.501,1.225 0.914,2.542 1.84,5.08 2.702,7.639 0.862,2.559 1.582,5.168 2.495,7.707 0.751,2.087 1.519,4.204 2.603,6.126 1.14,2.022 2.24,4.074 4.086,5.7 2.131,1.877 3.961,4.115 5.8,6.299 2.005,2.381 4.686,3.805 7.314,5.235 1.857,1.01 4.002,1.488 6.013,2.22 1.042,0.38 2.071,0.791 3.104,1.195 0.222,0.086 0.45,0.31 0.648,0.281 C 1.273,6.4 3.561,8.266 6.076,8.142 10.817,7.909 15.388,9.373 20.092,9.244 21.265,9.212 22.428,8.888 23.603,8.832 24.599,8.783 25.65,8.76 26.596,9.021 28.168,9.458 29.568,9.638 30.64,8.1 33.229,7.841 34.975,5.816 37.273,4.927 39.207,4.179 41.113,3.336 42.961,2.397 43.939,1.9 44.85,1.195 45.646,0.433 c 2.155,-2.064 4.454,-3.885 7.236,-5.047 0.655,-0.274 1.387,-0.611 1.811,-1.137 1.498,-1.862 3.659,-2.491 5.713,-3.36 1.009,-0.428 1.949,-1.014 2.945,-1.477 0.318,-0.148 0.717,-0.114 1.072,-0.193 0.617,-0.136 1.28,-0.189 1.834,-0.459 6.177,-3.009 12.81,-3.682 19.516,-3.531 3.408,0.076 6.818,-0.263 10.218,0.105 1.172,0.128 2.341,0.275 3.51,0.415 0.237,0.028 0.498,0.145 0.706,0.083 3.027,-0.898 5.725,0.581 8.37,1.477 2.466,0.836 4.614,2.6 6.929,3.908 1.377,0.78 2.784,1.515 4.217,2.186 1.735,0.813 3.526,1.505 5.259,2.318 0.61,0.286 1.124,0.778 1.701,1.189 -0.975,1.662 -2.351,1.643 -3.699,1.434 -2.672,-0.416 -5.331,-0.93 -7.993,-1.414 -1.556,-0.283 -3.117,-0.548 -4.662,-0.885 -2.631,-0.575 -5.24,-1.251 -7.877,-1.791 -2.892,-0.592 -8.244,1.889 -9.75,4.407 -0.283,0.472 -0.583,0.991 -1.009,1.309 -4.026,3.009 -5.039,7.612 -6.199,12.049 -0.25,0.954 0.715,2.307 1.311,3.369 0.322,0.573 0.925,1.084 0.303,1.617 -0.41,0.351 -1.151,0.316 -2.002,0.514 0.22,1.477 0.498,3.17 0.717,4.872 0.335,2.606 0.763,5.21 0.908,7.828 0.23,4.132 0.311,8.274 0.355,12.412 0.044,4.124 -0.89,8.095 -2.427,11.888 -1.314,3.245 -5.303,5.134 -8.919,4.648 -1.948,-0.262 -3.654,-0.885 -5.312,-1.958 -1.708,-1.105 -3.596,-1.909 -5.775,-1.279 -1.068,0.309 -2.064,0.276 -2.321,-1.191 -0.173,-0.989 -0.99,-1.142 -1.825,-1.186 -0.883,-0.047 -1.621,0.264 -1.93,1.116 -0.46,1.271 -0.87,2.567 -1.204,3.877 -0.387,1.517 -0.042,3.134 -0.79,4.649 -0.293,0.596 0.019,1.583 0.253,2.33 0.79,2.527 1.845,4.931 3.555,7.007 3.501,4.253 6.924,8.573 10.485,12.776 2.314,2.731 4.766,5.349 7.77,7.381 0.566,0.383 1.1,0.927 1.435,1.518 0.883,1.554 2.204,2.305 3.925,2.256 1.057,-0.031 1.838,0.197 2.472,1.096 0.294,0.417 0.83,0.826 1.318,0.919 4.032,0.774 8.072,1.549 11.892,-0.867 1.001,-0.633 2.093,-1.13 3.168,-1.636 2.422,-1.139 3.034,-2.936 1.704,-5.206 -0.893,-1.523 -1.943,-2.819 -3.697,-3.532 -2.185,-0.89 -3.921,-2.381 -5.174,-4.468 -0.601,-1.003 -1.549,-1.814 -2.408,-2.642 -1.57,-1.512 -2.162,-3.321 -1.777,-5.444 0.063,-0.347 0.349,-0.654 0.642,-1.18 1.165,0.795 2.341,1.354 3.188,2.23 1.492,1.542 2.748,3.309 4.171,4.92 0.78,0.883 1.613,1.77 2.579,2.423 1.583,1.07 3.294,1.95 4.953,2.909 0.207,0.119 0.433,0.336 0.632,0.317 2.679,-0.258 4.788,1.618 7.306,1.919 0.688,0.082 1.453,0.164 2.085,-0.047 5.154,-1.719 9.392,-4.582 11.922,-9.609 0.638,-1.266 1.545,-2.415 2.439,-3.528 1.632,-2.03 1.857,-4.313 1.477,-6.743 -3.464,-1.901 -7.222,-2.798 -10.95,-3.813 -1.345,-0.366 -2.976,-0.815 -3.784,-1.796 -1.848,-2.243 -4.405,-3.391 -6.617,-5.055 -2.068,-1.556 -3.464,-3.498 -3.873,-6.102 -0.256,-1.633 0.231,-2.133 1.8,-1.54 0.949,0.36 1.842,0.947 2.656,1.568 2.467,1.886 4.866,3.861 7.324,5.76 2.124,1.641 4.758,1.769 7.245,2.295 2.405,0.509 4.747,-0.239 7.11,-0.514 0.297,-0.034 0.695,-0.188 0.837,-0.417 1.006,-1.611 2.743,-1.616 4.283,-2.168 1.543,-0.553 2.932,-1.545 4.368,-2.379 0.335,-0.195 0.541,-0.668 0.884,-0.781 1.854,-0.613 2.582,-2.26 3.59,-3.686 0.954,-1.348 2.036,-2.607 3.089,-3.882 0.404,-0.489 1.234,-0.884 1.273,-1.37 0.199,-2.465 2.488,-3.362 3.627,-5.104 1.131,-1.73 2.272,-3.548 3.782,-4.914 2.06,-1.865 4.492,-3.313 6.73,-4.986 1.916,-1.432 3.795,-2.916 5.671,-4.402 3.388,-2.684 7.079,-4.875 10.813,-7.04 2.194,-1.273 4.726,-1.266 6.877,-2.359 6.016,-3.057 12.596,-3.913 19.105,-4.802 3.033,-0.415 6.278,-0.342 9.358,0.751 2.379,0.844 4.941,1.187 7.282,2.109 1.424,0.561 2.64,1.729 3.847,2.746 2.061,1.735 3.96,3.605 6.335,5.019 1.928,1.149 3.316,3.175 5.054,4.685 1.979,1.719 4.133,3.237 6.116,4.951 2.594,2.239 5.187,4.492 7.614,6.907 3.206,3.19 5.859,6.909 9.464,9.738 1.23,0.965 2.11,2.366 3.222,3.497 0.609,0.618 1.292,1.335 2.074,1.574 1.95,0.595 3.68,1.902 5.839,1.831 0.296,-0.009 0.612,0.151 0.894,0.281 5.228,2.421 12.271,-2.249 12.057,-8.072 -0.145,-3.902 -0.46,-7.798 -0.764,-11.692 -0.198,-2.542 -0.651,-5.07 -0.74,-7.613 -0.126,-3.545 -0.666,-6.97 -1.973,-10.279 -1.786,-4.526 -3.564,-9.057 -5.238,-13.625 -0.393,-1.07 -1.218,-2.061 -0.849,-3.403 0.117,-0.428 -0.291,-1.054 -0.565,-1.527 -1.545,-2.657 -3.079,-5.323 -4.717,-7.923 -0.487,-0.775 -1.279,-1.366 -1.964,-2.008 -0.285,-0.266 -0.833,-0.371 -0.955,-0.674 -0.749,-1.849 -2.569,-1.649 -3.882,-1.665 -1.498,-0.02 -3.293,0.443 -4.456,1.345 -2.938,2.278 -5.776,4.751 -8.291,7.481 -1.399,1.52 -2.924,2.388 -4.773,2.941 -0.364,0.108 -0.768,0.074 -1.311,0.12 -0.104,-1.119 0.553,-1.656 1.21,-2.19 3.782,-3.069 7.258,-6.412 9.922,-10.549 0.634,-0.983 1.691,-1.687 2.514,-2.557 0.406,-0.428 0.719,-0.943 1.325,-1.754 -1.199,-0.042 -2.181,1.446 -2.774,-0.273 1.297,-1.826 3.103,-3.066 5.399,-3.539 1.102,-0.227 1.55,-0.888 1.777,-2.166 -0.989,0.22 -1.774,0.394 -2.993,0.664 0.836,-1.207 1.411,-2.076 2.025,-2.917 2.308,-3.161 4.063,-6.549 4.46,-10.524 0.035,-0.346 0.321,-0.684 0.542,-0.988 0.184,-0.253 0.67,-0.493 0.636,-0.663 -0.383,-1.918 1.468,-2.858 1.927,-4.455 0.442,-1.538 1.651,-2.869 2.583,-4.25 2.318,-3.441 4.678,-6.848 8.203,-9.226 0.478,-0.323 0.835,-0.829 1.407,-1.412 -2.006,-1.052 -3.725,-1.954 -5.818,-3.052 -0.212,0.025 -0.939,0.109 -1.993,0.232 0.335,-0.944 0.557,-1.574 0.771,-2.175 1.92,0.251 3.747,0.164 5.162,1.595 0.22,0.222 0.986,-0.096 1.307,-0.138 0.734,-1.025 -0.661,-2.115 0.563,-2.821 0.04,-0.076 0.081,-0.145 0.093,-0.22 0.084,-0.565 -0.175,-1.326 0.754,-1.409 0.153,-0.014 0.33,0.228 0.496,0.351 -0.326,0.356 -0.643,0.719 -0.983,1.061 -0.104,0.103 -0.27,0.145 -0.407,0.216"
         style="fill:#000000;fill-opacity:1;fill-rule:nonzero;stroke:none"
         transform="matrix(1.3333333,0,0,-1.3333333,302.77027,216.39267)"
         clip-path="url(#clipPath2)" />
      <path
         id="path3"
         d="m 0,0 c -0.331,0.204 -0.548,0.431 -0.661,0.387 -0.234,-0.09 -0.41,-0.324 -0.61,-0.498 0.148,-0.128 0.326,-0.384 0.44,-0.359 C -0.579,-0.414 -0.359,-0.216 0,0 m -16.397,17.007 c 0.347,0.462 0.631,0.674 0.641,0.897 0.011,0.254 -0.223,0.519 -0.351,0.78 -0.242,-0.129 -0.682,-0.253 -0.686,-0.389 -0.008,-0.33 0.186,-0.665 0.396,-1.288 m 4.067,-2.585 c -0.944,-0.203 -1.48,-0.555 -1.218,-1.448 0.045,-0.154 0.404,-0.362 0.54,-0.316 0.784,0.267 1.04,0.817 0.678,1.764 M -35.149,29.55 c -0.169,0.012 -0.339,0.026 -0.509,0.039 -0.672,-1.481 -0.672,-1.481 0.104,-2.371 0.157,0.899 0.281,1.616 0.405,2.332 m 4.146,-16.226 c -0.983,-0.365 -1.454,-0.905 -1.127,-1.827 0.061,-0.173 0.613,-0.375 0.761,-0.281 0.75,0.472 1.057,1.126 0.366,2.108 m -41.561,12 c -1.732,0.328 -1.732,0.328 -1.618,-2.498 0.609,0.94 1.087,1.679 1.618,2.498 M -9.866,0.12 c -2.038,2.041 -3.12,2.097 -3.313,0.803 1.144,-0.277 2.228,-0.54 3.313,-0.803 m -12.857,26.035 c 0.998,0.163 1.996,0.326 3.239,0.53 -1.559,1.594 -2.464,1.507 -3.239,-0.53 M -40.688,25.51 c -1.352,1.702 -2.385,0.817 -3.322,0.396 -0.231,-0.104 -0.156,-0.889 -0.293,-1.872 1.436,0.586 2.401,0.98 3.615,1.476 m 10.682,2.233 c -0.468,-0.766 -1.371,-1.407 -0.609,-2.444 0.613,-0.833 1.363,-0.517 2.129,-0.051 0.045,1.132 0.142,2.249 -1.52,2.495 m -52.223,2.721 c 1.082,0.134 2.164,0.267 3.254,0.416 1.367,-1.572 1.367,-1.572 2.588,0.055 -1.108,0.951 -1.108,0.951 -2.638,-0.144 0.11,0.804 0.22,1.607 0.349,2.55 -0.454,-0.157 -0.585,-0.232 -0.72,-0.245 -1.616,-0.158 -2.554,-1.033 -2.809,-2.632 -0.137,-0.942 -1.367,-1.89 0.158,-2.917 0.37,0.163 0.82,0.362 1.485,0.654 -0.647,0.879 -1.158,1.571 -1.667,2.263 M -94.93,8.208 c -0.584,-0.1 -1.088,-0.257 -0.708,-1.287 0.291,0.57 0.484,0.947 0.659,1.347 0.18,0.495 0.361,0.99 0.58,1.591 -0.379,0.105 -0.704,0.194 -1.31,0.361 0.334,-0.862 0.557,-1.437 0.779,-2.012 m 57.51,30.772 c 1.605,1.421 3.396,1.495 5.355,0.855 1.809,-0.59 3.687,-0.972 5.484,-1.593 3.088,-1.066 6.161,-2.189 9.185,-3.424 0.738,-0.301 1.203,-1.217 1.904,-1.684 0.629,-0.419 1.568,-0.457 1.344,-1.572 2.162,0.418 3.219,-1.06 4.26,-2.369 0.398,-0.498 0.691,-0.82 1.292,-1.135 1.007,-0.53 1.847,-1.454 2.621,-2.332 1.313,-1.489 2.652,-2.983 3.734,-4.636 1.217,-1.861 2.286,-3.843 3.193,-5.873 C 2.014,12.841 2.848,10.362 3.742,7.914 3.957,7.327 4.022,6.686 4.153,6.082 3.461,5.478 2.849,4.943 1.878,4.098 c 1.124,0 1.91,0.228 2.336,-0.066 0.419,-0.289 0.511,-1.097 0.682,-1.696 1.207,-4.204 0.299,-8.353 -0.304,-12.803 -0.834,0.198 -1.555,0.382 -2.281,0.539 -0.955,0.207 -1.855,-0.03 -2.279,-0.89 -0.421,-0.853 -0.115,-1.687 0.685,-2.221 1.43,0.02 1.799,2.401 3.838,1.251 -0.6,-2.613 -1.127,-5.33 -1.862,-7.99 -0.604,-2.191 -2.416,-3.474 -4.097,-4.834 -1.726,-1.398 -3.424,-2.837 -5.041,-4.358 -1.614,-1.517 -2.946,-3.382 -4.707,-4.679 -1.551,-1.142 -3.451,-2.063 -5.327,-2.459 -3.859,-0.815 -7.788,-1.476 -11.758,-1.378 -3.26,0.08 -6.496,-0.684 -9.769,-0.108 -2.736,0.482 -5.513,0.737 -8.245,1.234 -3.222,0.586 -6.427,1.274 -9.611,2.03 -0.966,0.229 -1.848,0.823 -2.761,1.265 -1.492,0.721 -3.036,1.359 -4.457,2.203 -2.611,1.55 -5.341,2.74 -8.277,3.55 -1.672,0.46 -3.221,1.353 -4.858,1.965 -3.504,1.314 -6.951,2.919 -10.572,3.734 -2.599,0.585 -4.879,1.868 -7.416,2.461 -2.012,0.469 -4.057,0.801 -6.057,1.31 -0.889,0.227 -1.913,0.542 -2.511,1.166 -1.18,1.234 -2.634,1.728 -4.168,2.146 -2.23,0.607 -4.479,1.145 -6.697,1.791 -1.629,0.474 -3.203,1.14 -4.967,0.758 -0.219,-0.048 -0.501,0.31 -0.778,0.374 -1.122,0.256 -2.252,0.486 -3.384,0.697 -0.923,0.173 -2.028,0.044 -2.744,0.516 -1.159,0.768 -2.39,0.7 -3.616,0.932 -1.079,0.205 -2.321,0.319 -3.145,0.936 -1.522,1.14 -3.209,1.505 -4.974,1.899 -1.465,0.326 -2.905,0.838 -4.297,1.414 -3.567,1.478 -7.268,2.23 -11.12,2.425 -2.299,0.116 -4.606,0.359 -6.876,0.74 -4.09,0.687 -8.135,1.658 -12.235,2.256 -5.988,0.873 -12.007,1.519 -18.013,2.265 -1.958,0.243 -3.909,0.565 -5.874,0.734 -3.654,0.315 -7.317,0.559 -10.977,0.801 -1.433,0.096 -2.876,0.059 -4.308,0.168 -2.707,0.205 -5.41,0.469 -8.115,0.718 -0.476,0.043 -0.963,0.252 -1.421,0.191 -2.782,-0.367 -5.373,0.617 -7.975,1.23 -5.003,1.181 -10.037,1.683 -15.166,1.776 -3.011,0.054 -6.033,0.513 -9.008,1.032 -1.447,0.253 -2.453,1.455 -3.058,2.822 -0.386,0.874 -0.682,1.796 -0.933,2.72 -0.424,1.556 -0.253,2.029 1.314,2.522 2.283,0.719 4.609,1.324 6.947,1.841 3.811,0.844 7.643,1.601 11.477,2.341 0.847,0.164 1.736,0.125 2.608,0.144 0.953,0.02 1.927,-0.128 2.857,0.018 5.065,0.796 10.168,0.915 15.272,0.826 6.218,-0.107 12.433,-0.441 18.651,-0.512 4.71,-0.055 9.422,0.137 14.133,0.252 0.531,0.013 1.056,0.24 1.698,0.395 -0.364,1.832 -1.988,2.116 -3.057,2.125 -4.277,0.034 -8.386,1.013 -12.549,1.736 -1.251,0.217 -2.553,0.121 -3.822,0.263 -1.733,0.196 -3.45,0.549 -5.185,0.715 -2.384,0.227 -4.776,0.396 -7.168,0.488 -3.422,0.134 -6.848,0.225 -10.273,0.243 -2.519,0.014 -5.049,-0.283 -7.556,-0.141 -3.416,0.194 -6.791,-0.331 -10.25,-0.062 -3.858,0.301 -7.551,1.194 -11.309,1.831 -2.487,0.423 -4.902,1.266 -7.355,1.902 -1.1,0.285 -2.383,0.496 -2.513,1.844 -0.135,1.411 -0.082,2.992 1.246,3.917 1.845,1.284 3.433,2.922 6.031,3.041 1.442,0.066 2.813,1.314 4.249,1.954 0.929,0.414 1.896,0.79 2.885,1.008 1.942,0.429 3.909,0.746 5.871,1.084 0.383,0.067 0.854,0.166 1.167,0.013 3.562,-1.746 7.147,-0.677 10.727,-0.144 0.393,0.058 0.779,0.238 1.168,0.24 3.501,0.014 7.001,0.019 10.501,-0.022 0.52,-0.006 1.203,-0.107 1.522,-0.44 0.715,-0.746 1.502,-0.828 2.402,-0.67 2.338,0.41 4.664,0.902 7.013,1.227 2.16,0.297 4.279,0.793 6.465,-0.469 1.019,-0.588 2.606,-0.348 3.917,-0.241 1.737,0.14 3.432,0.074 5.173,-0.013 3.561,-0.177 7.15,0.154 10.725,0.326 3.111,0.149 6.214,0.441 9.325,0.538 3.994,0.126 7.994,0.042 11.986,0.193 5.022,0.189 10.039,0.542 15.059,0.778 0.772,0.037 1.557,-0.158 2.331,-0.272 1.339,-0.195 2.669,-0.505 4.014,-0.598 2.625,-0.181 5.263,-0.393 7.887,-0.313 2.647,0.082 5.224,-0.465 7.831,-0.539 2.973,-0.084 5.954,0.319 8.934,0.353 2.458,0.028 4.917,-0.224 7.377,-0.251 1.417,-0.016 2.835,0.201 4.255,0.253 2.116,0.078 4.234,0.1 6.35,0.15 2.422,0.057 4.845,0.186 7.265,0.154 1.729,-0.022 3.454,-0.278 5.183,-0.387 0.704,-0.045 1.414,0.036 2.121,0.032 3.708,-0.018 7.425,0.113 11.121,-0.111 3.55,-0.217 7.074,-0.84 10.617,-1.214 1.897,-0.2 3.81,-0.354 5.715,-0.349 3.722,0.009 7.267,-0.741 10.73,-2.056 0.516,-0.195 1.26,-0.159 1.766,0.066 1.448,0.644 2.644,-0.185 3.901,-0.546 0.26,-0.075 0.334,-0.794 0.488,-1.207 -0.827,0.82 -1.812,0.884 -2.846,0.719 -0.453,-1.747 -0.227,-2.621 0.789,-2.786 1.27,-0.208 1.623,0.69 1.799,1.716 0.026,0.145 0.145,0.274 0.22,0.41"
         style="fill:#000000;fill-opacity:1;fill-rule:nonzero;stroke:none"
         transform="matrix(1.3333333,0,0,-1.3333333,981.52813,560.28707)"
         clip-path="url(#clipPath4)" />
      <path
         id="path5"
         d="m 0,0 c -0.081,-0.769 -0.354,-1.523 -0.194,-2.173 0.604,-2.475 0.374,-4.885 -0.3,-7.285 -0.472,-1.676 -0.689,-3.526 -1.569,-4.962 -1.462,-2.389 -3.675,-4.272 -6.427,-4.927 -1.439,-0.342 -3.125,0.296 -4.687,0.565 -0.701,0.12 -1.44,0.304 -2.043,0.661 -3.188,1.888 -5.578,-0.041 -7.524,-2.142 -1.614,-1.745 -2.977,-3.723 -4.455,-5.594 -3.003,-3.803 -8.644,-4.562 -12.111,-1.145 -1.638,1.616 -3.348,3.245 -4.584,5.154 -0.856,1.324 -1.524,3.225 -1.291,4.714 0.691,4.403 2.124,8.582 6.65,10.677 0.996,0.461 2.06,0.901 3.134,1.043 1.725,0.23 3.505,0.401 5.225,0.23 1.779,-0.177 3.584,-0.615 5.241,-1.278 1.001,-0.402 1.783,-0.235 2.453,0.228 1.355,0.937 2.763,1.909 3.816,3.149 2.377,2.801 5.293,4.771 8.539,6.378 2.061,1.02 4.002,0.979 5.89,-0.278 C -2.796,2.056 -1.412,1.009 0,0"
         style="fill:#000000;fill-opacity:1;fill-rule:nonzero;stroke:none"
         transform="matrix(1.3333333,0,0,-1.3333333,548.16347,368.70373)"
         clip-path="url(#clipPath6)" />
    </g>
  </g>
</svg>
